<svg xmlns="http://www.w3.org/2000/svg" xmlns:xlink="http://www.w3.org/1999/xlink" width="94.659" height="111.51" viewBox="0 0 94.659 111.51">
  <defs>
    <linearGradient id="linear-gradient" x1="0.5" y1="1" x2="0.5" gradientUnits="objectBoundingBox">
      <stop offset="0" stop-color="#cbf1f6"/>
      <stop offset="1" stop-color="#fff"/>
    </linearGradient>
  </defs>
  <g id="Grupo_10799" data-name="Grupo 10799" transform="translate(1322.124 -2017.787)">
    <g id="Grupo_10798" data-name="Grupo 10798">
      <g id="Grupo_10797" data-name="Grupo 10797">
        <path id="Trazado_2086" data-name="Trazado 2086" d="M-1307.805,2056.209h5.171v9l8.989-9h37.63l7.9,9v-9h4.9a10.264,10.264,0,0,0,10.264-10.265v-16.422a10.263,10.263,0,0,0-10.264-10.264h-64.585a10.264,10.264,0,0,0-10.265,10.264v16.422A10.265,10.265,0,0,0-1307.805,2056.209Z" fill="url(#linear-gradient)"/>
        <path id="Trazado_2087" data-name="Trazado 2087" d="M-1297.033,2106.211v-7.882c3.68-1.512,3.529-6.225,3.529-6.225v-8.053a10.061,10.061,0,0,0-.6-3.274,5.263,5.263,0,0,0,.7.071,5.392,5.392,0,0,0,5.392-5.392,5.392,5.392,0,0,0-5.392-5.392,5.392,5.392,0,0,0-5.392,5.392,5.47,5.47,0,0,0,.058.576,10.492,10.492,0,0,0-3.591-.576c-7.612,0-8.812,8.437-8.812,8.437v8.211a7.692,7.692,0,0,0,2.843,6.225v7.882c-7.264,0-10.364,6.994-10.364,6.994l-1.48,11.017c.474,1.957,4.423,3.1,4.423,3.1h25.265c4.737,0,5.684-3.1,5.684-3.1s.158-6.536-2.311-11.747S-1297.033,2106.211-1297.033,2106.211Z" fill="url(#linear-gradient)"/>
        <path id="Trazado_2088" data-name="Trazado 2088" d="M-1231.952,2112.475c-2.469-5.212-9.957-6.264-9.957-6.264v-7.882c3.68-1.512,3.53-6.225,3.53-6.225v-8.053c0-2.369-1.21-8.595-8.821-8.595s-8.812,8.437-8.812,8.437v8.211a7.692,7.692,0,0,0,2.843,6.225v7.882c-7.264,0-10.363,6.994-10.363,6.994l-1.48,11.017c.474,1.957,4.422,3.1,4.422,3.1h25.265c4.737,0,5.685-3.1,5.685-3.1S-1229.482,2117.686-1231.952,2112.475Z" fill="url(#linear-gradient)"/>
      </g>
    </g>
    <path id="Trazado_2089" data-name="Trazado 2089" d="M-1283.415,2115.325a12.438,12.438,0,0,0-7.977-9.469l-3.519-1.276v-5.694c.02-.02.04-.037.061-.057a11.166,11.166,0,0,0,3.337-7.918v-6.557a10.782,10.782,0,0,0-.209-2.109,7.288,7.288,0,0,0,5.589-7.077,7.284,7.284,0,0,0-7.278-7.275,7.289,7.289,0,0,0-7.128,5.807,10.708,10.708,0,0,0-1.782-.15,10.817,10.817,0,0,0-10.808,10.8v6.763a10.782,10.782,0,0,0,3.4,7.837v5.717l-3.351,1.215a12.448,12.448,0,0,0-7.948,9.321l-.96,5.011a7.615,7.615,0,0,0,1.614,6.3,7.626,7.626,0,0,0,5.9,2.774h24.426a7.627,7.627,0,0,0,5.864-2.739,7.624,7.624,0,0,0,1.663-6.25Zm-10-44.165a4.014,4.014,0,0,1,4.011,4.008,4.013,4.013,0,0,1-3.462,3.968,10.877,10.877,0,0,0-4.536-4.4,4.015,4.015,0,0,1,3.987-3.581Zm-16.451,13.194a7.548,7.548,0,0,1,7.541-7.537,7.548,7.548,0,0,1,7.541,7.537v.251a6.719,6.719,0,0,1-1.154.6,6.687,6.687,0,0,1-7.643-1.93,1.633,1.633,0,0,0-2.3-.21,1.635,1.635,0,0,0-.21,2.3,9.949,9.949,0,0,0,7.65,3.592,9.982,9.982,0,0,0,3.657-.7v2.652a7.877,7.877,0,0,1-2.358,5.586,7.351,7.351,0,0,1-5.332,2.155,7.576,7.576,0,0,1-7.392-7.535Zm7.329,17.565.206,0a10.512,10.512,0,0,0,4.149-.853V2105l-4.143,3.616-4.139-3.616v-3.912a10.626,10.626,0,0,0,3.927.834Zm.224,20.254-2.066-6.18,2-2.522,1.848,2.518Zm-15.544,2.268a4.354,4.354,0,0,1-.924-3.609l.96-5.012a9.168,9.168,0,0,1,5.853-6.864l3.582-1.3,3.812,3.329-2.916,3.668a1.64,1.64,0,0,0-.27,1.535l3.293,9.841h-10.013a4.365,4.365,0,0,1-3.377-1.589Zm31.162.021a4.37,4.37,0,0,1-3.359,1.568h-9.973l2.86-9.906a1.635,1.635,0,0,0-.252-1.42l-2.7-3.68,3.932-3.431,3.679,1.334a9.158,9.158,0,0,1,5.874,6.974l.892,4.983a4.362,4.362,0,0,1-.952,3.578Zm0,0" fill="#4384cd"/>
    <path id="Trazado_2090" data-name="Trazado 2090" d="M-1227.585,2120.308l-.893-4.982a12.43,12.43,0,0,0-7.977-9.47l-3.518-1.276v-5.694c.02-.02.041-.037.06-.056a11.165,11.165,0,0,0,3.337-7.919v-6.557a10.817,10.817,0,0,0-10.808-10.8,10.818,10.818,0,0,0-10.807,10.8v6.763a10.784,10.784,0,0,0,3.4,7.838v5.717l-3.351,1.214a12.448,12.448,0,0,0-7.948,9.321l-.962,5.012a7.616,7.616,0,0,0,1.618,6.3,7.621,7.621,0,0,0,5.894,2.773h24.426a7.629,7.629,0,0,0,5.864-2.738,7.624,7.624,0,0,0,1.663-6.251Zm-27.339-35.954a7.548,7.548,0,0,1,7.541-7.537,7.552,7.552,0,0,1,7.437,6.293,14.931,14.931,0,0,1-1.588.748c-3.122,1.25-5.876,1.174-6.883.467a1.633,1.633,0,0,0-2.275.4,1.632,1.632,0,0,0,.4,2.274,7.307,7.307,0,0,0,4.19,1.1,15.868,15.868,0,0,0,5.782-1.206c.161-.064.319-.132.478-.2v4.222a7.877,7.877,0,0,1-2.358,5.586,7.342,7.342,0,0,1-5.331,2.155,7.576,7.576,0,0,1-7.393-7.535Zm7.329,17.565.207,0a10.5,10.5,0,0,0,4.148-.853v3.883a7.2,7.2,0,0,1-8.282,0v-3.864a10.607,10.607,0,0,0,3.927.834Zm15.842,22.543a4.363,4.363,0,0,1-3.357,1.568h-24.428a4.366,4.366,0,0,1-3.376-1.589,4.358,4.358,0,0,1-.927-3.608l.962-5.013a9.17,9.17,0,0,1,5.853-6.864l3.646-1.321a10.411,10.411,0,0,0,6,1.887,10.427,10.427,0,0,0,6.086-1.946l3.726,1.351a9.152,9.152,0,0,1,5.875,6.974l.893,4.982a4.363,4.363,0,0,1-.952,3.579Zm0,0" fill="#4384cd"/>
    <path id="Trazado_2091" data-name="Trazado 2091" d="M-1308.791,2057.951h4.462v7.472a1.634,1.634,0,0,0,1.009,1.51,1.636,1.636,0,0,0,1.78-.354l8.631-8.628h35.289l8.631,8.628a1.636,1.636,0,0,0,1.156.477,1.649,1.649,0,0,0,.625-.123,1.634,1.634,0,0,0,1.007-1.51v-7.472h4.464a10.83,10.83,0,0,0,10.82-10.816V2028.6a10.83,10.83,0,0,0-10.82-10.816h-67.054a10.831,10.831,0,0,0-10.821,10.816v18.532a10.83,10.83,0,0,0,10.821,10.816Zm-7.554-29.348a7.56,7.56,0,0,1,7.554-7.549h67.054a7.561,7.561,0,0,1,7.554,7.549v18.532a7.561,7.561,0,0,1-7.554,7.549h-5.106a2.627,2.627,0,0,0-2.625,2.624v4.173l-6.031-6.029a2.606,2.606,0,0,0-1.854-.768h-35.822a2.607,2.607,0,0,0-1.856.768l-6.031,6.029v-4.173a2.626,2.626,0,0,0-2.625-2.624h-5.1a7.56,7.56,0,0,1-7.554-7.549Zm0,0" fill="#4384cd"/>
    <path id="Trazado_2092" data-name="Trazado 2092" d="M-1297.158,2050.721a1.634,1.634,0,0,0,1.634-1.634v-1.359a1.423,1.423,0,0,1,1.42-1.42h1.71a2.62,2.62,0,0,0,2.51-1.846,15.407,15.407,0,0,1,1.064-2.562,2.613,2.613,0,0,0-.469-3.083l-1.209-1.21a1.406,1.406,0,0,1-.416-1,1.406,1.406,0,0,1,.416-1l1.922-1.922a1.425,1.425,0,0,1,2.01,0l1.21,1.211a2.619,2.619,0,0,0,3.083.467,15.566,15.566,0,0,1,2.564-1.064,2.618,2.618,0,0,0,1.847-2.51v-1.708a1.422,1.422,0,0,1,1.421-1.42h2.718a1.422,1.422,0,0,1,1.42,1.42v1.708a2.619,2.619,0,0,0,1.847,2.51,15.526,15.526,0,0,1,2.563,1.064,2.62,2.62,0,0,0,3.084-.467l1.21-1.211a1.426,1.426,0,0,1,2.011,0l1.922,1.922a1.413,1.413,0,0,1,.415,1,1.413,1.413,0,0,1-.415,1l-1.211,1.21a2.617,2.617,0,0,0-.468,3.084,15.446,15.446,0,0,1,1.064,2.561,2.619,2.619,0,0,0,2.51,1.846h1.71a1.423,1.423,0,0,1,1.42,1.42v1.359a1.634,1.634,0,0,0,1.633,1.634,1.633,1.633,0,0,0,1.633-1.634v-1.359a4.693,4.693,0,0,0-4.686-4.687h-1.248a18.511,18.511,0,0,0-.932-2.241l.884-.883a4.656,4.656,0,0,0,1.372-3.314,4.656,4.656,0,0,0-1.372-3.314l-1.921-1.921a4.7,4.7,0,0,0-6.631,0l-.883.883a18.857,18.857,0,0,0-2.244-.931v-1.246a4.693,4.693,0,0,0-4.688-4.687h-2.717a4.692,4.692,0,0,0-4.688,4.687v1.246a18.857,18.857,0,0,0-2.244.931l-.884-.883a4.692,4.692,0,0,0-6.629,0l-1.922,1.921a4.657,4.657,0,0,0-1.373,3.314,4.657,4.657,0,0,0,1.373,3.314l.883.883a18.844,18.844,0,0,0-.931,2.241h-1.248a4.693,4.693,0,0,0-4.687,4.687v1.359a1.634,1.634,0,0,0,1.633,1.634Zm0,0" fill="#4384cd"/>
    <path id="Trazado_2093" data-name="Trazado 2093" d="M-1275.082,2038.136a10.965,10.965,0,0,0-10.954,10.951,1.634,1.634,0,0,0,1.633,1.634,1.634,1.634,0,0,0,1.633-1.634,7.7,7.7,0,0,1,7.688-7.684,7.7,7.7,0,0,1,7.687,7.684,1.634,1.634,0,0,0,1.634,1.634,1.634,1.634,0,0,0,1.633-1.634,10.965,10.965,0,0,0-10.954-10.951Zm0,0" fill="#4384cd"/>
  </g>
</svg>
