<svg xmlns="http://www.w3.org/2000/svg" width="826.401" height="617.325" viewBox="0 0 826.401 617.325">
  <g id="Grupo_10702" data-name="Grupo 10702" transform="translate(-306.898 -1320.293)">
    <rect id="Rectángulo_2804" data-name="Rectángulo 2804" width="306.933" height="314.084" rx="7.066" transform="translate(607.058 1515.824)" fill="#edf8fd"/>
    <ellipse id="Elipse_5" data-name="Elipse 5" cx="189.6" cy="64.849" rx="189.6" ry="64.849" transform="translate(664.758 1321.793)" stroke-dasharray="8" stroke="#b6e2f7" stroke-linecap="round" stroke-linejoin="round" stroke-width="3" fill="#e3f4fc"/>
    <line id="Línea_43" data-name="Línea 43" y1="132.674" transform="translate(764.22 1410.042)" fill="none" stroke="#71d9e6" stroke-linecap="round" stroke-linejoin="round" stroke-width="3"/>
    <path id="Trazado_1816" data-name="Trazado 1816" d="M757.809,1538.095c-.984-1.968.011-3.578,2.211-3.578h8.4c2.2,0,3.2,1.61,2.211,3.578l-4.622,9.244c-.984,1.968-2.594,1.968-3.578,0Z" fill="#71d9e6"/>
    <path id="Trazado_1817" data-name="Trazado 1817" d="M770.631,1814.587c.984,1.968-.011,3.578-2.211,3.578h-8.4c-2.2,0-3.2-1.61-2.211-3.578l4.622-9.245c.984-1.967,2.594-1.967,3.578,0Z" fill="#71d9e6"/>
    <path id="Trazado_1818" data-name="Trazado 1818" d="M623.526,1584.553c-1.968.984-3.578-.011-3.578-2.211v-8.4c0-2.2,1.61-3.2,3.578-2.211l9.244,4.622c1.968.984,1.968,2.594,0,3.578Z" fill="#71d9e6"/>
    <path id="Trazado_1819" data-name="Trazado 1819" d="M623.526,1683.789c-1.968.984-3.578-.012-3.578-2.212v-8.4c0-2.2,1.61-3.195,3.578-2.211l9.244,4.623c1.968.984,1.968,2.593,0,3.577Z" fill="#71d9e6"/>
    <path id="Trazado_1820" data-name="Trazado 1820" d="M353.255,1470.808c-.983-1.967.012-3.577,2.212-3.577h8.4c2.2,0,3.2,1.61,2.211,3.577l-4.623,9.245c-.983,1.968-2.593,1.968-3.577,0Z" fill="#71d9e6"/>
    <line id="Línea_44" data-name="Línea 44" x1="125.674" transform="translate(885.12 1677.377)" fill="none" stroke="#71d9e6" stroke-linecap="round" stroke-linejoin="round" stroke-width="3"/>
    <path id="Trazado_1821" data-name="Trazado 1821" d="M1006.172,1683.789c-1.968.983-3.578-.012-3.578-2.212v-8.4c0-2.2,1.61-3.195,3.578-2.211l9.245,4.623c1.967.983,1.967,2.593,0,3.577Z" fill="#71d9e6"/>
    <g id="Grupo_10697" data-name="Grupo 10697">
      <line id="Línea_45" data-name="Línea 45" y1="25.099" transform="translate(764.22 1618.607)" fill="none" stroke="#71d9e6" stroke-linecap="round" stroke-linejoin="round" stroke-width="3"/>
      <path id="Trazado_1822" data-name="Trazado 1822" d="M757.809,1639.084c-.984-1.968.011-3.578,2.211-3.578h8.4c2.2,0,3.2,1.61,2.211,3.578l-4.622,9.244c-.984,1.968-2.594,1.968-3.578,0Z" fill="#71d9e6"/>
      <path id="Trazado_1823" data-name="Trazado 1823" d="M770.631,1616.436c.984,1.967-.011,3.577-2.211,3.577h-8.4c-2.2,0-3.2-1.61-2.211-3.577l4.622-9.245c.984-1.968,2.594-1.968,3.578,0Z" fill="#71d9e6"/>
    </g>
    <g id="Grupo_10698" data-name="Grupo 10698">
      <line id="Línea_46" data-name="Línea 46" y1="25.099" transform="translate(764.22 1717.843)" fill="none" stroke="#71d9e6" stroke-linecap="round" stroke-linejoin="round" stroke-width="3"/>
      <path id="Trazado_1824" data-name="Trazado 1824" d="M757.809,1738.319c-.984-1.968.011-3.578,2.211-3.578h8.4c2.2,0,3.2,1.61,2.211,3.578l-4.622,9.245c-.984,1.968-2.594,1.968-3.578,0Z" fill="#71d9e6"/>
      <path id="Trazado_1825" data-name="Trazado 1825" d="M770.631,1715.671c.984,1.968-.011,3.578-2.211,3.578h-8.4c-2.2,0-3.2-1.61-2.211-3.578l4.622-9.245c.984-1.967,2.594-1.967,3.578,0Z" fill="#71d9e6"/>
    </g>
    <path id="Trazado_1826" data-name="Trazado 1826" d="M905.058,1578.224h32.4V1410.042" fill="none" stroke="#71d9e6" stroke-linecap="round" stroke-linejoin="round" stroke-width="3"/>
    <path id="Trazado_1827" data-name="Trazado 1827" d="M901.48,1571.813c1.968-.984,3.578.011,3.578,2.211v8.4c0,2.2-1.61,3.2-3.578,2.211l-9.245-4.622c-1.967-.984-1.967-2.594,0-3.578Z" fill="#71d9e6"/>
    <rect id="Rectángulo_2805" data-name="Rectángulo 2805" width="103.275" height="46.8" rx="4" transform="translate(712.582 1363.242)" fill="#ffd553"/>
    <rect id="Rectángulo_2806" data-name="Rectángulo 2806" width="152.2" height="46.8" rx="4" transform="translate(851.358 1363.242)" fill="#ffd553"/>
    <text id="Enterno" transform="translate(764.219 1392.038)" fill="#051a30" font-size="18" font-family="Montserrat-Regular, Montserrat"><tspan x="-36.216" y="0">Enterno</tspan></text>
    <text id="EMPRESA" transform="translate(643.319 1542.717)" fill="#4384cd" font-size="18" font-family="Montserrat-Regular, Montserrat"><tspan x="0" y="0">EMPRESA</tspan></text>
    <text id="Clientes" transform="translate(322.866 1583.54)" fill="#4384cd" font-size="18" font-family="Montserrat-Regular, Montserrat"><tspan x="0" y="0">Clientes</tspan></text>
    <text id="Proveedores" transform="translate(441.974 1930.339)" fill="#4384cd" font-size="18" font-family="Montserrat-Regular, Montserrat"><tspan x="0" y="0">Proveedores</tspan></text>
    <text id="Clientes-2" data-name="Clientes" transform="translate(1045.603 1732.941)" fill="#4384cd" font-size="18" font-family="Montserrat-Regular, Montserrat"><tspan x="0" y="0">Clientes</tspan></text>
    <text id="Información" transform="translate(823.833 1483.796)" font-size="16" font-family="Montserrat-Regular, Montserrat"><tspan x="-48.952" y="0">Información</tspan></text>
    <text id="Requerimientos" transform="translate(509.124 1530.824)" font-size="16" font-family="Montserrat-Regular, Montserrat"><tspan x="-64.56" y="0">Requerimientos</tspan></text>
    <text id="Bienes_y_servicios" data-name="Bienes y
servicios" transform="translate(729.582 1913.618)" font-size="16" font-family="Montserrat-Regular, Montserrat"><tspan x="-33.728" y="0">Bienes y</tspan><tspan x="-35" y="19.2">servicios</tspan></text>
    <text id="Información-2" data-name="Información" transform="translate(996.757 1483.796)" font-size="16" font-family="Montserrat-Regular, Montserrat"><tspan x="-48.952" y="0">Información</tspan></text>
    <text id="Bienes_y_servicios-2" data-name="Bienes y
servicios" transform="translate(958.257 1635.506)" font-size="16" font-family="Montserrat-Regular, Montserrat"><tspan x="-33.728" y="0">Bienes y</tspan><tspan x="-35" y="19.2">servicios</tspan></text>
    <text id="Competencia" transform="translate(927.457 1392.038)" fill="#051a30" font-size="18" font-family="Montserrat-Regular, Montserrat"><tspan x="-61.128" y="0">Competencia</tspan></text>
    <rect id="Rectángulo_2807" data-name="Rectángulo 2807" width="241.8" height="43.8" rx="2" transform="translate(643.32 1556.242)" fill="#a4dbf5"/>
    <text id="Procesos_estratégicos" data-name="Procesos estratégicos" transform="translate(656.92 1565.89)" fill="#00223d" font-size="18" font-family="OpenSans-Regular, Open Sans"><tspan x="16.43" y="19">Procesos estratégicos</tspan></text>
    <rect id="Rectángulo_2808" data-name="Rectángulo 2808" width="241.8" height="43.8" rx="2" transform="translate(643.32 1655.477)" fill="#a4dbf5"/>
    <text id="Procesos_operativos" data-name="Procesos operativos" transform="translate(656.92 1663.727)" fill="#00223d" font-size="18" font-family="OpenSans-Regular, Open Sans"><tspan x="22.705" y="19">Procesos operativos</tspan></text>
    <rect id="Rectángulo_2809" data-name="Rectángulo 2809" width="241.8" height="43.8" rx="2" transform="translate(643.32 1754.713)" fill="#a4dbf5"/>
    <text id="Procesos_de_soporte" data-name="Procesos de soporte" transform="translate(656.92 1762.962)" fill="#00223d" font-size="18" font-family="OpenSans-Regular, Open Sans"><tspan x="21.593" y="19">Procesos de soporte</tspan></text>
    <path id="Trazado_1828" data-name="Trazado 1828" d="M712.582,1386.642H359.667v81.182" fill="none" stroke="#71d9e6" stroke-linecap="round" stroke-linejoin="round" stroke-width="3"/>
    <path id="Trazado_1829" data-name="Trazado 1829" d="M619.948,1578.142h-45.29v-36.476H421.645" fill="none" stroke="#71d9e6" stroke-linecap="round" stroke-linejoin="round" stroke-width="3"/>
    <path id="Trazado_1830" data-name="Trazado 1830" d="M574.658,1578.142v99.235h45.29" fill="none" stroke="#71d9e6" stroke-linecap="round" stroke-linejoin="round" stroke-width="3"/>
    <path id="Trazado_1831" data-name="Trazado 1831" d="M764.22,1818.224v75.683h-188.1" fill="none" stroke="#71d9e6" stroke-linecap="round" stroke-linejoin="round" stroke-width="3"/>
    <g id="Grupo_10699" data-name="Grupo 10699">
      <path id="Trazado_1832" data-name="Trazado 1832" d="M1104.362,1664.355v1.194a13.634,13.634,0,0,0,.7,4.306l2.706,8.117h5.107v-18.724h-3.405a5.106,5.106,0,0,0-5.106,5.107Z" fill="#634448"/>
      <path id="Trazado_1833" data-name="Trazado 1833" d="M1127.669,1667.891l-2.881,10.081-13.618-11.915a3.4,3.4,0,0,1-3.4-3.4h0a5.106,5.106,0,0,1,5.107-5.107h11.915a3.4,3.4,0,0,1,3.4,3.4v3.2a13.6,13.6,0,0,1-.523,3.741Z" fill="#724e4c"/>
      <path id="Trazado_1834" data-name="Trazado 1834" d="M1111.169,1683.08h10.213v7.534h-10.213v-7.534Z" fill="#e9b578"/>
      <path id="Trazado_1835" data-name="Trazado 1835" d="M1111.17,1686.206a13.516,13.516,0,0,0,10.214,0v-3.127H1111.17v3.127Z" fill="#d7a06b"/>
      <path id="Trazado_1836" data-name="Trazado 1836" d="M1129.595,1689.555l-8.212-2.347-5.106,3.389-5.107-3.389-8.211,2.347a5.105,5.105,0,0,0-3.7,4.91v12.445a1.7,1.7,0,0,0,1.7,1.7h30.64a1.7,1.7,0,0,0,1.7-1.7v-12.445a5.105,5.105,0,0,0-3.7-4.91Z" fill="#f2f2f2"/>
      <path id="Trazado_1837" data-name="Trazado 1837" d="M1117.979,1708.612h-3.4l.851-18h1.7l.851,18Z" fill="#bbc1da"/>
      <path id="Trazado_1838" data-name="Trazado 1838" d="M1116.277,1684.781h0a10.212,10.212,0,0,1-10.213-10.213v-1.994a3.409,3.409,0,0,1,1-2.408l3.087-3.086a3.363,3.363,0,0,1,2.471-1c5.441.172,10.258,1.338,12.891,3.909a3.362,3.362,0,0,1,.98,2.411v2.169a10.212,10.212,0,0,1-10.213,10.213Z" fill="#f3c689"/>
      <path id="Trazado_1839" data-name="Trazado 1839" d="M1111.17,1673a3.4,3.4,0,0,1,3.609-3.4c3.436.219,8.536.793,11.664,2.3a3.3,3.3,0,0,0-.933-1.907c-2.633-2.571-7.45-3.737-12.891-3.909h0a3.366,3.366,0,0,0-2.471,1l-3.087,3.087a3.4,3.4,0,0,0-1,2.407v1.995a10.211,10.211,0,0,0,7.383,9.807,10.131,10.131,0,0,1-2.276-6.4V1673Z" fill="#e9b578"/>
      <path id="Trazado_1840" data-name="Trazado 1840" d="M1126.49,1699.537a5.105,5.105,0,0,1,1.5-3.611l4.382-4.382a5.091,5.091,0,0,1,.931,2.921v12.445a1.7,1.7,0,0,1-1.7,1.7h-5.107v-9.075Z" fill="#d3d8e9"/>
      <path id="Trazado_1841" data-name="Trazado 1841" d="M1117.128,1694.017h-1.7a.851.851,0,0,1-.851-.851v-2.553h3.4v2.553a.851.851,0,0,1-.851.851Z" fill="#9ea2bb"/>
      <path id="Trazado_1842" data-name="Trazado 1842" d="M1116.277,1690.6l-2.885,2.2a1.021,1.021,0,0,1-1.516-.321l-2.588-4.727,1.042-1.589a.681.681,0,0,1,1.032-.126l4.915,4.559Z" fill="#d3d8e9"/>
      <path id="Trazado_1843" data-name="Trazado 1843" d="M1116.277,1690.6l2.885,2.2a1.021,1.021,0,0,0,1.516-.321l2.588-4.727-1.042-1.589a.681.681,0,0,0-1.032-.126l-4.915,4.559Z" fill="#d3d8e9"/>
      <path id="Trazado_1844" data-name="Trazado 1844" d="M1058.232,1684.071a61.462,61.462,0,0,1-2.857-13.93c-.474-6.564-5.421-11.915-12.108-11.915s-11.634,5.351-12.109,11.915a61.409,61.409,0,0,1-2.857,13.93,1.694,1.694,0,0,0,.886,2.165,32.483,32.483,0,0,0,8.89,2.63h10.379a32.793,32.793,0,0,0,8.89-2.63,1.694,1.694,0,0,0,.886-2.165Z" fill="#634448"/>
      <path id="Trazado_1845" data-name="Trazado 1845" d="M1057.346,1686.236a1.694,1.694,0,0,0,.886-2.165,61.462,61.462,0,0,1-2.857-13.93c-.474-6.564-5.421-11.915-12.108-11.915h-.051c-5.131.021-6.944,7.019-2.527,9.63a4.594,4.594,0,0,0,.435.232l3.869,20.778h3.463a32.793,32.793,0,0,0,8.89-2.63Z" fill="#724e4c"/>
      <path id="Trazado_1846" data-name="Trazado 1846" d="M1055.579,1692.283l-5.509-2.754a3.406,3.406,0,0,1-1.882-3.045v-5.107h-10.214v5.107a3.4,3.4,0,0,1-1.882,3.045l-5.508,2.754a5.106,5.106,0,0,0-2.823,4.567v10.06a1.7,1.7,0,0,0,1.7,1.7H1056.7a1.7,1.7,0,0,0,1.7-1.7v-10.059a5.107,5.107,0,0,0-2.823-4.568Z" fill="#e9b578"/>
      <path id="Trazado_1847" data-name="Trazado 1847" d="M1043.082,1688.186a13.446,13.446,0,0,0,5.2-1.051,3.371,3.371,0,0,1-.092-.651v-5.107h-10.214v5.107a3.339,3.339,0,0,1-.092.655,13.53,13.53,0,0,0,5.2,1.047Z" fill="#d7a06b"/>
      <path id="Trazado_1848" data-name="Trazado 1848" d="M1055.579,1692.283l-3.924-1.962a10.2,10.2,0,0,1-17.146,0l-3.924,1.962a5.106,5.106,0,0,0-2.823,4.567v10.06a1.7,1.7,0,0,0,1.7,1.7H1056.7a1.7,1.7,0,0,0,1.7-1.7v-10.059a5.107,5.107,0,0,0-2.823-4.568Z" fill="#f2f2f2"/>
      <path id="Trazado_1849" data-name="Trazado 1849" d="M1043.082,1684.781h0a10.214,10.214,0,0,1-10.128-8.891,1.716,1.716,0,0,1,.909-1.769,14.218,14.218,0,0,0,3.013-2.035,9.818,9.818,0,0,0,2.329-3.065,1.686,1.686,0,0,1,1.92-.933,29.337,29.337,0,0,1,11.554,5.92,1.647,1.647,0,0,1,.585,1.369,10.214,10.214,0,0,1-10.182,9.4Z" fill="#f3c689"/>
      <path id="Trazado_1850" data-name="Trazado 1850" d="M1052.678,1674.008a29.321,29.321,0,0,0-11.554-5.92,1.686,1.686,0,0,0-1.919.933,9.782,9.782,0,0,1-1.555,2.271v.005a9.044,9.044,0,0,1-.773.789,14.218,14.218,0,0,1-3.013,2.035,1.716,1.716,0,0,0-.909,1.769,10.229,10.229,0,0,0,8.58,8.775,7.454,7.454,0,0,1-3.559-6.692v-2.428c.387-.285.777-.57,1.168-.919a13.542,13.542,0,0,0,2.434-2.872,25.722,25.722,0,0,1,8.872,4.827c.322.283,1.123,1.021,2.06,1.9a10.156,10.156,0,0,0,.755-3.1,1.645,1.645,0,0,0-.586-1.369Z" fill="#e9b578"/>
      <path id="Trazado_1851" data-name="Trazado 1851" d="M1028.8,1693.782a5.094,5.094,0,0,0-1.038,3.068v10.06a1.7,1.7,0,0,0,1.7,1.7h5.107v-8.577a3.4,3.4,0,0,0-1.278-2.658l-4.493-3.595Z" fill="#d3d8e9"/>
      <path id="Trazado_1852" data-name="Trazado 1852" d="M1104.986,1689.96l-14.242-5.179-10.213,3.405-10.214-3.405-14.242,5.179a6.809,6.809,0,0,0-4.482,6.4v10.551a1.7,1.7,0,0,0,1.7,1.7h54.471a1.7,1.7,0,0,0,1.7-1.7v-10.551a6.809,6.809,0,0,0-4.482-6.4Z" fill="#e94777"/>
      <path id="Trazado_1853" data-name="Trazado 1853" d="M1078.747,1691.59l-1.621,17.022h6.809l-1.621-17.022Z" fill="#76768a"/>
      <path id="Trazado_1854" data-name="Trazado 1854" d="M1082.318,1693.929h-3.574a1.192,1.192,0,0,1-1.192-1.192v-4.551h5.957v4.551a1.192,1.192,0,0,1-1.191,1.192Z" fill="#5f5e6f"/>
      <path id="Trazado_1855" data-name="Trazado 1855" d="M1107.636,1691.72a6.8,6.8,0,0,1,1.832,4.639v10.551a1.7,1.7,0,0,1-1.7,1.7h-8.511v-5.691a6.807,6.807,0,0,1,1.994-4.814l6.387-6.387Z" fill="#d23262"/>
      <path id="Trazado_1856" data-name="Trazado 1856" d="M1099.255,1649.677v-14.26a3.4,3.4,0,0,0-3.4-3.4h-20.427a13.618,13.618,0,0,0-13.618,13.618v4.046a17.009,17.009,0,0,0,.874,5.383l.566,1.7a5.09,5.09,0,0,1,.262,1.615v.873h34.045v-.873a5.093,5.093,0,0,1,.262-1.615l.566-1.7a17.017,17.017,0,0,0,.874-5.383Z" fill="#634448"/>
      <path id="Trazado_1857" data-name="Trazado 1857" d="M1070.317,1638.928a6.916,6.916,0,0,0,6.916,6.915h.957l.462,13.405h18.9v-.874a5.087,5.087,0,0,1,.262-1.614l.566-1.7a17.017,17.017,0,0,0,.874-5.383v-14.26a3.4,3.4,0,0,0-3.405-3.4h-18.617a6.916,6.916,0,0,0-6.916,6.915Z" fill="#724e4c"/>
      <path id="Trazado_1858" data-name="Trazado 1858" d="M1070.317,1672.866h20.427v15.319h-20.427v-15.319Z" fill="#e9b578"/>
      <path id="Trazado_1859" data-name="Trazado 1859" d="M1070.317,1678.622a20.31,20.31,0,0,0,20.427,0v-5.756h-20.427v5.756Z" fill="#d7a06b"/>
      <path id="Trazado_1860" data-name="Trazado 1860" d="M1080.531,1688.186l-5.429,5.429a1.7,1.7,0,0,1-2.56-.175l-5.629-7.417,1.472-3.1a1.7,1.7,0,0,1,2.431-.719l9.715,5.985Z" fill="#d23262"/>
      <path id="Trazado_1861" data-name="Trazado 1861" d="M1080.531,1688.186l5.429,5.429a1.7,1.7,0,0,0,2.559-.175l5.629-7.417-1.472-3.1a1.7,1.7,0,0,0-2.431-.719l-9.714,5.985Z" fill="#d23262"/>
      <path id="Trazado_1862" data-name="Trazado 1862" d="M1080.531,1677.972h0a17.023,17.023,0,0,1-17.023-17.022v-1.994a3.405,3.405,0,0,1,1-2.408l1.41-1.41a3.4,3.4,0,0,0,1-2.407v-4.081a1.688,1.688,0,0,1,1.3-1.654c4.026-.951,16.554-3.2,25.079,3.067a2.184,2.184,0,0,1,.86,1.764v.9a3.4,3.4,0,0,0,1,2.407l1.41,1.41a3.4,3.4,0,0,1,1,2.408v1.994a17.021,17.021,0,0,1-17.021,17.022Z" fill="#f3c689"/>
      <path id="Trazado_1863" data-name="Trazado 1863" d="M1093.289,1650.064c-6-4.41-13.962-4.6-19.567-4a45.992,45.992,0,0,0-5.513.931,1.687,1.687,0,0,0-1.3,1.654v4.08a3.409,3.409,0,0,1-1,2.408l-1.41,1.41a3.4,3.4,0,0,0-1,2.407v1.994a17.016,17.016,0,0,0,14.966,16.886,16.949,16.949,0,0,1-4.752-11.779v-12.442a3.405,3.405,0,0,1,2.994-3.381c4.085-.513,11.567-.821,17.432,2.5v-.9a2.185,2.185,0,0,0-.859-1.763Z" fill="#e9b578"/>
      <path id="Trazado_1864" data-name="Trazado 1864" d="M1053.425,1691.72a6.8,6.8,0,0,0-1.832,4.639v10.551a1.7,1.7,0,0,0,1.7,1.7h8.511v-5.691a6.807,6.807,0,0,0-1.994-4.814l-6.387-6.387Z" fill="#d23262"/>
    </g>
    <g id="Grupo_10700" data-name="Grupo 10700">
      <path id="Trazado_1865" data-name="Trazado 1865" d="M383.5,1519.138v1.2a13.644,13.644,0,0,0,.7,4.306l2.706,8.117h5.107v-18.725h-3.4a5.107,5.107,0,0,0-5.106,5.107Z" fill="#634448"/>
      <path id="Trazado_1866" data-name="Trazado 1866" d="M406.8,1522.674l-2.881,10.082-13.618-11.916a3.4,3.4,0,0,1-3.4-3.4h0a5.107,5.107,0,0,1,5.107-5.107h11.915a3.4,3.4,0,0,1,3.4,3.405v3.2a13.6,13.6,0,0,1-.523,3.741Z" fill="#724e4c"/>
      <path id="Trazado_1867" data-name="Trazado 1867" d="M390.305,1537.863h10.213v7.534H390.305v-7.534Z" fill="#e9b578"/>
      <path id="Trazado_1868" data-name="Trazado 1868" d="M390.306,1540.989a13.5,13.5,0,0,0,10.214,0v-3.127H390.306v3.127Z" fill="#d7a06b"/>
      <path id="Trazado_1869" data-name="Trazado 1869" d="M408.731,1544.338l-8.212-2.346-5.106,3.388-5.107-3.388-8.211,2.346a5.106,5.106,0,0,0-3.7,4.91v12.445a1.7,1.7,0,0,0,1.7,1.7h30.64a1.7,1.7,0,0,0,1.7-1.7v-12.445a5.106,5.106,0,0,0-3.7-4.91Z" fill="#f2f2f2"/>
      <path id="Trazado_1870" data-name="Trazado 1870" d="M397.115,1563.4h-3.4l.851-18h1.7l.851,18Z" fill="#bbc1da"/>
      <path id="Trazado_1871" data-name="Trazado 1871" d="M395.413,1539.565h0a10.213,10.213,0,0,1-10.213-10.214v-1.994a3.4,3.4,0,0,1,1-2.407l3.087-3.087a3.361,3.361,0,0,1,2.471-1c5.441.171,10.258,1.337,12.89,3.909a3.357,3.357,0,0,1,.981,2.41v2.169a10.213,10.213,0,0,1-10.213,10.214Z" fill="#f3c689"/>
      <path id="Trazado_1872" data-name="Trazado 1872" d="M390.306,1527.779a3.4,3.4,0,0,1,3.609-3.4c3.436.219,8.536.793,11.664,2.3a3.292,3.292,0,0,0-.934-1.907c-2.632-2.571-7.449-3.737-12.89-3.908h0a3.357,3.357,0,0,0-2.471,1l-3.087,3.086a3.4,3.4,0,0,0-1,2.408v1.994a10.21,10.21,0,0,0,7.383,9.807,10.131,10.131,0,0,1-2.276-6.4v-4.976Z" fill="#e9b578"/>
      <path id="Trazado_1873" data-name="Trazado 1873" d="M405.626,1554.32a5.107,5.107,0,0,1,1.5-3.611l4.382-4.381a5.09,5.09,0,0,1,.931,2.92v12.445a1.7,1.7,0,0,1-1.7,1.7h-5.107v-9.076Z" fill="#d3d8e9"/>
      <path id="Trazado_1874" data-name="Trazado 1874" d="M396.264,1548.8h-1.7a.852.852,0,0,1-.851-.851V1545.4h3.4v2.554a.852.852,0,0,1-.851.851Z" fill="#9ea2bb"/>
      <path id="Trazado_1875" data-name="Trazado 1875" d="M395.413,1545.381l-2.885,2.2a1.021,1.021,0,0,1-1.516-.321l-2.588-4.726,1.042-1.589a.68.68,0,0,1,1.032-.126l4.915,4.559Z" fill="#d3d8e9"/>
      <path id="Trazado_1876" data-name="Trazado 1876" d="M395.413,1545.381l2.885,2.2a1.021,1.021,0,0,0,1.516-.321l2.588-4.726-1.042-1.589a.68.68,0,0,0-1.032-.126l-4.915,4.559Z" fill="#d3d8e9"/>
      <path id="Trazado_1877" data-name="Trazado 1877" d="M337.368,1538.854a61.457,61.457,0,0,1-2.857-13.929c-.474-6.565-5.421-11.916-12.108-11.916s-11.634,5.352-12.109,11.916a61.457,61.457,0,0,1-2.857,13.929,1.7,1.7,0,0,0,.886,2.166,32.534,32.534,0,0,0,8.89,2.629h10.379a32.8,32.8,0,0,0,8.89-2.629,1.7,1.7,0,0,0,.886-2.166Z" fill="#634448"/>
      <path id="Trazado_1878" data-name="Trazado 1878" d="M336.482,1541.02a1.7,1.7,0,0,0,.886-2.166,61.457,61.457,0,0,1-2.857-13.929c-.474-6.565-5.421-11.916-12.108-11.916h-.051c-5.131.021-6.944,7.019-2.527,9.63a4.571,4.571,0,0,0,.435.232l3.869,20.778h3.463a32.8,32.8,0,0,0,8.89-2.629Z" fill="#724e4c"/>
      <path id="Trazado_1879" data-name="Trazado 1879" d="M334.715,1547.066l-5.509-2.754a3.4,3.4,0,0,1-1.882-3.045v-5.107H317.111v5.107a3.4,3.4,0,0,1-1.882,3.045l-5.508,2.754a5.108,5.108,0,0,0-2.823,4.568v10.059a1.7,1.7,0,0,0,1.7,1.7h27.236a1.7,1.7,0,0,0,1.7-1.7v-10.059a5.108,5.108,0,0,0-2.823-4.568Z" fill="#e9b578"/>
      <path id="Trazado_1880" data-name="Trazado 1880" d="M322.218,1542.969a13.463,13.463,0,0,0,5.2-1.05,3.381,3.381,0,0,1-.092-.652v-5.107H317.111v5.107a3.325,3.325,0,0,1-.092.655,13.53,13.53,0,0,0,5.2,1.047Z" fill="#d7a06b"/>
      <path id="Trazado_1881" data-name="Trazado 1881" d="M334.715,1547.066l-3.924-1.962a10.2,10.2,0,0,1-17.146,0l-3.924,1.962a5.108,5.108,0,0,0-2.823,4.568v10.059a1.7,1.7,0,0,0,1.7,1.7h27.236a1.7,1.7,0,0,0,1.7-1.7v-10.059a5.108,5.108,0,0,0-2.823-4.568Z" fill="#f2f2f2"/>
      <path id="Trazado_1882" data-name="Trazado 1882" d="M322.218,1539.565h0a10.215,10.215,0,0,1-10.128-8.892A1.717,1.717,0,0,1,313,1528.9a14.177,14.177,0,0,0,3.013-2.035,9.821,9.821,0,0,0,2.329-3.065,1.685,1.685,0,0,1,1.919-.932,29.327,29.327,0,0,1,11.555,5.919,1.648,1.648,0,0,1,.585,1.369,10.215,10.215,0,0,1-10.182,9.4Z" fill="#f3c689"/>
      <path id="Trazado_1883" data-name="Trazado 1883" d="M331.814,1528.791a29.323,29.323,0,0,0-11.554-5.92,1.685,1.685,0,0,0-1.919.933,9.76,9.76,0,0,1-1.555,2.271v.006a9.175,9.175,0,0,1-.773.788A14.177,14.177,0,0,1,313,1528.9a1.717,1.717,0,0,0-.909,1.77,10.229,10.229,0,0,0,8.58,8.774,7.452,7.452,0,0,1-3.559-6.692v-2.427c.387-.286.777-.57,1.168-.92a13.523,13.523,0,0,0,2.434-2.872,25.7,25.7,0,0,1,8.872,4.828c.322.282,1.123,1.02,2.06,1.9a10.146,10.146,0,0,0,.755-3.1,1.646,1.646,0,0,0-.586-1.369Z" fill="#e9b578"/>
      <path id="Trazado_1884" data-name="Trazado 1884" d="M307.936,1548.565a5.1,5.1,0,0,0-1.038,3.069v10.059a1.7,1.7,0,0,0,1.7,1.7h5.107v-8.577a3.4,3.4,0,0,0-1.278-2.658l-4.493-3.6Z" fill="#d3d8e9"/>
      <path id="Trazado_1885" data-name="Trazado 1885" d="M384.122,1544.744l-14.242-5.18-10.213,3.405-10.214-3.4-14.242,5.179a6.808,6.808,0,0,0-4.482,6.4v10.55a1.7,1.7,0,0,0,1.7,1.7H386.9a1.7,1.7,0,0,0,1.7-1.7v-10.55a6.807,6.807,0,0,0-4.482-6.4Z" fill="#e94777"/>
      <path id="Trazado_1886" data-name="Trazado 1886" d="M357.883,1546.373l-1.621,17.022h6.809l-1.621-17.022Z" fill="#76768a"/>
      <path id="Trazado_1887" data-name="Trazado 1887" d="M361.454,1548.712H357.88a1.191,1.191,0,0,1-1.192-1.191v-4.552h5.957v4.552a1.191,1.191,0,0,1-1.191,1.191Z" fill="#5f5e6f"/>
      <path id="Trazado_1888" data-name="Trazado 1888" d="M386.772,1546.5a6.8,6.8,0,0,1,1.832,4.639v10.551a1.7,1.7,0,0,1-1.7,1.7h-8.511v-5.69a6.809,6.809,0,0,1,1.994-4.815l6.387-6.387Z" fill="#d23262"/>
      <path id="Trazado_1889" data-name="Trazado 1889" d="M378.391,1504.46V1490.2a3.4,3.4,0,0,0-3.4-3.4H354.56a13.618,13.618,0,0,0-13.618,13.618v4.046a17.006,17.006,0,0,0,.874,5.383l.566,1.7a5.1,5.1,0,0,1,.262,1.615v.873h34.045v-.873a5.1,5.1,0,0,1,.262-1.615l.566-1.7a17.01,17.01,0,0,0,.874-5.383Z" fill="#634448"/>
      <path id="Trazado_1890" data-name="Trazado 1890" d="M349.453,1493.711a6.915,6.915,0,0,0,6.916,6.915h.957l.462,13.405h18.9v-.873a5.1,5.1,0,0,1,.262-1.615l.566-1.7a17.01,17.01,0,0,0,.874-5.383V1490.2a3.4,3.4,0,0,0-3.4-3.4H356.369a6.915,6.915,0,0,0-6.916,6.915Z" fill="#724e4c"/>
      <path id="Trazado_1891" data-name="Trazado 1891" d="M349.453,1527.65H369.88v15.319H349.453V1527.65Z" fill="#e9b578"/>
      <path id="Trazado_1892" data-name="Trazado 1892" d="M349.453,1533.405a20.31,20.31,0,0,0,20.427,0v-5.756H349.453v5.756Z" fill="#d7a06b"/>
      <path id="Trazado_1893" data-name="Trazado 1893" d="M359.667,1542.969l-5.429,5.429a1.7,1.7,0,0,1-2.56-.175l-5.629-7.417,1.472-3.1a1.7,1.7,0,0,1,2.431-.719l9.715,5.985Z" fill="#d23262"/>
      <path id="Trazado_1894" data-name="Trazado 1894" d="M359.667,1542.969l5.429,5.429a1.7,1.7,0,0,0,2.559-.175l5.629-7.417-1.472-3.1a1.7,1.7,0,0,0-2.431-.719l-9.714,5.985Z" fill="#d23262"/>
      <path id="Trazado_1895" data-name="Trazado 1895" d="M359.667,1532.756h0a17.023,17.023,0,0,1-17.023-17.023v-1.994a3.4,3.4,0,0,1,1-2.407l1.411-1.41a3.409,3.409,0,0,0,1-2.408v-4.08a1.688,1.688,0,0,1,1.3-1.654c4.026-.951,16.554-3.2,25.079,3.067a2.183,2.183,0,0,1,.86,1.763v.9a3.409,3.409,0,0,0,1,2.408l1.41,1.41a3.4,3.4,0,0,1,1,2.407v1.994a17.021,17.021,0,0,1-17.021,17.023Z" fill="#f3c689"/>
      <path id="Trazado_1896" data-name="Trazado 1896" d="M372.424,1504.847c-6-4.41-13.961-4.6-19.566-4a45.823,45.823,0,0,0-5.513.93,1.688,1.688,0,0,0-1.3,1.654v4.08a3.409,3.409,0,0,1-1,2.408l-1.41,1.41a3.405,3.405,0,0,0-1,2.408v1.994a17.018,17.018,0,0,0,14.966,16.886,16.953,16.953,0,0,1-4.752-11.78V1508.4a3.405,3.405,0,0,1,2.994-3.381c4.085-.512,11.567-.82,17.432,2.5v-.905a2.183,2.183,0,0,0-.86-1.763Z" fill="#e9b578"/>
      <path id="Trazado_1897" data-name="Trazado 1897" d="M332.561,1546.5a6.8,6.8,0,0,0-1.832,4.639v10.551a1.7,1.7,0,0,0,1.7,1.7h8.511v-5.69a6.809,6.809,0,0,0-1.994-4.815l-6.387-6.387Z" fill="#d23262"/>
    </g>
    <g id="Grupo_10701" data-name="Grupo 10701">
      <path id="Trazado_1898" data-name="Trazado 1898" d="M529.888,1847.365l-15.187,9.1V1848.9a1.788,1.788,0,0,0-2.7-1.538l-15.187,9.1V1848.9a1.788,1.788,0,0,0-2.7-1.538l-15.186,9.1V1848.9a1.789,1.789,0,0,0-2.7-1.538l-15.187,9.1v3.577h71.551V1848.9a1.789,1.789,0,0,0-2.7-1.538Z" fill="#d32d28"/>
      <path id="Trazado_1899" data-name="Trazado 1899" d="M550.476,1815.328l-10.553,17.16a12.8,12.8,0,0,1-10.912,6.094c-4.7,0-7.352-1.717-8.836-3.649l-.108.072c-14.31,0-14.31-8.944-14.31-8.944l.054-.3a8.57,8.57,0,0,1-6.779-5.528,9.981,9.981,0,0,1,3.953-11.144,11.536,11.536,0,0,1,9.534-.84c.035.017.089.035.125.053l.268-.751a23.032,23.032,0,0,1,4.651-1.449c4.383-.859,9.266-.626,12.826,2.057l.411-.376a18.68,18.68,0,0,1,4.633-1.681,13.188,13.188,0,0,1,11.466,2.057,9.951,9.951,0,0,1,3.577,7.173Z" fill="#9acbe9"/>
      <path id="Trazado_1900" data-name="Trazado 1900" d="M550.476,1817.117a1.789,1.789,0,0,1-1.788-1.744,8.1,8.1,0,0,0-2.943-5.844c-3.15-2.664-7.57-2.2-9.922-1.683a16.4,16.4,0,0,0-4.186,1.52,1.789,1.789,0,0,1-1.674-3.161,19.986,19.986,0,0,1,5.1-1.855,14.827,14.827,0,0,1,12.995,2.444,11.744,11.744,0,0,1,4.211,8.489,1.79,1.79,0,0,1-1.746,1.834Z" fill="#6fb2d7"/>
      <path id="Trazado_1901" data-name="Trazado 1901" d="M534.378,1817.117a1.788,1.788,0,0,1-1.789-1.737,7.823,7.823,0,0,0-3.288-5.8c-3.629-2.737-8.7-2.258-11.38-1.73a20.935,20.935,0,0,0-4.293,1.334,1.789,1.789,0,1,1-1.431-3.28,24.742,24.742,0,0,1,5.023-1.564c5.668-1.111,10.718-.265,14.236,2.385a11.42,11.42,0,0,1,4.71,8.548,1.79,1.79,0,0,1-1.737,1.841Z" fill="#6fb2d7"/>
      <path id="Trazado_1902" data-name="Trazado 1902" d="M508.8,1827.849c-4.293,0-9.869-1.856-11.484-7.088a11.7,11.7,0,0,1,4.717-13.184,13.3,13.3,0,0,1,11.024-1.037,25.845,25.845,0,0,1,4.274,1.842,1.789,1.789,0,0,1-1.678,3.159,22.57,22.57,0,0,0-3.687-1.595,9.681,9.681,0,0,0-8.02.654,8.177,8.177,0,0,0-3.22,9.1c1.05,3.372,5.005,4.567,8.074,4.567a1.789,1.789,0,1,1,0,3.577Z" fill="#6fb2d7"/>
      <path id="Trazado_1903" data-name="Trazado 1903" d="M520.067,1836.793c-15.92,0-16.1-10.625-16.1-10.732a1.789,1.789,0,1,1,3.578-.018c0,.332.358,7.173,12.521,7.173a1.789,1.789,0,1,1,0,3.577Z" fill="#6fb2d7"/>
      <path id="Trazado_1904" data-name="Trazado 1904" d="M529.011,1840.371c-9.9,0-12.521-7.021-12.521-10.733a1.789,1.789,0,1,1,3.577,0c.011.744.358,7.164,8.944,7.164a1.789,1.789,0,1,1,0,3.578v-.009Z" fill="#6fb2d7"/>
      <path id="Trazado_1905" data-name="Trazado 1905" d="M545.513,1822.483h6.351a2.191,2.191,0,0,1,2.19,2.191v8.542H543.321v-8.542a2.191,2.191,0,0,1,2.192-2.191Z" fill="#e8b74c"/>
      <path id="Trazado_1906" data-name="Trazado 1906" d="M559.42,1870.78l-5.366-41.142H543.321l-5.366,41.142Z" fill="#b98c3c"/>
      <path id="Trazado_1907" data-name="Trazado 1907" d="M529.011,1868.991H562.95a1.837,1.837,0,0,1,1.837,1.837v32.149H529.011v-33.986Z" fill="#f5ba00"/>
      <path id="Trazado_1908" data-name="Trazado 1908" d="M541.532,1879.724h-8.943a1.789,1.789,0,1,1,0-3.578h8.943a1.789,1.789,0,1,1,0,3.578Z" fill="#f4ca49"/>
      <path id="Trazado_1909" data-name="Trazado 1909" d="M557.631,1879.724h-8.943a1.789,1.789,0,1,1,0-3.578h8.943a1.789,1.789,0,1,1,0,3.578Z" fill="#f4ca49"/>
      <path id="Trazado_1910" data-name="Trazado 1910" d="M461.038,1856.47h71.551v46.508H461.038V1856.47Z" fill="#e54124"/>
      <path id="Trazado_1911" data-name="Trazado 1911" d="M477.137,1865.413a1.789,1.789,0,0,1-1.789,1.789h-14.31v-3.577h14.31a1.788,1.788,0,0,1,1.789,1.788Z" fill="#ef7c41"/>
      <path id="Trazado_1912" data-name="Trazado 1912" d="M502.18,1867.2H482.5a1.789,1.789,0,0,1,0-3.577H502.18a1.789,1.789,0,0,1,0,3.577Z" fill="#ef7c41"/>
      <path id="Trazado_1913" data-name="Trazado 1913" d="M469.982,1877.935h8.944a1.789,1.789,0,0,1,1.789,1.789v7.155a1.789,1.789,0,0,1-1.789,1.788h-8.944a1.789,1.789,0,0,1-1.789-1.788v-7.155a1.789,1.789,0,0,1,1.789-1.789Z" fill="#9acbe9"/>
      <path id="Trazado_1914" data-name="Trazado 1914" d="M489.658,1877.935H498.6a1.789,1.789,0,0,1,1.789,1.789v7.155a1.789,1.789,0,0,1-1.789,1.788h-8.944a1.789,1.789,0,0,1-1.788-1.788v-7.155a1.789,1.789,0,0,1,1.788-1.789Z" fill="#9acbe9"/>
      <path id="Trazado_1915" data-name="Trazado 1915" d="M525.434,1874.47v28.507H507.546V1874.47a1.853,1.853,0,0,1,1.789-1.9h14.31a1.853,1.853,0,0,1,1.789,1.9Z" fill="#61404c"/>
      <path id="Trazado_1916" data-name="Trazado 1916" d="M520.067,1879.724a1.787,1.787,0,0,1-1.788,1.788H507.546v-3.577h10.733a1.788,1.788,0,0,1,1.788,1.789Z" fill="#8d524e"/>
      <path id="Trazado_1917" data-name="Trazado 1917" d="M520.067,1886.879a1.788,1.788,0,0,1-1.788,1.788H507.546v-3.577h10.733a1.788,1.788,0,0,1,1.788,1.789Z" fill="#8d524e"/>
      <path id="Trazado_1918" data-name="Trazado 1918" d="M520.067,1894.034a1.788,1.788,0,0,1-1.788,1.789H507.546v-3.578h10.733a1.788,1.788,0,0,1,1.788,1.789Z" fill="#8d524e"/>
      <path id="Trazado_1919" data-name="Trazado 1919" d="M545.11,1888.667h7.155a1.789,1.789,0,0,1,1.789,1.789v10.733H543.321v-10.733a1.789,1.789,0,0,1,1.789-1.789Z" fill="#ed6d25"/>
      <path id="Trazado_1920" data-name="Trazado 1920" d="M564.787,1901.189H461.038v5.366a1.789,1.789,0,0,0,1.789,1.789H563a1.789,1.789,0,0,0,1.789-1.789v-5.366Z" fill="#8d524e"/>
    </g>
  </g>
</svg>
