<svg xmlns="http://www.w3.org/2000/svg" xmlns:xlink="http://www.w3.org/1999/xlink" width="113.282" height="111.268" viewBox="0 0 113.282 111.268">
  <defs>
    <linearGradient id="linear-gradient" x1="0.5" y1="1" x2="0.5" gradientUnits="objectBoundingBox">
      <stop offset="0" stop-color="#cbf1f6"/>
      <stop offset="1" stop-color="#fff"/>
    </linearGradient>
  </defs>
  <g id="Grupo_10796" data-name="Grupo 10796" transform="translate(1331.435 -1440.501)">
    <g id="Grupo_10795" data-name="Grupo 10795">
      <g id="Grupo_10794" data-name="Grupo 10794">
        <g id="Grupo_10792" data-name="Grupo 10792">
          <path id="Trazado_2078" data-name="Trazado 2078" d="M-1303.15,1464.073h.186a3.278,3.278,0,0,1,3.274,3.275v2.82l6.524-5.353a3.287,3.287,0,0,1,2.076-.742h12.711v8.532a1.966,1.966,0,0,0,1.963,1.965h16.653a3.282,3.282,0,0,1,2.076.743l6.524,5.352v-2.82a3.279,3.279,0,0,1,3.275-3.275h.186a1.967,1.967,0,0,0,1.965-1.965v-17.141a1.967,1.967,0,0,0-1.965-1.965h-24.772v-8.532a1.967,1.967,0,0,0-1.964-1.965h-28.712a1.967,1.967,0,0,0-1.966,1.965v17.141A1.967,1.967,0,0,0-1303.15,1464.073Z" fill="url(#linear-gradient)"/>
        </g>
        <g id="Grupo_10793" data-name="Grupo 10793">
          <path id="Trazado_2079" data-name="Trazado 2079" d="M-1220.276,1519.952l-6.752-.341c4.274,0,4.206-5.934,4.206-5.934V1488.3c0-5.366-4.893-8.949-4.893-8.949,2.565,0,4.347-2.388,4.347-6.842a11.111,11.111,0,0,0-.73-4.279,3.029,3.029,0,0,0,2.33-2.943,3.035,3.035,0,0,0-3.035-3.036,3.028,3.028,0,0,0-3.014,2.819,7.482,7.482,0,0,0-1.627-.171c-4.4,0-6.987,1.963-6.987,7.542s4.151,6.91,4.151,6.91c-3.8,1.217-10,14.133-10,14.133l-12.548,2.728a5.606,5.606,0,0,0-4.185,6.081h-31.816a5.606,5.606,0,0,0-4.186-6.081l-12.548-2.728s-6.2-12.916-10-14.133c0,0,2.547-1.263,2.547-6.842s-.986-7.61-5.382-7.61-6.077,3.155-6.077,7.61,1.782,6.842,4.347,6.842c0,0-4.893,3.583-4.893,8.949v25.373s-.068,5.934,4.206,5.934l-6.752.341s-1.327,6.358,4.52,6.358h22.217l4.486,23.38h5.292v-33.285s.559-7.366-5.292-7.366h46.853c-5.851,0-5.292,7.366-5.292,7.366v33.285h5.292l4.486-23.38h22.217C-1218.948,1526.31-1220.276,1519.952-1220.276,1519.952Z" fill="url(#linear-gradient)"/>
        </g>
      </g>
    </g>
    <path id="Trazado_2080" data-name="Trazado 2080" d="M-1301.726,1465.583v3.993a2.445,2.445,0,0,0,1.412,2.229,2.481,2.481,0,0,0,1.06.241,2.458,2.458,0,0,0,1.559-.563l7.188-5.9h4.661a1.66,1.66,0,0,0,1.659-1.66,1.659,1.659,0,0,0-1.659-1.659h-4.789a2.974,2.974,0,0,0-1.877.671l-5.9,4.835v-2.548a2.961,2.961,0,0,0-2.958-2.958h-.168a1.778,1.778,0,0,1-1.776-1.777v-14.9a1.777,1.777,0,0,1,1.776-1.775h25.943a1.777,1.777,0,0,1,1.776,1.775v5.9h-1.217a5.1,5.1,0,0,0-5.093,5.095v15.487a5.1,5.1,0,0,0,5.093,5.095h14.918l7.187,5.9a2.451,2.451,0,0,0,1.559.564,2.48,2.48,0,0,0,1.06-.241,2.446,2.446,0,0,0,1.412-2.23v-3.992a5.1,5.1,0,0,0,4.9-5.091v-15.487a5.1,5.1,0,0,0-5.094-5.095H-1270.5v-5.9a5.1,5.1,0,0,0-5.094-5.094h-25.943a5.1,5.1,0,0,0-5.1,5.094v14.9a5.1,5.1,0,0,0,4.9,5.092Zm54.415-9v15.487a1.778,1.778,0,0,1-1.776,1.776h-.168a2.962,2.962,0,0,0-2.959,2.959v2.548l-5.894-4.836a2.965,2.965,0,0,0-1.876-.671h-15.047a1.777,1.777,0,0,1-1.774-1.776v-15.487a1.777,1.777,0,0,1,1.774-1.776h25.944a1.777,1.777,0,0,1,1.776,1.776Zm0,0" fill="#4384cd"/>
    <path id="Trazado_2081" data-name="Trazado 2081" d="M-1278.4,1449.09a1.66,1.66,0,0,0-1.659-1.66h-18.3a1.659,1.659,0,0,0-1.659,1.66,1.658,1.658,0,0,0,1.659,1.659h18.3a1.659,1.659,0,0,0,1.659-1.659Zm0,0" fill="#4384cd"/>
    <path id="Trazado_2082" data-name="Trazado 2082" d="M-1298.352,1454.613a1.659,1.659,0,0,0-1.659,1.659,1.659,1.659,0,0,0,1.659,1.66h11.95a1.659,1.659,0,0,0,1.659-1.66,1.659,1.659,0,0,0-1.659-1.659Zm0,0" fill="#4384cd"/>
    <path id="Trazado_2083" data-name="Trazado 2083" d="M-1273.189,1460.6a1.659,1.659,0,0,0,1.659,1.659h18.3a1.659,1.659,0,0,0,1.659-1.659,1.66,1.66,0,0,0-1.659-1.66h-18.3a1.66,1.66,0,0,0-1.659,1.66Zm0,0" fill="#4384cd"/>
    <path id="Trazado_2084" data-name="Trazado 2084" d="M-1259.579,1466.119h-11.951a1.66,1.66,0,0,0-1.659,1.66,1.66,1.66,0,0,0,1.659,1.659h11.951a1.66,1.66,0,0,0,1.66-1.659,1.66,1.66,0,0,0-1.66-1.66Zm0,0" fill="#4384cd"/>
    <path id="Trazado_2085" data-name="Trazado 2085" d="M-1219.815,1518.416h-3.109a8.321,8.321,0,0,0,1.706-5.055v-12.245a1.66,1.66,0,0,0-1.66-1.66,1.659,1.659,0,0,0-1.659,1.66V1507H-1238.4l-.16-3.17a1.636,1.636,0,0,0,.216-.193l7.685-8.251a1.658,1.658,0,0,0-.083-2.345,1.657,1.657,0,0,0-2.344.083l-7.195,7.724h-16.249a5.345,5.345,0,0,1,4.221-3.629l10.087-1.678a1.656,1.656,0,0,0,1.166-.809l1.621-2.821.005-.008,4.434-7.712a1.142,1.142,0,0,0,.06-.116,4.505,4.505,0,0,1,4.118-2.567,4.8,4.8,0,0,1,3.414,1.425,9.732,9.732,0,0,1,2.868,6.925v4.4a1.66,1.66,0,0,0,1.659,1.66,1.66,1.66,0,0,0,1.66-1.66v-4.4a13.028,13.028,0,0,0-3.839-9.271,8.383,8.383,0,0,0-.808-.707,7.542,7.542,0,0,0,2.875-5.925v-3.027a7.584,7.584,0,0,0-.171-1.6,5.017,5.017,0,0,0,2.051-4.027,5,5,0,0,0-4.993-5,4.985,4.985,0,0,0-4.606,3.072,7.557,7.557,0,0,0-6.476,3.959,1.657,1.657,0,0,0-1.662,1,1.657,1.657,0,0,0,.768,2.132c-.01.153-.017.308-.017.463v3.027a7.536,7.536,0,0,0,2.629,5.72,7.772,7.772,0,0,0-2.435,2.909l-5.642,9.812-9.311,1.549a8.645,8.645,0,0,0-7.1,6.9h-29.689a8.646,8.646,0,0,0-7.1-6.9l-9.312-1.549-5.639-9.806a7.743,7.743,0,0,0-3.213-3.4,7.529,7.529,0,0,0,2.046-5.162V1471a7.561,7.561,0,0,0-7.552-7.553,7.561,7.561,0,0,0-7.553,7.553v3.028a7.512,7.512,0,0,0,.594,2.94,7.538,7.538,0,0,0,2.982,3.479c-.05.048-.1.095-.15.144a13.025,13.025,0,0,0-3.841,9.271l0,23.5a8.326,8.326,0,0,0,1.7,5.055h-3.109a1.659,1.659,0,0,0-1.659,1.659v3.555a4.262,4.262,0,0,0,4.259,4.257h2.122l-4.679,21.875a1.661,1.661,0,0,0,1.275,1.971,1.751,1.751,0,0,0,.349.036,1.662,1.662,0,0,0,1.622-1.312l4.828-22.57h10.73l4.829,22.57a1.659,1.659,0,0,0,1.62,1.312,1.729,1.729,0,0,0,.349-.036,1.662,1.662,0,0,0,1.276-1.971l-4.68-21.875h2.254a4.22,4.22,0,0,0,1.206-.177l2.893,21.468a3,3,0,0,0,2.963,2.591h3.528a3,3,0,0,0,2.991-2.99v-32.133a9.6,9.6,0,0,0-2.372-6.324h6.491a13.612,13.612,0,0,0,5.439,6.17,3.535,3.535,0,0,1,1.765,3.032v28.927h-2.34a1.659,1.659,0,0,0-1.659,1.659,1.659,1.659,0,0,0,1.659,1.659h15.127a1.66,1.66,0,0,0,1.66-1.659,1.66,1.66,0,0,0-1.66-1.659h-2.628v-28.743a3.6,3.6,0,0,1,1.836-3.088,13.581,13.581,0,0,0,5.656-6.3h7.209a9.6,9.6,0,0,0-2.372,6.324v32.133a2.993,2.993,0,0,0,2.99,2.99h3.528a3,3,0,0,0,2.964-2.59l2.894-21.468a4.238,4.238,0,0,0,1.2.177h2.255l-4.681,21.875a1.66,1.66,0,0,0,1.276,1.97,1.674,1.674,0,0,0,.349.036,1.659,1.659,0,0,0,1.621-1.312l4.829-22.57h10.73l4.829,22.57a1.66,1.66,0,0,0,1.621,1.312,1.667,1.667,0,0,0,.349-.036,1.661,1.661,0,0,0,1.275-1.97l-4.68-21.875h2.124a4.263,4.263,0,0,0,4.259-4.257v-3.556a1.663,1.663,0,0,0-1.662-1.659Zm-6.288-54.787a1.677,1.677,0,0,1,1.675,1.677,1.654,1.654,0,0,1-.252.869,7.593,7.593,0,0,0-2.6-2.057,1.663,1.663,0,0,1,1.181-.489Zm-4.439,3.069a4.238,4.238,0,0,1,4.234,4.233v3.029a4.238,4.238,0,0,1-4.234,4.233,4.238,4.238,0,0,1-4.234-4.233V1471.9l1.934.834.143.482a1.659,1.659,0,0,0,1.59,1.186,1.624,1.624,0,0,0,.474-.069,1.66,1.66,0,0,0,1.117-2.064l-.22-.737a2.74,2.74,0,0,0-1.545-1.74l-2.785-1.2a4.234,4.234,0,0,1,3.526-1.894Zm-94.1,4.3a4.239,4.239,0,0,1,4.234-4.234,4.221,4.221,0,0,1,3.141,1.4l-3.763,1.624a2.74,2.74,0,0,0-1.544,1.739l-.22.738a1.66,1.66,0,0,0,1.117,2.064,1.706,1.706,0,0,0,.475.069,1.661,1.661,0,0,0,1.589-1.186l.144-.483,3.294-1.421v2.714a4.238,4.238,0,0,1-4.233,4.233,4.228,4.228,0,0,1-3.9-2.586,4.2,4.2,0,0,1-.332-1.647Zm2.454,11.936a4.8,4.8,0,0,1,3.413-1.424,4.506,4.506,0,0,1,4.119,2.567,1.089,1.089,0,0,0,.058.112l0,0,.345.6,4.089,7.113,0,.006,1.622,2.823a1.654,1.654,0,0,0,1.166.809l10.087,1.678a5.345,5.345,0,0,1,4.221,3.629h-16.25l-7.193-7.724a1.661,1.661,0,0,0-2.347-.083,1.66,1.66,0,0,0-.082,2.345l7.241,7.774v1.329a5.8,5.8,0,0,0,.507,2.375l-.007.137h-13.864v-17.143a9.733,9.733,0,0,1,2.869-6.926Zm16.905,41.633h-21.9a.94.94,0,0,1-.941-.938v-1.9h23.235l.334,2.481a.94.94,0,0,1-.733.352Zm10.262-7.922v31.805h-2.913l-3.856-28.6a1.659,1.659,0,0,0-1.644-1.438H-1320a5.056,5.056,0,0,1-5.05-5.049v-3.039h23.711a6.331,6.331,0,0,1,6.324,6.324Zm24.979-2.9a6.93,6.93,0,0,0-3.5,5.963v28.743h-3.522v-28.927a6.829,6.829,0,0,0-3.374-5.877,10.305,10.305,0,0,1-3.4-3.325h1.131a1.659,1.659,0,0,0,1.659-1.659,1.659,1.659,0,0,0-1.659-1.66h-23.163a2.514,2.514,0,0,1-2.51-2.511v-.323h66.436v.323a2.514,2.514,0,0,1-2.513,2.511h-31.763a1.659,1.659,0,0,0-1.659,1.66,1.659,1.659,0,0,0,1.659,1.659h9.735a10.285,10.285,0,0,1-3.563,3.423Zm18.381,34.706h-2.913v-31.805a6.331,6.331,0,0,1,6.324-6.324h23.711v3.039a5.056,5.056,0,0,1-5.05,5.049h-16.572a1.661,1.661,0,0,0-1.645,1.438Zm30.185-24.821a.94.94,0,0,1-.941.938h-21.9a.939.939,0,0,1-.733-.352l.334-2.481h23.235Zm0,0" fill="#4384cd"/>
  </g>
</svg>
