<svg xmlns="http://www.w3.org/2000/svg" xmlns:xlink="http://www.w3.org/1999/xlink" width="162.433" height="133.206" viewBox="0 0 162.433 133.206">
  <defs>
    <linearGradient id="linear-gradient" x1="0.5" y1="1" x2="0.5" gradientUnits="objectBoundingBox">
      <stop offset="0" stop-color="#cbf1f6"/>
      <stop offset="1" stop-color="#fff"/>
    </linearGradient>
  </defs>
  <g id="Grupo_10716" data-name="Grupo 10716" transform="translate(-173.159 -6142.8)">
    <g id="Grupo_10713" data-name="Grupo 10713">
      <path id="Trazado_1958" data-name="Trazado 1958" d="M291.152,6144.534h-68.9a5.806,5.806,0,0,0-5.386,7.977.3.3,0,0,1-.261.417l-9,.619a.3.3,0,0,0-.257.426l10.978,24.97a.3.3,0,0,0,.278.182h8.478a.3.3,0,0,1,.264.153l2.134,3.749a5.7,5.7,0,0,0,4.952,2.88H272.5a.3.3,0,0,1,.3.267l6.989,57.645a.3.3,0,0,1-.221.33l-9.138,2.5a4.072,4.072,0,0,0-2.994,4.144l.308,5.8a5.809,5.809,0,0,0,6.773,5.418l20.933-3.558a9.7,9.7,0,0,0,7.995-10.768l-7.841-62.34a.3.3,0,0,1,.3-.342,17.064,17.064,0,0,0,17.064-17.064v-1.588A21.816,21.816,0,0,0,291.152,6144.534Z" fill="url(#linear-gradient)"/>
      <rect id="Rectángulo_2836" data-name="Rectángulo 2836" width="60.55" height="40.921" rx="0.819" transform="translate(176.907 6206.59)" fill="url(#linear-gradient)"/>
    </g>
    <g id="Grupo_10715" data-name="Grupo 10715">
      <g id="Grupo_10714" data-name="Grupo 10714">
        <path id="Trazado_1959" data-name="Trazado 1959" d="M235.654,6202.515H178.709a5.556,5.556,0,0,0-5.55,5.55v37.971a5.556,5.556,0,0,0,5.55,5.55h56.945a5.556,5.556,0,0,0,5.55-5.55v-37.971a5.555,5.555,0,0,0-5.55-5.55Zm.792,43.521a.793.793,0,0,1-.792.791H178.709a.792.792,0,0,1-.791-.791v-37.971a.793.793,0,0,1,.791-.792h56.945a.794.794,0,0,1,.792.792Zm0,0" fill="#4384cd"/>
        <path id="Trazado_1960" data-name="Trazado 1960" d="M224.888,6212.265a2.378,2.378,0,0,0-2.38,2.38v24.813a2.38,2.38,0,0,0,4.759,0v-24.813a2.379,2.379,0,0,0-2.379-2.38Zm0,0" fill="#4384cd"/>
        <path id="Trazado_1961" data-name="Trazado 1961" d="M216.034,6212.265a2.379,2.379,0,0,0-2.379,2.38v24.813a2.38,2.38,0,0,0,4.759,0v-24.813a2.378,2.378,0,0,0-2.38-2.38Zm0,0" fill="#4384cd"/>
        <path id="Trazado_1962" data-name="Trazado 1962" d="M207.183,6212.265a2.378,2.378,0,0,0-2.38,2.38v24.813a2.38,2.38,0,0,0,4.759,0v-24.813a2.379,2.379,0,0,0-2.379-2.38Zm0,0" fill="#4384cd"/>
        <path id="Trazado_1963" data-name="Trazado 1963" d="M189.478,6212.265a2.379,2.379,0,0,0-2.38,2.38v24.813a2.379,2.379,0,0,0,4.759,0v-24.813a2.378,2.378,0,0,0-2.379-2.38Zm0,0" fill="#4384cd"/>
        <path id="Trazado_1964" data-name="Trazado 1964" d="M333.212,6239.041h-7.465a12.219,12.219,0,0,0-12.2,12.205V6263.8a7.452,7.452,0,0,1-7.442,7.445h-6.152a9.864,9.864,0,0,1-9.833-9.236l5.636-1.223a12.739,12.739,0,0,0,9.984-14.035l-7.368-58.886a22.915,22.915,0,0,0-5.863-45.067H278.862a2.38,2.38,0,1,0,0,4.759h13.645a18.157,18.157,0,1,1,0,36.315H235.486a4.758,4.758,0,0,1-4.4-2.936L218.444,6150.6a2.193,2.193,0,0,1,2.027-3.036h47.287a2.38,2.38,0,0,0,0-4.759H220.471a6.953,6.953,0,0,0-6.925,7.594h-4.671a3.966,3.966,0,0,0-3.659,5.491l9.457,22.7a3.945,3.945,0,0,0,3.663,2.45h7.631l.722,1.732a9.5,9.5,0,0,0,8.8,5.864h21.292a25.623,25.623,0,0,1,1.339,8.388c-.007.436-.022.872-.039,1.31a18.2,18.2,0,0,0,.351,5.362c1.322,5.165,6.087,8.073,10.106,9.073a22.063,22.063,0,0,0,4.836.616l.327,2.6a2.38,2.38,0,0,0,2.358,2.082,2.517,2.517,0,0,0,.3-.019,2.382,2.382,0,0,0,2.064-2.658l-3.371-26.752s18.227-.013,18.613-.033l7.35,58.733a8,8,0,0,1-6.27,8.805l-19.546,4.239a4.906,4.906,0,0,1-5.945-4.794v-2.916a4.931,4.931,0,0,1,3.865-4.794l1.472-.32a8.537,8.537,0,0,0,6.7-9.419L279.82,6226.5a2.38,2.38,0,0,0-4.723.6l1.466,11.623a3.8,3.8,0,0,1-2.982,4.183l-1.474.321a9.719,9.719,0,0,0-7.614,9.445v2.916a9.672,9.672,0,0,0,9.649,9.666,9.737,9.737,0,0,0,2.064-.223l9.224-2a14.63,14.63,0,0,0,14.519,12.979H306.1a12.215,12.215,0,0,0,12.2-12.2v-12.556a7.455,7.455,0,0,1,7.447-7.446h7.463a2.379,2.379,0,1,0,0-4.759Zm-114.345-62.763-8.8-21.125h5.12l8.8,21.125Zm53.9,32.316a16.725,16.725,0,0,1-3.085-.447c-3.374-.839-5.983-3.052-6.644-5.636a14.41,14.41,0,0,1-.2-4.009c.018-.474.035-.95.04-1.422a30.218,30.218,0,0,0-1.118-8.447h8.5Zm0,0" fill="#4384cd"/>
      </g>
    </g>
  </g>
</svg>
