<svg xmlns="http://www.w3.org/2000/svg" xmlns:xlink="http://www.w3.org/1999/xlink" width="97.565" height="133.206" viewBox="0 0 97.565 133.206">
  <defs>
    <linearGradient id="linear-gradient" x1="0.5" y1="1" x2="0.5" gradientUnits="objectBoundingBox">
      <stop offset="0" stop-color="#cbf1f6"/>
      <stop offset="1" stop-color="#fff"/>
    </linearGradient>
  </defs>
  <g id="Grupo_10720" data-name="Grupo 10720" transform="translate(-205.593 -6399.905)">
    <g id="Grupo_10717" data-name="Grupo 10717">
      <path id="Trazado_1965" data-name="Trazado 1965" d="M253.908,6495.189a1.814,1.814,0,0,0,1.356,0l21.7-8.881a1.44,1.44,0,0,0,.037-2.71l-21.839-9.539a1.806,1.806,0,0,0-1.437,0l-21.706,9.532a1.44,1.44,0,0,0,.044,2.71Z" fill="url(#linear-gradient)"/>
      <rect id="Rectángulo_2837" data-name="Rectángulo 2837" width="55.843" height="14.502" transform="translate(226.665 6402.333)" fill="url(#linear-gradient)"/>
      <rect id="Rectángulo_2838" data-name="Rectángulo 2838" width="55.843" height="14.502" transform="translate(226.665 6437.849)" fill="url(#linear-gradient)"/>
      <rect id="Rectángulo_2839" data-name="Rectángulo 2839" width="55.843" height="14.502" transform="translate(226.665 6515.892)" fill="url(#linear-gradient)"/>
    </g>
    <g id="Grupo_10719" data-name="Grupo 10719">
      <g id="Grupo_10718" data-name="Grupo 10718">
        <path id="Trazado_1966" data-name="Trazado 1966" d="M254.514,6457.65a1.951,1.951,0,0,0-1.952,1.951v3.328l-1.207-1.244a1.951,1.951,0,1,0-2.8,2.718l4.558,4.7a1.949,1.949,0,0,0,1.4.592h.014a1.955,1.955,0,0,0,1.407-.614l4.42-4.7a1.951,1.951,0,1,0-2.841-2.675l-1.049,1.114V6459.6a1.95,1.95,0,0,0-1.951-1.95Zm0,0" fill="#4384cd"/>
        <path id="Trazado_1967" data-name="Trazado 1967" d="M280.231,6513.174H228.8a4.681,4.681,0,0,0-4.676,4.676v10.584a4.682,4.682,0,0,0,4.676,4.677h14.218a1.951,1.951,0,0,0,0-3.9H228.8a.774.774,0,0,1-.773-.774V6517.85a.774.774,0,0,1,.773-.774h51.434a.775.775,0,0,1,.774.774v10.584a.775.775,0,0,1-.774.774H252.055a1.951,1.951,0,0,0,0,3.9h28.176a4.682,4.682,0,0,0,4.676-4.677V6517.85a4.682,4.682,0,0,0-4.676-4.676Zm0,0" fill="#4384cd"/>
        <path id="Trazado_1968" data-name="Trazado 1968" d="M280.231,6435.132H242.343a1.951,1.951,0,0,0,0,3.9h37.888a.775.775,0,0,1,.774.774v10.584a.775.775,0,0,1-.774.774H228.8a.774.774,0,0,1-.773-.774v-10.584a.774.774,0,0,1,.773-.774H233.3a1.951,1.951,0,0,0,0-3.9h-4.5a4.681,4.681,0,0,0-4.677,4.676v10.584a4.681,4.681,0,0,0,4.677,4.676h51.433a4.68,4.68,0,0,0,4.676-4.676v-10.584a4.682,4.682,0,0,0-4.676-4.676Zm0,0" fill="#4384cd"/>
        <path id="Trazado_1969" data-name="Trazado 1969" d="M228.838,6485.027a4.654,4.654,0,0,0,2.946,4.365l18.964,7.551a10.115,10.115,0,0,0,7.531,0l18.963-7.551a4.677,4.677,0,0,0-.036-8.7l-7.137-2.772a1.951,1.951,0,1,0-1.413,3.637l7.136,2.773a.774.774,0,0,1,.007,1.44l-18.964,7.552a6.243,6.243,0,0,1-4.644,0l-18.962-7.552a.774.774,0,0,1,0-1.44l19.006-7.386a4.156,4.156,0,0,1,4.546,0l3.485,1.355a1.951,1.951,0,0,0,1.415-3.637L258.2,6473.3a10.143,10.143,0,0,0-7.371,0l-19.007,7.385a4.65,4.65,0,0,0-2.983,4.339Zm0,0" fill="#4384cd"/>
        <path id="Trazado_1970" data-name="Trazado 1970" d="M254.514,6420.9a1.953,1.953,0,0,0-1.952,1.952v3.329l-1.207-1.244a1.95,1.95,0,1,0-2.8,2.717l4.558,4.7a1.953,1.953,0,0,0,1.4.592h.014a1.953,1.953,0,0,0,1.407-.614l4.42-4.7a1.951,1.951,0,1,0-2.841-2.674l-1.049,1.113v-3.219a1.953,1.953,0,0,0-1.951-1.952Zm0,0" fill="#4384cd"/>
        <path id="Trazado_1971" data-name="Trazado 1971" d="M298.482,6483.2H289.05a1.951,1.951,0,1,0,0,3.9h9.432a.776.776,0,0,1,.774.774v32.54a.776.776,0,0,1-.774.774h-4.809l1.172-1.139a1.951,1.951,0,1,0-2.717-2.8l-4.7,4.559a1.951,1.951,0,0,0,.022,2.821l4.7,4.422a1.952,1.952,0,0,0,2.676-2.843l-1.188-1.117h4.845a4.681,4.681,0,0,0,4.676-4.676v-32.54a4.681,4.681,0,0,0-4.676-4.676Zm0,0" fill="#4384cd"/>
        <path id="Trazado_1972" data-name="Trazado 1972" d="M213.864,6452.64a1.952,1.952,0,0,0,2.759.041l4.7-4.558a1.953,1.953,0,0,0-.022-2.822l-4.7-4.42a1.952,1.952,0,0,0-2.675,2.842l1.188,1.118h-4.845a4.68,4.68,0,0,0-4.676,4.675v32.539a4.682,4.682,0,0,0,4.676,4.677H219.7a1.951,1.951,0,1,0,0-3.9h-9.432a.775.775,0,0,1-.774-.774v-32.539a.774.774,0,0,1,.774-.773h4.809l-1.172,1.138a1.952,1.952,0,0,0-.042,2.759Zm0,0" fill="#4384cd"/>
        <path id="Trazado_1973" data-name="Trazado 1973" d="M280.231,6399.9H228.8a4.681,4.681,0,0,0-4.676,4.676v10.584a4.682,4.682,0,0,0,4.676,4.677h51.434a4.682,4.682,0,0,0,4.676-4.677v-10.584a4.682,4.682,0,0,0-4.676-4.676Zm.774,15.26a.775.775,0,0,1-.774.774H228.8a.774.774,0,0,1-.773-.774v-10.584a.774.774,0,0,1,.773-.774h51.434a.775.775,0,0,1,.774.774Zm0,0" fill="#4384cd"/>
      </g>
    </g>
  </g>
</svg>
