<svg xmlns="http://www.w3.org/2000/svg" width="1062.991" height="491.072" viewBox="0 0 1062.991 491.072">
  <g id="Grupo_10708" data-name="Grupo 10708" transform="translate(-188.603 -2236.711)">
    <line id="Línea_48" data-name="Línea 48" y2="69.062" transform="translate(637.249 2283.51)" fill="none" stroke="#ffdca8" stroke-linecap="round" stroke-miterlimit="10" stroke-width="3" stroke-dasharray="8"/>
    <line id="Línea_49" data-name="Línea 49" y2="69.062" transform="translate(802.947 2283.51)" fill="none" stroke="#ffdca8" stroke-linecap="round" stroke-miterlimit="10" stroke-width="3" stroke-dasharray="8"/>
    <path id="Trazado_1948" data-name="Trazado 1948" d="M376.606,2360.576v256.273h-188V2360.576" fill="#d4f1ff"/>
    <path id="Trazado_1949" data-name="Trazado 1949" d="M589.776,2344.573v272.276h-188V2344.573" fill="#d4f1ff"/>
    <path id="Trazado_1950" data-name="Trazado 1950" d="M1038.422,2344.573v272.276h-188V2344.573" fill="#d4f1ff"/>
    <path id="Trazado_1951" data-name="Trazado 1951" d="M1251.594,2360.576v256.273h-188V2360.576" fill="#d4f1ff"/>
    <rect id="Rectángulo_2815" data-name="Rectángulo 2815" width="152.2" height="46.8" rx="4" transform="translate(561.149 2236.711)" fill="#ffd553"/>
    <rect id="Rectángulo_2816" data-name="Rectángulo 2816" width="152.2" height="46.8" rx="4" transform="translate(726.848 2236.711)" fill="#ffd553"/>
    <rect id="Rectángulo_2817" data-name="Rectángulo 2817" width="188.003" height="87.6" rx="4" transform="translate(188.603 2300.773)" fill="#36afea"/>
    <rect id="Rectángulo_2818" data-name="Rectángulo 2818" width="188" height="87.6" rx="43.8" transform="translate(401.776 2300.773)" fill="#36afea"/>
    <path id="Trazado_1952" data-name="Trazado 1952" d="M787.063,2388.373H633.554c-2.855,0-4.97-2.386-4.334-4.89l9.648-38.019a3.627,3.627,0,0,0,0-1.781l-9.648-38.019c-.636-2.5,1.479-4.891,4.334-4.891H787.063a4.5,4.5,0,0,1,4.044,2.339l20.2,39.8a3.641,3.641,0,0,1,0,3.323l-20.2,39.8A4.5,4.5,0,0,1,787.063,2388.373Z" fill="#36afea"/>
    <rect id="Rectángulo_2819" data-name="Rectángulo 2819" width="188.596" height="87.6" rx="43.8" transform="translate(850.124 2300.773)" fill="#36afea"/>
    <rect id="Rectángulo_2820" data-name="Rectángulo 2820" width="188" height="87.6" rx="4" transform="translate(1063.594 2300.773)" fill="#36afea"/>
    <text id="Punto_de_inicio" data-name="Punto de inicio" transform="translate(576.698 2264.907)" fill="#805413" font-size="16" font-family="Montserrat-SemiBold, Montserrat" font-weight="600"><tspan x="0" y="0">Punto de inicio</tspan></text>
    <text id="Procesos_precedentes_Por_ejemplo_en_proveedores_internos_o_externos_en_clientes_o_en_otras_partes_interesadas_pertinentes." data-name="Procesos precedentes
Por ejemplo, en proveedores (internos o externos) en clientes o en otras partes interesadas pertinentes." transform="translate(207.792 2401.638)" fill="#00223d" font-size="16" font-family="OpenSans-Bold, Open Sans" font-weight="700"><tspan x="0" y="17">Procesos </tspan><tspan x="0" y="39">precedentes</tspan><tspan font-family="OpenSans-Regular, Open Sans" font-weight="400"><tspan x="0" y="61">Por ejemplo, en </tspan><tspan x="0" y="83">proveedores </tspan><tspan x="0" y="105">(internos o </tspan><tspan x="0" y="127">externos) en </tspan><tspan x="0" y="149">clientes o en otras </tspan><tspan x="0" y="171">partes interesadas </tspan><tspan x="0" y="193">pertinentes.</tspan></tspan></text>
    <text id="Materia_energía_información_Por_ejemplo_en_la_forma_de_materiales_recursos_o_requisitos." data-name="Materia, energía, información
Por ejemplo, en la forma de materiales, recursos o requisitos." transform="translate(420.962 2401.638)" fill="#00223d" font-size="16" font-family="OpenSans-Bold, Open Sans" font-weight="700"><tspan x="0" y="17">Materia, energía, </tspan><tspan x="0" y="39">información</tspan><tspan font-family="OpenSans-Regular, Open Sans" font-weight="400"><tspan x="0" y="61">Por ejemplo, en la </tspan><tspan x="0" y="83">forma de </tspan><tspan x="0" y="105">materiales, </tspan><tspan x="0" y="127">recursos o </tspan><tspan x="0" y="149">requisitos.</tspan></tspan></text>
    <text id="Materia_energía_información_Por_ejemplo_en_la_forma_de_producto_servicio_o_decisión." data-name="Materia, energía, información 
Por ejemplo, en la forma de producto, servicio o decisión." transform="translate(869.608 2401.638)" fill="#00223d" font-size="16" font-family="OpenSans-Bold, Open Sans" font-weight="700"><tspan x="0" y="17">Materia, energía, </tspan><tspan x="0" y="39">información </tspan><tspan font-family="OpenSans-Regular, Open Sans" font-weight="400"><tspan x="0" y="61">Por ejemplo, en la </tspan><tspan x="0" y="83">forma de producto, </tspan><tspan x="0" y="105">servicio o decisión.</tspan></tspan></text>
    <text id="Procesos_posteriores_Por_ejemplo_en_clientes_internos_o_externos_en_otras_partes_interesadas_pertinentes." data-name="Procesos posteriores
Por ejemplo, en clientes (internos o externos), en otras partes interesadas pertinentes." transform="translate(1082.78 2401.638)" fill="#00223d" font-size="16" font-family="OpenSans-Bold, Open Sans" font-weight="700"><tspan x="0" y="17">Procesos </tspan><tspan x="0" y="39">posteriores</tspan><tspan font-family="OpenSans-Regular, Open Sans" font-weight="400"><tspan x="0" y="61">Por ejemplo, en </tspan><tspan x="0" y="83">clientes (internos o </tspan><tspan x="0" y="105">externos), en otras </tspan><tspan x="0" y="127">partes interesadas </tspan><tspan x="0" y="149">pertinentes.</tspan></tspan></text>
    <text id="Punto_final" data-name="Punto final" transform="translate(759.14 2264.907)" fill="#805413" font-size="16" font-family="Montserrat-SemiBold, Montserrat" font-weight="600"><tspan x="0" y="0">Punto final</tspan></text>
    <text id="Actividades" transform="translate(722.148 2350.453)" fill="#fff" font-size="20" font-family="Montserrat-SemiBold, Montserrat" font-weight="600"><tspan x="-60.35" y="0">Actividades</tspan></text>
    <text id="Entradas" transform="translate(495.775 2350.453)" fill="#fff" font-size="20" font-family="Montserrat-SemiBold, Montserrat" font-weight="600"><tspan x="-46.12" y="0">Entradas</tspan></text>
    <text id="Salidas" transform="translate(944.422 2350.453)" fill="#fff" font-size="20" font-family="Montserrat-SemiBold, Montserrat" font-weight="600"><tspan x="-36.23" y="0">Salidas</tspan></text>
    <text id="Receptores_de_las_salidas" data-name="Receptores
de las salidas" transform="translate(1157.594 2338.453)" fill="#fff" font-size="20" font-family="Montserrat-SemiBold, Montserrat" font-weight="600"><tspan x="-58.32" y="0">Receptores</tspan><tspan x="-67.81" y="24">de las salidas</tspan></text>
    <text id="Fuentes_de_entradas" data-name="Fuentes de
entradas" transform="translate(282.605 2338.453)" fill="#fff" font-size="20" font-family="Montserrat-SemiBold, Montserrat" font-weight="600"><tspan x="-57.38" y="0">Fuentes de</tspan><tspan x="-45.64" y="24">entradas</tspan></text>
    <line id="Línea_50" data-name="Línea 50" x2="897.292" transform="translate(271.452 2682.809)" fill="none" stroke="#bfeef4" stroke-linecap="round" stroke-linejoin="round" stroke-width="3"/>
    <line id="Línea_51" data-name="Línea 51" y2="49.764" transform="translate(271.452 2633.045)" fill="none" stroke="#bfeef4" stroke-linecap="round" stroke-linejoin="round" stroke-width="3"/>
    <path id="Trazado_1953" data-name="Trazado 1953" d="M277.864,2637.667c.983,1.968-.012,3.578-2.212,3.578h-8.4c-2.2,0-3.2-1.61-2.211-3.578l4.623-9.244c.983-1.968,2.593-1.968,3.577,0Z" fill="#bfeef4"/>
    <line id="Línea_52" data-name="Línea 52" y2="49.764" transform="translate(495.776 2633.045)" fill="none" stroke="#bfeef4" stroke-linecap="round" stroke-linejoin="round" stroke-width="3"/>
    <path id="Trazado_1954" data-name="Trazado 1954" d="M502.187,2637.667c.984,1.968-.011,3.578-2.211,3.578h-8.4c-2.2,0-3.195-1.61-2.212-3.578l4.623-9.244c.984-1.968,2.594-1.968,3.577,0Z" fill="#bfeef4"/>
    <line id="Línea_53" data-name="Línea 53" y2="258.723" transform="translate(720.099 2421.927)" fill="none" stroke="#bfeef4" stroke-linecap="round" stroke-linejoin="round" stroke-width="3"/>
    <path id="Trazado_1955" data-name="Trazado 1955" d="M726.51,2426.549c.984,1.968-.011,3.578-2.211,3.578h-8.4c-2.2,0-3.2-1.61-2.211-3.578l4.622-9.245c.984-1.967,2.594-1.967,3.578,0Z" fill="#bfeef4"/>
    <line id="Línea_54" data-name="Línea 54" y2="49.764" transform="translate(944.422 2633.045)" fill="none" stroke="#bfeef4" stroke-linecap="round" stroke-linejoin="round" stroke-width="3"/>
    <path id="Trazado_1956" data-name="Trazado 1956" d="M950.833,2637.667c.984,1.968-.011,3.578-2.211,3.578h-8.4c-2.2,0-3.2-1.61-2.211-3.578l4.622-9.244c.984-1.968,2.594-1.968,3.578,0Z" fill="#bfeef4"/>
    <line id="Línea_55" data-name="Línea 55" y2="49.764" transform="translate(1168.745 2633.045)" fill="none" stroke="#bfeef4" stroke-linecap="round" stroke-linejoin="round" stroke-width="3"/>
    <path id="Trazado_1957" data-name="Trazado 1957" d="M1175.156,2637.667c.984,1.968-.011,3.578-2.211,3.578h-8.4c-2.2,0-3.2-1.61-2.211-3.578l4.622-9.244c.984-1.968,2.594-1.968,3.578,0Z" fill="#bfeef4"/>
    <rect id="Rectángulo_2821" data-name="Rectángulo 2821" width="306.314" height="87.6" rx="2" transform="translate(566.991 2636.849)" fill="#bfeef4"/>
    <text id="Posibles_controles_y_puntos_de_control_para_hacer_el_seguimiento_del_desempeño_y_medirlo" data-name="Posibles controles y puntos de control para hacer el seguimiento del desempeño y medirlo" transform="translate(578.919 2646.783)" fill="#00223d" font-size="16" font-family="OpenSans-Regular, Open Sans"><tspan x="27.781" y="17">Posibles controles y puntos de </tspan><tspan x="2.288" y="39">control para hacer el seguimiento del </tspan><tspan x="59.796" y="61">desempeño y medirlo</tspan></text>
  </g>
</svg>
