<svg xmlns="http://www.w3.org/2000/svg" width="108.371" height="108.371" viewBox="0 0 108.371 108.371">
  <g id="Grupo_10737" data-name="Grupo 10737" transform="translate(-177.849 -7853.6)">
    <path id="Trazado_2017" data-name="Trazado 2017" d="M191.833,7886.81h80.4a1.75,1.75,0,0,1,1.748,1.748v57.682H246.018a11.937,11.937,0,0,1-8.439,3.495H226.492a11.934,11.934,0,0,1-8.439-3.495H190.085v-57.682a1.749,1.749,0,0,1,1.748-1.748Zm0,0" fill="#69d6f4"/>
    <path id="Trazado_2018" data-name="Trazado 2018" d="M284.472,7946.24v6.991a6.989,6.989,0,0,1-6.991,6.992H186.589a6.99,6.99,0,0,1-6.992-6.992v-6.991h38.454a11.949,11.949,0,0,0,8.443,3.495h11.081a11.949,11.949,0,0,0,8.443-3.495Zm0,0" fill="#c5d9e3"/>
    <path id="Trazado_2019" data-name="Trazado 2019" d="M280.976,7886.81v59.43h-6.991v-57.682a1.754,1.754,0,0,0-1.748-1.748h-6.992a22.742,22.742,0,0,0,1.678-6.991h7.062a6.988,6.988,0,0,1,6.991,6.991Zm0,0" fill="#c5d9e3"/>
    <path id="Trazado_2020" data-name="Trazado 2020" d="M223.295,7886.81H191.833a1.754,1.754,0,0,0-1.748,1.748v57.682h-6.992v-59.43a6.989,6.989,0,0,1,6.992-6.991h31.532a22.742,22.742,0,0,0,1.678,6.991Zm0,0" fill="#c5d9e3"/>
    <path id="Trazado_2021" data-name="Trazado 2021" d="M263.5,7928.76a3.5,3.5,0,1,1-2.8,1.4,3.546,3.546,0,0,1,2.8-1.4Zm0,0" fill="#fcd770"/>
    <path id="Trazado_2022" data-name="Trazado 2022" d="M266.993,7878.071c0,.594-.017,1.171-.07,1.748a22.7,22.7,0,0,1-15.469,19.8l-.192-.577-6.992-20.975,16.064-16.064a22.661,22.661,0,0,1,6.659,16.064Zm0,0" fill="#b4dd7f"/>
    <path id="Trazado_2023" data-name="Trazado 2023" d="M260.334,7862.007l-16.064,16.064-20.975-8.74a22.717,22.717,0,0,1,37.039-7.324Zm0,0" fill="#69d6f4"/>
    <path id="Trazado_2024" data-name="Trazado 2024" d="M246.787,7923.954a3.432,3.432,0,0,1-.769-2.185,3.5,3.5,0,1,1,6.293,2.1,3.547,3.547,0,0,1-2.8,1.4,3.485,3.485,0,0,1-2.727-1.311Zm0,0" fill="#fcd770"/>
    <path id="Trazado_2025" data-name="Trazado 2025" d="M251.262,7899.046l.192.577a22.189,22.189,0,0,1-7.184,1.171,22.691,22.691,0,0,1-18.842-10.016,22.22,22.22,0,0,1-2.133-3.968,22.742,22.742,0,0,1-1.678-6.991c-.053-.577-.07-1.154-.07-1.748a22.731,22.731,0,0,1,1.748-8.74l20.975,8.74Zm0,0" fill="#fcd770"/>
    <path id="Trazado_2026" data-name="Trazado 2026" d="M234.762,7933.567a3.432,3.432,0,0,1,.769,2.185,3.5,3.5,0,1,1-6.992,0,3.4,3.4,0,0,1,.594-1.94,3.521,3.521,0,0,1,2.9-1.556,3.485,3.485,0,0,1,2.727,1.311Zm0,0" fill="#fcd770"/>
    <path id="Trazado_2027" data-name="Trazado 2027" d="M221.547,7911.281v3.5H197.076V7893.8h24.471Zm0,0" fill="#b4dd7f"/>
    <path id="Trazado_2028" data-name="Trazado 2028" d="M219.8,7925.265a3.4,3.4,0,0,1-.594,1.94,3.485,3.485,0,0,1-5.8,0,3.4,3.4,0,0,1-.594-1.94,3.5,3.5,0,1,1,6.991,0Zm0,0" fill="#fcd770"/>
    <path id="Trazado_2029" data-name="Trazado 2029" d="M203.474,7933.812a3.4,3.4,0,0,1,.594,1.94,3.51,3.51,0,1,1-.594-1.94Zm0,0" fill="#fcd770"/>
    <rect id="Rectángulo_2846" data-name="Rectángulo 2846" width="3.496" height="3.496" rx="1.748" transform="translate(188.337 7951.483)" fill="#f5f5f5"/>
    <rect id="Rectángulo_2847" data-name="Rectángulo 2847" width="3.496" height="3.496" rx="1.748" transform="translate(195.328 7951.483)" fill="#e91e63"/>
    <path id="Trazado_2030" data-name="Trazado 2030" d="M282.724,7944.492V7886.81a8.749,8.749,0,0,0-8.739-8.739h-5.244a24.471,24.471,0,0,0-48.942,0H190.085a8.75,8.75,0,0,0-8.74,8.739v57.682h-3.5v8.739a8.751,8.751,0,0,0,8.74,8.74h90.892a8.75,8.75,0,0,0,8.739-8.74v-8.739Zm-8.739-62.925a5.251,5.251,0,0,1,5.244,5.243v57.682h-3.5v-55.934a3.5,3.5,0,0,0-3.5-3.5H267.71a24.182,24.182,0,0,0,.751-3.5Zm-49.674-9.919,18.552,7.73,6.352,19.054a20.941,20.941,0,0,1-24.9-26.784Zm28.225,25.693-6.266-18.8,14-14a20.935,20.935,0,0,1-7.734,32.8ZM244.27,7857.1a20.876,20.876,0,0,1,13.531,4.973l-13.938,13.937-18.2-7.58a20.981,20.981,0,0,1,18.605-11.33Zm-59.429,29.714a5.25,5.25,0,0,1,5.244-5.243h29.994a24.048,24.048,0,0,0,.751,3.5h-29a3.5,3.5,0,0,0-3.5,3.5v55.934h-3.5Zm97.883,66.421a5.25,5.25,0,0,1-5.243,5.244H186.589a5.251,5.251,0,0,1-5.244-5.244v-5.243h36.011a13.578,13.578,0,0,0,9.136,3.5h11.087a13.578,13.578,0,0,0,9.136-3.5h22.026v-3.5H245.294l-.512.512a10.118,10.118,0,0,1-7.205,2.984H226.491a10.126,10.126,0,0,1-7.206-2.984l-.51-.512H191.833v-55.934h30.361a24.417,24.417,0,0,0,44.152,0h5.891v59.43h10.487Zm0,0" fill="#717377"/>
    <path id="Trazado_2031" data-name="Trazado 2031" d="M263.5,7927.013a5.209,5.209,0,0,0-2.9.882l-6.1-4.572a5.179,5.179,0,0,0,.262-1.554,5.244,5.244,0,1,0-10.488,0,5.186,5.186,0,0,0,.309,1.709l-9.789,7.833a5.135,5.135,0,0,0-5.882.257l-7.538-5.026a5.079,5.079,0,0,0,.177-1.277,5.243,5.243,0,1,0-10.487,0,5.125,5.125,0,0,0,.176,1.277l-7.537,5.026a5.184,5.184,0,0,0-3.127-1.06,5.244,5.244,0,1,0,5.244,5.244,5.13,5.13,0,0,0-.177-1.278l7.537-5.025a5.148,5.148,0,0,0,6.254,0l7.538,5.025a5.142,5.142,0,0,0-.177,1.278,5.244,5.244,0,1,0,10.179-1.709l9.789-7.833a5.17,5.17,0,0,0,5.658-.08l6.1,4.572a5.142,5.142,0,0,0-.262,1.554,5.243,5.243,0,1,0,5.243-5.243ZM200.572,7937.5a1.748,1.748,0,1,1,1.748-1.748,1.752,1.752,0,0,1-1.748,1.748Zm15.731-10.487a1.748,1.748,0,1,1,1.748-1.748,1.752,1.752,0,0,1-1.748,1.748Zm15.732,10.487a1.748,1.748,0,1,1,1.748-1.748,1.751,1.751,0,0,1-1.748,1.748Zm17.479-13.983a1.748,1.748,0,1,1,1.748-1.748,1.752,1.752,0,0,1-1.748,1.748ZM263.5,7934a1.748,1.748,0,1,1,1.748-1.748A1.752,1.752,0,0,1,263.5,7934Zm0,0" fill="#717377"/>
    <rect id="Rectángulo_2848" data-name="Rectángulo 2848" width="13.983" height="3.496" transform="translate(202.32 7899.046)" fill="#87a65f"/>
    <rect id="Rectángulo_2849" data-name="Rectángulo 2849" width="13.983" height="3.496" transform="translate(202.32 7906.038)" fill="#87a65f"/>
    <rect id="Rectángulo_2850" data-name="Rectángulo 2850" width="3.496" height="3.496" transform="translate(226.791 7909.533)" fill="#02a9f4"/>
    <rect id="Rectángulo_2851" data-name="Rectángulo 2851" width="34.958" height="3.496" transform="translate(233.783 7909.533)" fill="#02a9f4"/>
  </g>
</svg>
