<svg xmlns="http://www.w3.org/2000/svg" xmlns:xlink="http://www.w3.org/1999/xlink" width="133.205" height="133.206" viewBox="0 0 133.205 133.206">
  <defs>
    <linearGradient id="linear-gradient" x1="0.5" y1="1" x2="0.5" gradientUnits="objectBoundingBox">
      <stop offset="0" stop-color="#cbf1f6"/>
      <stop offset="1" stop-color="#fff"/>
    </linearGradient>
  </defs>
  <g id="Grupo_10724" data-name="Grupo 10724" transform="translate(-187.773 -6657.009)">
    <g id="Grupo_10721" data-name="Grupo 10721">
      <path id="Trazado_1974" data-name="Trazado 1974" d="M266.57,6660.992a5.305,5.305,0,0,0-3.751-1.555h-66.88a5.3,5.3,0,0,0-5.3,5.305V6781.9a5.3,5.3,0,0,0,5.3,5.305h90.225a5.3,5.3,0,0,0,5.3-5.305v-93.805a5.3,5.3,0,0,0-1.553-3.75Z" fill="url(#linear-gradient)"/>
      <rect id="Rectángulo_2840" data-name="Rectángulo 2840" width="16.194" height="72.452" transform="translate(301.726 6714.75)" fill="url(#linear-gradient)"/>
    </g>
    <g id="Grupo_10723" data-name="Grupo 10723">
      <g id="Grupo_10722" data-name="Grupo 10722">
        <path id="Trazado_1975" data-name="Trazado 1975" d="M318.377,6711.319H301.726a2.6,2.6,0,0,0-2.6,2.6v13.139a2.6,2.6,0,0,0,5.2,0v-10.538h11.447v68.49H304.328v-38.44a2.6,2.6,0,0,0-5.2,0v38.44h-5.2v-53.855a2.6,2.6,0,0,0-2.6-2.6h-16.65a2.6,2.6,0,0,0-2.6,2.6v53.855h-5.2v-35.643a2.6,2.6,0,0,0-2.6-2.6H247.611a2.6,2.6,0,0,0-2.6,2.6v35.643h-5.2V6764.3a2.6,2.6,0,0,0-2.6-2.6h-16.65a2.6,2.6,0,0,0-2.6,2.6v20.716H195.578a2.6,2.6,0,0,1-2.6-2.6v-117.6a2.6,2.6,0,0,1,2.6-2.6h67.116v17.172a7.813,7.813,0,0,0,7.8,7.805H287.67v32a2.6,2.6,0,1,0,5.2,0v-34.6a2.6,2.6,0,0,0-.761-1.84l-24.976-24.977a2.6,2.6,0,0,0-1.84-.762H195.578a7.814,7.814,0,0,0-7.805,7.805v117.6a7.813,7.813,0,0,0,7.805,7.8h122.8a2.6,2.6,0,0,0,2.6-2.6v-73.692a2.6,2.6,0,0,0-2.6-2.6Zm-50.48-45.428,16.094,16.1H270.5a2.605,2.605,0,0,1-2.6-2.6ZM234.6,6785.012H223.155V6766.9H234.6Zm27.057,0H250.213V6751.97H261.66Zm27.058,0H277.27v-51.253h11.448Zm0,0" fill="#4384cd"/>
        <path id="Trazado_1976" data-name="Trazado 1976" d="M303.565,6734.492a2.6,2.6,0,1,0,.763,1.84,2.615,2.615,0,0,0-.763-1.84Zm0,0" fill="#4384cd"/>
        <path id="Trazado_1977" data-name="Trazado 1977" d="M225.647,6671.248a2.6,2.6,0,0,0-2.6,2.6v4.68a23.93,23.93,0,1,0,26.389,26.389h4.68a2.6,2.6,0,0,0,2.6-2.6,31.105,31.105,0,0,0-31.07-31.07Zm0,49.795a18.726,18.726,0,0,1-2.6-37.27v18.545a2.6,2.6,0,0,0,2.6,2.6h18.546a18.757,18.757,0,0,1-18.546,16.124Zm2.6-21.327v-23.135a25.92,25.92,0,0,1,23.135,23.135Zm0,0" fill="#4384cd"/>
        <path id="Trazado_1978" data-name="Trazado 1978" d="M254.115,6733.564H204.423a2.6,2.6,0,0,0,0,5.2h49.692a2.6,2.6,0,1,0,0-5.2Zm0,0" fill="#4384cd"/>
        <path id="Trazado_1979" data-name="Trazado 1979" d="M221.074,6746.117H204.423a2.6,2.6,0,0,0,0,5.2h16.651a2.6,2.6,0,1,0,0-5.2Zm0,0" fill="#4384cd"/>
        <path id="Trazado_1980" data-name="Trazado 1980" d="M235.943,6746.879a2.6,2.6,0,1,0,.762,1.839,2.619,2.619,0,0,0-.762-1.839Zm0,0" fill="#4384cd"/>
      </g>
    </g>
  </g>
</svg>
