<svg xmlns="http://www.w3.org/2000/svg" viewBox="0 0 826.4 612.6"><defs><style>.cls-1{fill:#edf8fd;}.cls-2{fill:#e3f4fc;stroke:#b6e2f7;stroke-dasharray:8;}.cls-2,.cls-3{stroke-linecap:round;stroke-linejoin:round;stroke-width:3px;}.cls-3{fill:none;stroke:#71d9e6;}.cls-4{fill:#71d9e6;}.cls-5{fill:#ffd553;}.cls-6{fill:#051a30;}.cls-7{fill:#4384cd;}.cls-8{fill:#a4dbf5;}.cls-9{fill:#00223d;}.cls-10{fill:#634448;}.cls-11{fill:#724e4c;}.cls-12{fill:#e9b578;}.cls-13{fill:#d7a06b;}.cls-14{fill:#f2f2f2;}.cls-15{fill:#bbc1da;}.cls-16{fill:#f3c689;}.cls-17{fill:#d3d8e9;}.cls-18{fill:#9ea2bb;}.cls-19{fill:#e94777;}.cls-20{fill:#76768a;}.cls-21{fill:#5f5e6f;}.cls-22{fill:#d23262;}.cls-23{fill:#d32d28;}.cls-24{fill:#9acbe9;}.cls-25{fill:#6fb2d7;}.cls-26{fill:#e8b74c;}.cls-27{fill:#b98c3c;}.cls-28{fill:#f5ba00;}.cls-29{fill:#f4ca49;}.cls-30{fill:#e54124;}.cls-31{fill:#ef7c41;}.cls-32{fill:#61404c;}.cls-33{fill:#8d524e;}.cls-34{fill:#ed6d25;}</style></defs><g id="Capa_2" data-name="Capa 2"><g id="CONTENIDO"><rect class="cls-1" x="300.16" y="195.53" width="306.93" height="314.08" rx="7.07"/><ellipse class="cls-2" cx="547.46" cy="66.35" rx="189.6" ry="64.85"/><line class="cls-3" x1="457.32" y1="222.42" x2="457.32" y2="89.75"/><path class="cls-4" d="M450.91,217.8c-1-2,0-3.58,2.21-3.58h8.4c2.2,0,3.2,1.61,2.21,3.58l-4.62,9.25c-1,2-2.59,2-3.58,0Z"/><path class="cls-4" d="M463.73,494.29c1,2,0,3.58-2.21,3.58h-8.4c-2.2,0-3.19-1.61-2.21-3.58l4.62-9.24c1-2,2.6-2,3.58,0Z"/><path class="cls-4" d="M316.63,264.26c-2,1-3.58,0-3.58-2.21v-8.4c0-2.2,1.61-3.2,3.58-2.21l9.24,4.62c2,1,2,2.59,0,3.58Z"/><path class="cls-4" d="M316.63,363.5c-2,1-3.58,0-3.58-2.22v-8.4c0-2.2,1.61-3.19,3.58-2.21l9.24,4.63c2,1,2,2.59,0,3.57Z"/><path class="cls-4" d="M46.36,150.52c-1-2,0-3.58,2.21-3.58H57c2.2,0,3.19,1.61,2.21,3.58l-4.62,9.24c-1,2-2.6,2-3.58,0Z"/><line class="cls-3" x1="703.9" y1="357.08" x2="578.22" y2="357.08"/><path class="cls-4" d="M699.27,363.5c-2,1-3.57,0-3.57-2.22v-8.4c0-2.2,1.61-3.19,3.57-2.21l9.25,4.63c2,1,2,2.59,0,3.57Z"/><line class="cls-3" x1="457.32" y1="323.41" x2="457.32" y2="298.31"/><path class="cls-4" d="M450.91,318.79c-1-2,0-3.58,2.21-3.58h8.4c2.2,0,3.2,1.61,2.21,3.58L459.11,328c-1,2-2.59,2-3.58,0Z"/><path class="cls-4" d="M463.73,296.14c1,2,0,3.58-2.21,3.58h-8.4c-2.2,0-3.19-1.61-2.21-3.58l4.62-9.24c1-2,2.6-2,3.58,0Z"/><line class="cls-3" x1="457.32" y1="422.65" x2="457.32" y2="397.55"/><path class="cls-4" d="M450.91,418c-1-2,0-3.58,2.21-3.58h8.4c2.2,0,3.2,1.61,2.21,3.58l-4.62,9.24c-1,2-2.59,2-3.58,0Z"/><path class="cls-4" d="M463.73,395.38c1,2,0,3.58-2.21,3.58h-8.4c-2.2,0-3.19-1.61-2.21-3.58l4.62-9.25c1-2,2.6-2,3.58,0Z"/><polyline class="cls-3" points="598.16 257.93 630.56 257.93 630.56 89.75"/><path class="cls-4" d="M594.58,251.52c2-1,3.58,0,3.58,2.21v8.4c0,2.2-1.61,3.2-3.58,2.21l-9.24-4.62c-2-1-2-2.59,0-3.58Z"/><rect class="cls-5" x="405.68" y="42.95" width="103.28" height="46.8" rx="4"/><rect class="cls-5" x="544.46" y="42.95" width="152.2" height="46.8" rx="4"/><path class="cls-6" d="M431.75,70.59v1.15h-8.91V59.14h8.64V60.3h-7.31v4.48h6.52v1.13h-6.52v4.68Z"/><path class="cls-6" d="M442.27,63.24a4,4,0,0,1,1.06,3v5.49h-1.28V66.38a3.16,3.16,0,0,0-.74-2.25,2.79,2.79,0,0,0-2.11-.77,3.23,3.23,0,0,0-2.42.91,3.43,3.43,0,0,0-.89,2.51v5h-1.28V62.28h1.23V64a3.61,3.61,0,0,1,1.45-1.34,4.6,4.6,0,0,1,2.15-.48A3.85,3.85,0,0,1,442.27,63.24Z"/><path class="cls-6" d="M451.79,71.17a2.43,2.43,0,0,1-.9.49,3.38,3.38,0,0,1-1.1.17A2.5,2.5,0,0,1,447,69.08V63.36h-1.7V62.28H447V60.21h1.27v2.07h2.88v1.08h-2.88V69a1.78,1.78,0,0,0,.43,1.29,1.6,1.6,0,0,0,1.21.44,2.22,2.22,0,0,0,.77-.13,1.83,1.83,0,0,0,.64-.36Z"/><path class="cls-6" d="M455.17,71.21a4.47,4.47,0,0,1-1.73-1.72,5.2,5.2,0,0,1,0-5,4.44,4.44,0,0,1,1.73-1.71,5.21,5.21,0,0,1,4.93,0,4.35,4.35,0,0,1,1.72,1.71,5.27,5.27,0,0,1,0,5,4.38,4.38,0,0,1-1.72,1.72,5.21,5.21,0,0,1-4.93,0Zm4.27-1a3.16,3.16,0,0,0,1.26-1.3,4.36,4.36,0,0,0,0-3.86,3.22,3.22,0,0,0-1.26-1.3,3.77,3.77,0,0,0-3.61,0,3.22,3.22,0,0,0-1.26,1.3,4.28,4.28,0,0,0,0,3.86,3.16,3.16,0,0,0,1.26,1.3,3.77,3.77,0,0,0,3.61,0Z"/><path class="cls-6" d="M467.62,62.69a4.59,4.59,0,0,1,2.2-.49v1.25l-.3,0a3,3,0,0,0-2.34.92,3.62,3.62,0,0,0-.85,2.57v4.82h-1.28V62.28h1.23v1.85A3,3,0,0,1,467.62,62.69Z"/><path class="cls-6" d="M479.78,63.24a4,4,0,0,1,1.06,3v5.49h-1.28V66.38a3.16,3.16,0,0,0-.74-2.25,2.78,2.78,0,0,0-2.1-.77,3.25,3.25,0,0,0-2.43.91,3.43,3.43,0,0,0-.89,2.51v5h-1.27V62.28h1.22V64a3.61,3.61,0,0,1,1.45-1.34A4.6,4.6,0,0,1,477,62.2,3.85,3.85,0,0,1,479.78,63.24Z"/><path class="cls-6" d="M485.75,71.21A4.47,4.47,0,0,1,484,69.49a5.2,5.2,0,0,1,0-5,4.44,4.44,0,0,1,1.73-1.71,5.21,5.21,0,0,1,4.93,0,4.29,4.29,0,0,1,1.72,1.71,5.27,5.27,0,0,1,0,5,4.31,4.31,0,0,1-1.72,1.72,5.21,5.21,0,0,1-4.93,0Zm4.28-1a3.2,3.2,0,0,0,1.25-1.3,4.36,4.36,0,0,0,0-3.86,3.26,3.26,0,0,0-1.25-1.3,3.79,3.79,0,0,0-3.62,0,3.22,3.22,0,0,0-1.26,1.3,4.28,4.28,0,0,0,0,3.86,3.16,3.16,0,0,0,1.26,1.3,3.79,3.79,0,0,0,3.62,0Z"/><path class="cls-7" d="M338,209.82h9.23v2.11h-6.82V215h6.12v2.11h-6.12v3.17h7v2.1H338Z"/><path class="cls-7" d="M365,213.7a3.83,3.83,0,0,1,.93,2.71v6h-2.35V217.1a2.22,2.22,0,0,0-.57-1.62,2.08,2.08,0,0,0-1.54-.58,2.29,2.29,0,0,0-1.77.81,2.92,2.92,0,0,0-.66,2v4.75h-2.36V217.1a2.26,2.26,0,0,0-.55-1.62,2.08,2.08,0,0,0-1.54-.58,2.31,2.31,0,0,0-1.79.81,3,3,0,0,0-.65,2v4.75h-2.34v-9.63h2.34v1.79a3.54,3.54,0,0,1,3.38-1.88,3.61,3.61,0,0,1,2.12.61,3.15,3.15,0,0,1,1.19,1.7,3.59,3.59,0,0,1,3.58-2.31A3.37,3.37,0,0,1,365,213.7Z"/><path class="cls-7" d="M376.57,213.34a4.27,4.27,0,0,1,1.6,1.74,6.06,6.06,0,0,1,0,5.11,4.14,4.14,0,0,1-1.58,1.71,4.56,4.56,0,0,1-2.38.61,4.16,4.16,0,0,1-1.91-.42,3.59,3.59,0,0,1-1.37-1.23v5.06H368.6V212.79h2.34v1.59a3.57,3.57,0,0,1,1.35-1.24,4.05,4.05,0,0,1,1.89-.42A4.6,4.6,0,0,1,376.57,213.34Zm-1,6.34a3,3,0,0,0,.75-2.1,3,3,0,0,0-.75-2.09,2.76,2.76,0,0,0-3.91,0,3.28,3.28,0,0,0,0,4.2,2.75,2.75,0,0,0,3.91,0Z"/><path class="cls-7" d="M384.44,213.22a3.93,3.93,0,0,1,1.95-.52V215a3.2,3.2,0,0,0-2.39.69,2.7,2.7,0,0,0-.89,2.12v4.64h-2.34v-9.63h2.34v1.86A3.48,3.48,0,0,1,384.44,213.22Z"/><path class="cls-7" d="M395.51,214a5.39,5.39,0,0,1,1.16,3.69c0,.31,0,.54,0,.7h-7.11a2.67,2.67,0,0,0,2.75,2.19,3.63,3.63,0,0,0,1.42-.28,3.26,3.26,0,0,0,1.17-.8l1.26,1.32a4.84,4.84,0,0,1-1.75,1.22,5.89,5.89,0,0,1-2.3.43,5.34,5.34,0,0,1-2.6-.61,4.22,4.22,0,0,1-1.73-1.72,5.51,5.51,0,0,1,0-5.1,4.45,4.45,0,0,1,1.73-1.74,5.19,5.19,0,0,1,2.54-.62A4.38,4.38,0,0,1,395.51,214Zm-1,2.82a2.29,2.29,0,0,0-.7-1.69,2.45,2.45,0,0,0-1.76-.63,2.49,2.49,0,0,0-1.72.62,2.75,2.75,0,0,0-.86,1.7Z"/><path class="cls-7" d="M402.94,214.76a4.56,4.56,0,0,0-1.38-.24,1.82,1.82,0,0,0-.94.21.68.68,0,0,0-.35.64.74.74,0,0,0,.44.69,7.25,7.25,0,0,0,1.39.51,14.09,14.09,0,0,1,1.66.61,3,3,0,0,1,1.12.88,2.34,2.34,0,0,1,.48,1.54,2.49,2.49,0,0,1-1.08,2.16,4.67,4.67,0,0,1-2.72.75,6.77,6.77,0,0,1-2.18-.35,5.08,5.08,0,0,1-1.8-1l.81-1.63a4.87,4.87,0,0,0,1.55.87,5.17,5.17,0,0,0,1.71.31,2.09,2.09,0,0,0,1-.22.73.73,0,0,0,.38-.68.81.81,0,0,0-.45-.75,7.44,7.44,0,0,0-1.45-.56,11.64,11.64,0,0,1-1.59-.57,2.85,2.85,0,0,1-1.06-.84,2.34,2.34,0,0,1-.45-1.49,2.51,2.51,0,0,1,1-2.17,4.3,4.3,0,0,1,2.6-.74,6.73,6.73,0,0,1,1.88.27,5.87,5.87,0,0,1,1.64.75l-.84,1.69A6.89,6.89,0,0,0,402.94,214.76Z"/><path class="cls-7" d="M413.05,222.42v-1.17a3.23,3.23,0,0,1-1.3,1,4.89,4.89,0,0,1-1.82.32,3.85,3.85,0,0,1-1.77-.39,2.79,2.79,0,0,1-1.18-1.07,2.83,2.83,0,0,1-.41-1.53,2.54,2.54,0,0,1,.95-2.11,4.29,4.29,0,0,1,2.7-.78H413v-.26a1.62,1.62,0,0,0-.56-1.31,2.46,2.46,0,0,0-1.62-.47,5.55,5.55,0,0,0-2.86.9l-.85-1.62a11.25,11.25,0,0,1,2.06-.91,7.78,7.78,0,0,1,2.17-.28,4.29,4.29,0,0,1,2.91.9,3.2,3.2,0,0,1,1.05,2.52l0,6.3Zm-.83-2.17a1.64,1.64,0,0,0,.81-1.17v-.87H410.6a2.61,2.61,0,0,0-1.38.28,1,1,0,0,0-.44.91,1.15,1.15,0,0,0,.46,1,2,2,0,0,0,1.25.36A3.05,3.05,0,0,0,412.22,220.25Z"/><path class="cls-7" d="M25.59,253.08a4.32,4.32,0,0,0-4,.12,4.11,4.11,0,0,0-1.53,1.54,4.41,4.41,0,0,0,0,4.3,4.07,4.07,0,0,0,1.53,1.55,4.16,4.16,0,0,0,2.14.57,4.39,4.39,0,0,0,1.81-.4,5.09,5.09,0,0,0,1.61-1.09l1.43,1.58a7.44,7.44,0,0,1-2.31,1.59,6.46,6.46,0,0,1-2.66.59,6.57,6.57,0,0,1-3.33-.87,6.32,6.32,0,0,1-2.38-2.35,6.45,6.45,0,0,1-.86-3.28,6.27,6.27,0,0,1,.88-3.28,6.44,6.44,0,0,1,2.4-2.32,6.89,6.89,0,0,1,3.38-.84,6.78,6.78,0,0,1,2.64.54,6.38,6.38,0,0,1,2.22,1.49l-1.41,1.76A4.73,4.73,0,0,0,25.59,253.08Z"/><path class="cls-7" d="M30.57,249.89h2.34v13.36H30.57Z"/><path class="cls-7" d="M38,249.87a1.42,1.42,0,0,1,.38,1,1.37,1.37,0,0,1-.38,1,1.34,1.34,0,0,1-1.91,0,1.37,1.37,0,0,1-.38-1,1.42,1.42,0,0,1,.38-1,1.36,1.36,0,0,1,1.91,0Zm-2.11,3.75h2.34v9.63H35.91Z"/><path class="cls-7" d="M48.63,254.86a5.42,5.42,0,0,1,1.16,3.69c0,.31,0,.55,0,.7H42.66a2.69,2.69,0,0,0,2.76,2.2,3.77,3.77,0,0,0,1.41-.28,3.53,3.53,0,0,0,1.18-.8l1.26,1.31a4.91,4.91,0,0,1-1.76,1.23,6,6,0,0,1-2.29.43,5.43,5.43,0,0,1-2.6-.61A4.36,4.36,0,0,1,40.88,261a5.17,5.17,0,0,1-.61-2.55,5.24,5.24,0,0,1,.62-2.56,4.32,4.32,0,0,1,1.74-1.73,5,5,0,0,1,2.53-.62A4.38,4.38,0,0,1,48.63,254.86Zm-1,2.83A2.39,2.39,0,0,0,47,256a2.75,2.75,0,0,0-3.49,0,2.8,2.8,0,0,0-.85,1.71Z"/><path class="cls-7" d="M60.21,254.53a3.74,3.74,0,0,1,1,2.71v6H58.81v-5.33a2.15,2.15,0,0,0-.58-1.59,2.08,2.08,0,0,0-1.56-.59,2.4,2.4,0,0,0-1.85.79,2.91,2.91,0,0,0-.67,2v4.74H51.81v-9.63h2.34v1.8a3.63,3.63,0,0,1,3.45-1.89A3.41,3.41,0,0,1,60.21,254.53Z"/><path class="cls-7" d="M69.43,262.65a4.56,4.56,0,0,1-2.41.71,2.93,2.93,0,0,1-2-.73,2.79,2.79,0,0,1-.79-2.15v-4.76H62.84l0-1.71h1.37v-2.64h2.32V254h2.76v1.71H66.51v4.34a1.46,1.46,0,0,0,.25.95,1,1,0,0,0,.76.28,3.43,3.43,0,0,0,1.37-.4Z"/><path class="cls-7" d="M78.65,254.86a5.37,5.37,0,0,1,1.16,3.69c0,.31,0,.55,0,.7H72.69a2.71,2.71,0,0,0,1,1.61,2.76,2.76,0,0,0,1.79.59,3.77,3.77,0,0,0,1.41-.28,3.43,3.43,0,0,0,1.18-.8l1.26,1.31a4.87,4.87,0,0,1-1.75,1.23,6.08,6.08,0,0,1-2.3.43,5.45,5.45,0,0,1-2.6-.61A4.36,4.36,0,0,1,70.9,261a5.61,5.61,0,0,1,0-5.11,4.45,4.45,0,0,1,1.74-1.73,5.06,5.06,0,0,1,2.54-.62A4.36,4.36,0,0,1,78.65,254.86Zm-1,2.83A2.35,2.35,0,0,0,77,256a2.45,2.45,0,0,0-1.76-.63,2.49,2.49,0,0,0-1.72.62,2.76,2.76,0,0,0-.86,1.71Z"/><path class="cls-7" d="M86.09,255.58a4.52,4.52,0,0,0-1.38-.23,1.86,1.86,0,0,0-.95.2.7.7,0,0,0-.35.64.76.76,0,0,0,.44.69,6.66,6.66,0,0,0,1.4.52,13.19,13.19,0,0,1,1.66.6,3.15,3.15,0,0,1,1.12.88,2.36,2.36,0,0,1,.48,1.54,2.47,2.47,0,0,1-1.08,2.16,4.6,4.6,0,0,1-2.72.76,7.05,7.05,0,0,1-2.18-.35,5.22,5.22,0,0,1-1.8-1l.81-1.64a4.77,4.77,0,0,0,1.55.87,5.19,5.19,0,0,0,1.71.32,2,2,0,0,0,1-.23.72.72,0,0,0,.39-.67.82.82,0,0,0-.45-.76,8,8,0,0,0-1.46-.56,13.77,13.77,0,0,1-1.58-.56,2.87,2.87,0,0,1-1.06-.85,2.31,2.31,0,0,1-.45-1.48,2.49,2.49,0,0,1,1-2.17,4.32,4.32,0,0,1,2.6-.75,6.63,6.63,0,0,1,1.88.27,5.68,5.68,0,0,1,1.65.76l-.84,1.69A7.17,7.17,0,0,0,86.09,255.58Z"/><path class="cls-7" d="M160.82,598.58a4,4,0,0,1,1.3,3.2,4.33,4.33,0,0,1-1.3,3.36,5.24,5.24,0,0,1-3.68,1.2h-2.76v3.71H152v-12.6h5.17A5.42,5.42,0,0,1,160.82,598.58Zm-1.71,5a2.16,2.16,0,0,0,.73-1.76,2.08,2.08,0,0,0-.73-1.73,3.3,3.3,0,0,0-2.1-.58h-2.63v4.66H157A3.24,3.24,0,0,0,159.11,603.62Z"/><path class="cls-7" d="M167.69,600.84a3.89,3.89,0,0,1,2-.51v2.26a3.19,3.19,0,0,0-2.39.7,2.67,2.67,0,0,0-.89,2.11v4.65H164v-9.63h2.34v1.85A3.45,3.45,0,0,1,167.69,600.84Z"/><path class="cls-7" d="M178.13,601a4.34,4.34,0,0,1,1.78,1.72,4.92,4.92,0,0,1,.64,2.54,5.09,5.09,0,0,1-.64,2.58,4.34,4.34,0,0,1-1.78,1.72,5.46,5.46,0,0,1-2.63.62,5.6,5.6,0,0,1-2.67-.62A4.36,4.36,0,0,1,171,607.8a5.09,5.09,0,0,1-.64-2.58,4.92,4.92,0,0,1,.64-2.54,4.36,4.36,0,0,1,1.79-1.72,5.6,5.6,0,0,1,2.67-.62A5.46,5.46,0,0,1,178.13,601Zm-4.61,2.19a3.3,3.3,0,0,0,0,4.21,2.57,2.57,0,0,0,2,.81,2.53,2.53,0,0,0,1.94-.81,3.3,3.3,0,0,0,0-4.21,2.53,2.53,0,0,0-1.94-.81A2.57,2.57,0,0,0,173.52,603.15Z"/><path class="cls-7" d="M180.77,600.43h2.45l2.52,7.32,2.46-7.32h2.36l-3.67,9.63h-2.41Z"/><path class="cls-7" d="M199.05,601.66a5.39,5.39,0,0,1,1.16,3.69c0,.31,0,.54,0,.7h-7.11a2.84,2.84,0,0,0,1,1.61,2.8,2.8,0,0,0,1.8.59,3.77,3.77,0,0,0,1.41-.28,3.68,3.68,0,0,0,1.18-.8l1.26,1.31a4.76,4.76,0,0,1-1.76,1.22,5.84,5.84,0,0,1-2.29.44,5.32,5.32,0,0,1-2.6-.62,4.28,4.28,0,0,1-1.74-1.71,5.61,5.61,0,0,1,0-5.11,4.32,4.32,0,0,1,1.74-1.73,5.05,5.05,0,0,1,2.53-.63A4.38,4.38,0,0,1,199.05,601.66Zm-1,2.82a2.38,2.38,0,0,0-.7-1.69,2.75,2.75,0,0,0-3.49,0,2.77,2.77,0,0,0-.85,1.7Z"/><path class="cls-7" d="M209.7,601.66a5.34,5.34,0,0,1,1.17,3.69c0,.31,0,.54,0,.7h-7.11a2.74,2.74,0,0,0,1,1.61,2.77,2.77,0,0,0,1.79.59,3.77,3.77,0,0,0,1.41-.28,3.57,3.57,0,0,0,1.18-.8l1.26,1.31a4.73,4.73,0,0,1-1.75,1.22,5.89,5.89,0,0,1-2.3.44,5.34,5.34,0,0,1-2.6-.62,4.19,4.19,0,0,1-1.73-1.71,5.18,5.18,0,0,1-.62-2.55,5.24,5.24,0,0,1,.62-2.56A4.45,4.45,0,0,1,203.7,601a5.09,5.09,0,0,1,2.54-.63A4.35,4.35,0,0,1,209.7,601.66Zm-1,2.82a2.3,2.3,0,0,0-.7-1.69,2.45,2.45,0,0,0-1.76-.63,2.49,2.49,0,0,0-1.72.62,2.78,2.78,0,0,0-.86,1.7Z"/><path class="cls-7" d="M222.17,596.69v13.36h-2.34V608.5a3.51,3.51,0,0,1-1.34,1.23,4.12,4.12,0,0,1-1.9.42,4.52,4.52,0,0,1-2.4-.62,4.17,4.17,0,0,1-1.61-1.74,5.52,5.52,0,0,1-.58-2.59,5.46,5.46,0,0,1,.57-2.54,4.09,4.09,0,0,1,1.6-1.72,4.55,4.55,0,0,1,2.37-.61,4.06,4.06,0,0,1,1.92.43,3.7,3.7,0,0,1,1.37,1.24v-5.31Zm-3.11,10.68a3.29,3.29,0,0,0,0-4.23,2.76,2.76,0,0,0-3.93,0,3.29,3.29,0,0,0,0,4.23,2.76,2.76,0,0,0,3.93,0Z"/><path class="cls-7" d="M232,601a4.36,4.36,0,0,1,1.79,1.72,5,5,0,0,1,.64,2.54,5.19,5.19,0,0,1-.64,2.58,4.36,4.36,0,0,1-1.79,1.72,5.46,5.46,0,0,1-2.63.62,5.6,5.6,0,0,1-2.67-.62,4.42,4.42,0,0,1-1.79-1.72,5.19,5.19,0,0,1-.64-2.58,5,5,0,0,1,.64-2.54,4.42,4.42,0,0,1,1.79-1.72,5.6,5.6,0,0,1,2.67-.62A5.46,5.46,0,0,1,232,601Zm-4.61,2.19a3.3,3.3,0,0,0,0,4.21,2.57,2.57,0,0,0,2,.81,2.53,2.53,0,0,0,1.94-.81,3.3,3.3,0,0,0,0-4.21,2.53,2.53,0,0,0-1.94-.81A2.57,2.57,0,0,0,227.41,603.15Z"/><path class="cls-7" d="M240.14,600.84a3.89,3.89,0,0,1,2-.51v2.26a3.19,3.19,0,0,0-2.39.7,2.67,2.67,0,0,0-.89,2.11v4.65h-2.34v-9.63h2.34v1.85A3.45,3.45,0,0,1,240.14,600.84Z"/><path class="cls-7" d="M251.21,601.66a5.34,5.34,0,0,1,1.16,3.69,6.57,6.57,0,0,1,0,.7h-7.1a2.69,2.69,0,0,0,2.75,2.2,3.77,3.77,0,0,0,1.41-.28,3.57,3.57,0,0,0,1.18-.8l1.26,1.31a4.73,4.73,0,0,1-1.75,1.22,5.89,5.89,0,0,1-2.3.44,5.34,5.34,0,0,1-2.6-.62,4.28,4.28,0,0,1-1.74-1.71,5.61,5.61,0,0,1,0-5.11,4.45,4.45,0,0,1,1.74-1.73,5.06,5.06,0,0,1,2.54-.63A4.36,4.36,0,0,1,251.21,601.66Zm-1,2.82a2.34,2.34,0,0,0-.7-1.69,2.45,2.45,0,0,0-1.76-.63,2.49,2.49,0,0,0-1.72.62,2.73,2.73,0,0,0-.86,1.7Z"/><path class="cls-7" d="M258.65,602.38a4.56,4.56,0,0,0-1.38-.24,1.86,1.86,0,0,0-.95.21.7.7,0,0,0-.35.64.76.76,0,0,0,.44.69,6.66,6.66,0,0,0,1.4.52,13.19,13.19,0,0,1,1.66.6,3.15,3.15,0,0,1,1.12.88,2.34,2.34,0,0,1,.48,1.54,2.47,2.47,0,0,1-1.08,2.16,4.67,4.67,0,0,1-2.72.76,7,7,0,0,1-2.18-.35,5.22,5.22,0,0,1-1.8-1l.81-1.64a4.77,4.77,0,0,0,1.55.87,5.19,5.19,0,0,0,1.71.32,2,2,0,0,0,1-.23.72.72,0,0,0,.39-.67.82.82,0,0,0-.45-.76,8.33,8.33,0,0,0-1.46-.56,13.77,13.77,0,0,1-1.58-.56,2.87,2.87,0,0,1-1.06-.85,2.32,2.32,0,0,1-.45-1.49,2.49,2.49,0,0,1,1-2.16,4.32,4.32,0,0,1,2.6-.75,6.63,6.63,0,0,1,1.88.27,5.94,5.94,0,0,1,1.65.75l-.84,1.7A6.66,6.66,0,0,0,258.65,602.38Z"/><path class="cls-7" d="M746.45,402.48a4.3,4.3,0,0,0-4,.12,4.11,4.11,0,0,0-1.53,1.54,4.43,4.43,0,0,0,0,4.31,4,4,0,0,0,1.53,1.54,4.13,4.13,0,0,0,2.14.57,4.43,4.43,0,0,0,1.81-.4,5.33,5.33,0,0,0,1.61-1.09l1.42,1.58a7.52,7.52,0,0,1-2.3,1.59,6.59,6.59,0,0,1-6-.28,6.2,6.2,0,0,1-2.37-2.34,6.4,6.4,0,0,1,2.42-8.89,7,7,0,0,1,6-.3,6.44,6.44,0,0,1,2.21,1.49l-1.4,1.76A4.88,4.88,0,0,0,746.45,402.48Z"/><path class="cls-7" d="M751.43,399.29h2.34v13.36h-2.34Z"/><path class="cls-7" d="M758.88,399.27a1.42,1.42,0,0,1,.38,1,1.37,1.37,0,0,1-.38,1,1.24,1.24,0,0,1-1,.4,1.26,1.26,0,0,1-1-.4,1.37,1.37,0,0,1-.37-1,1.42,1.42,0,0,1,.37-1,1.29,1.29,0,0,1,1-.39A1.27,1.27,0,0,1,758.88,399.27Zm-2.1,3.75h2.34v9.63h-2.34Z"/><path class="cls-7" d="M769.49,404.26a5.37,5.37,0,0,1,1.16,3.69c0,.31,0,.55,0,.7h-7.11a2.71,2.71,0,0,0,1,1.61,2.76,2.76,0,0,0,1.79.59,3.58,3.58,0,0,0,1.41-.28,3.43,3.43,0,0,0,1.18-.8l1.26,1.31a4.87,4.87,0,0,1-1.75,1.23,6.08,6.08,0,0,1-2.3.43,5.45,5.45,0,0,1-2.6-.61,4.3,4.3,0,0,1-1.74-1.72,5.61,5.61,0,0,1,0-5.11,4.45,4.45,0,0,1,1.74-1.73A5.06,5.06,0,0,1,766,403,4.36,4.36,0,0,1,769.49,404.26Zm-1,2.83a2.35,2.35,0,0,0-.7-1.7,2.72,2.72,0,0,0-3.48,0,2.7,2.7,0,0,0-.86,1.7Z"/><path class="cls-7" d="M781.08,403.93a3.78,3.78,0,0,1,.95,2.71v6h-2.36v-5.33a2.18,2.18,0,0,0-.57-1.59,2.12,2.12,0,0,0-1.57-.59,2.4,2.4,0,0,0-1.85.79,2.91,2.91,0,0,0-.67,2v4.74h-2.34V403H775v1.8a3.63,3.63,0,0,1,3.46-1.89A3.44,3.44,0,0,1,781.08,403.93Z"/><path class="cls-7" d="M790.29,412.05a4.56,4.56,0,0,1-2.41.71,2.89,2.89,0,0,1-2-.73,2.79,2.79,0,0,1-.8-2.15v-4.76H783.7l0-1.71h1.37v-2.64h2.33v2.64h2.75v1.71h-2.75v4.34a1.41,1.41,0,0,0,.25,1,1,1,0,0,0,.75.28,3.43,3.43,0,0,0,1.37-.4Z"/><path class="cls-7" d="M799.52,404.26a5.42,5.42,0,0,1,1.16,3.69c0,.31,0,.55,0,.7h-7.11a2.69,2.69,0,0,0,2.75,2.2,3.6,3.6,0,0,0,1.42-.28,3.53,3.53,0,0,0,1.18-.8l1.26,1.31a4.91,4.91,0,0,1-1.76,1.23,6,6,0,0,1-2.29.43,5.47,5.47,0,0,1-2.61-.61,4.28,4.28,0,0,1-1.73-1.72,5.61,5.61,0,0,1,0-5.11,4.36,4.36,0,0,1,1.73-1.73,5.08,5.08,0,0,1,2.54-.62A4.38,4.38,0,0,1,799.52,404.26Zm-1,2.83a2.36,2.36,0,0,0-.71-1.7,2.72,2.72,0,0,0-3.48,0,2.7,2.7,0,0,0-.85,1.7Z"/><path class="cls-7" d="M807,405a4.52,4.52,0,0,0-1.38-.23,1.93,1.93,0,0,0-.94.2.68.68,0,0,0-.35.64.76.76,0,0,0,.44.7,7.25,7.25,0,0,0,1.39.51,12.12,12.12,0,0,1,1.66.6,3.07,3.07,0,0,1,1.12.88,2.36,2.36,0,0,1,.48,1.54,2.47,2.47,0,0,1-1.08,2.16,4.6,4.6,0,0,1-2.72.76,6.94,6.94,0,0,1-2.17-.35,5.22,5.22,0,0,1-1.8-1l.81-1.64a4.72,4.72,0,0,0,1.54.87,5.19,5.19,0,0,0,1.71.32,2.06,2.06,0,0,0,1-.23.72.72,0,0,0,.39-.67.84.84,0,0,0-.45-.76,8.33,8.33,0,0,0-1.46-.56,13.35,13.35,0,0,1-1.59-.56,2.87,2.87,0,0,1-1.06-.85,2.31,2.31,0,0,1-.45-1.48,2.51,2.51,0,0,1,1-2.17,4.3,4.3,0,0,1,2.6-.75,6.73,6.73,0,0,1,1.88.27,5.68,5.68,0,0,1,1.65.76l-.85,1.69A6.93,6.93,0,0,0,807,405Z"/><path d="M469.82,152.3H471v11.2h-1.18Z"/><path d="M481.22,155.94a3.62,3.62,0,0,1,.93,2.68v4.88H481v-4.76a2.76,2.76,0,0,0-.66-2,2.46,2.46,0,0,0-1.87-.69,2.85,2.85,0,0,0-2.15.81,3,3,0,0,0-.8,2.23v4.41h-1.13v-8.41h1.09v1.55a3.07,3.07,0,0,1,1.28-1.19,4.06,4.06,0,0,1,1.92-.43A3.47,3.47,0,0,1,481.22,155.94Z"/><path d="M486.91,152.91a1.68,1.68,0,0,0-.37,1.19v1h2.59v1h-2.56v7.45h-1.14v-7.45h-1.5v-1h1.5v-1a2.47,2.47,0,0,1,.67-1.83,2.54,2.54,0,0,1,1.88-.67,3.21,3.21,0,0,1,.92.14,2.05,2.05,0,0,1,.75.39l-.38.85a1.87,1.87,0,0,0-1.25-.42A1.44,1.44,0,0,0,486.91,152.91Z"/><path d="M491.77,163a4,4,0,0,1-1.54-1.53,4.62,4.62,0,0,1,0-4.41,4,4,0,0,1,1.54-1.52,4.64,4.64,0,0,1,4.38,0,3.92,3.92,0,0,1,1.53,1.52,4.7,4.7,0,0,1,0,4.41,4,4,0,0,1-1.53,1.53,4.64,4.64,0,0,1-4.38,0Zm3.8-.86a2.89,2.89,0,0,0,1.11-1.16,3.88,3.88,0,0,0,0-3.43,3,3,0,0,0-1.11-1.16,3.37,3.37,0,0,0-3.22,0,3,3,0,0,0-1.12,1.16,3.79,3.79,0,0,0,0,3.43,2.91,2.91,0,0,0,1.12,1.16,3.44,3.44,0,0,0,3.22,0Z"/><path d="M502.83,155.45a4.15,4.15,0,0,1,2-.43v1.11l-.27,0a2.66,2.66,0,0,0-2.08.82,3.24,3.24,0,0,0-.75,2.29v4.28h-1.14v-8.41h1.09v1.65A2.77,2.77,0,0,1,502.83,155.45Z"/><path d="M519.82,155.93a3.65,3.65,0,0,1,.91,2.69v4.88h-1.14v-4.76a2.84,2.84,0,0,0-.63-2,2.31,2.31,0,0,0-1.79-.69,2.67,2.67,0,0,0-2.06.81,3.13,3.13,0,0,0-.75,2.23v4.41h-1.14v-4.76a2.84,2.84,0,0,0-.63-2,2.31,2.31,0,0,0-1.8-.69,2.7,2.7,0,0,0-2.06.81,3.13,3.13,0,0,0-.75,2.23v4.41h-1.14v-8.41h1.09v1.53a3.06,3.06,0,0,1,1.24-1.18A3.94,3.94,0,0,1,511,155a3.6,3.6,0,0,1,1.83.45A2.81,2.81,0,0,1,514,156.8a3.29,3.29,0,0,1,1.33-1.31,4.18,4.18,0,0,1,2-.47A3.37,3.37,0,0,1,519.82,155.93Z"/><path d="M529.29,155.85a3.21,3.21,0,0,1,.88,2.44v5.21h-1.09v-1.31a2.63,2.63,0,0,1-1.13,1,4,4,0,0,1-1.77.36,3.46,3.46,0,0,1-2.24-.67,2.18,2.18,0,0,1-.83-1.77,2.13,2.13,0,0,1,.78-1.73,3.76,3.76,0,0,1,2.47-.66H529v-.51a2.15,2.15,0,0,0-.61-1.66,2.48,2.48,0,0,0-1.77-.57,4.42,4.42,0,0,0-1.54.27,3.73,3.73,0,0,0-1.26.73l-.52-.85a4.66,4.66,0,0,1,1.54-.84,5.94,5.94,0,0,1,1.89-.3A3.57,3.57,0,0,1,529.29,155.85Zm-1.28,6.4a2.62,2.62,0,0,0,1-1.28V159.6h-2.64q-2.16,0-2.16,1.5a1.38,1.38,0,0,0,.56,1.16,2.51,2.51,0,0,0,1.57.43A3,3,0,0,0,528,162.25Z"/><path d="M534.54,163a3.91,3.91,0,0,1-1.54-1.53,4.64,4.64,0,0,1,0-4.42,4,4,0,0,1,1.54-1.52,4.47,4.47,0,0,1,2.23-.55,4.24,4.24,0,0,1,2,.43,3.17,3.17,0,0,1,1.35,1.24l-.85.57a2.6,2.6,0,0,0-1.05-.93,3.13,3.13,0,0,0-1.4-.32,3.35,3.35,0,0,0-1.64.41,2.93,2.93,0,0,0-1.13,1.16,3.58,3.58,0,0,0-.41,1.72A3.49,3.49,0,0,0,534,161a2.87,2.87,0,0,0,1.13,1.16,3.35,3.35,0,0,0,1.64.4,3.26,3.26,0,0,0,1.4-.3,2.53,2.53,0,0,0,1.05-.93l.85.58a3.2,3.2,0,0,1-1.36,1.24,4.38,4.38,0,0,1-1.94.42A4.57,4.57,0,0,1,534.54,163Z"/><path d="M542.28,153a.78.78,0,0,1-.24-.58.77.77,0,0,1,.24-.56.81.81,0,0,1,.59-.24.84.84,0,0,1,.59.23.76.76,0,0,1,.24.56.83.83,0,0,1-1.42.59Zm0,2.08h1.14v8.41h-1.14Z"/><path d="M547.85,163a4,4,0,0,1-1.54-1.53,4.62,4.62,0,0,1,0-4.41,4,4,0,0,1,1.54-1.52,4.64,4.64,0,0,1,4.38,0,3.92,3.92,0,0,1,1.53,1.52,4.7,4.7,0,0,1,0,4.41,4,4,0,0,1-1.53,1.53,4.64,4.64,0,0,1-4.38,0Zm3.8-.86a2.89,2.89,0,0,0,1.11-1.16,3.88,3.88,0,0,0,0-3.43,3,3,0,0,0-1.11-1.16,3.37,3.37,0,0,0-3.22,0,3,3,0,0,0-1.12,1.16,3.79,3.79,0,0,0,0,3.43,2.91,2.91,0,0,0,1.12,1.16,3.44,3.44,0,0,0,3.22,0Zm-.48-10.38h1.52l-2.59,2H549Z"/><path d="M563.44,155.94a3.62,3.62,0,0,1,.93,2.68v4.88h-1.13v-4.76a2.76,2.76,0,0,0-.66-2,2.46,2.46,0,0,0-1.87-.69,2.86,2.86,0,0,0-2.15.81,3,3,0,0,0-.79,2.23v4.41h-1.14v-8.41h1.09v1.55a3.16,3.16,0,0,1,1.29-1.19,4,4,0,0,1,1.91-.43A3.47,3.47,0,0,1,563.44,155.94Z"/><path d="M147.23,210.53l-2.56-3.6a8.37,8.37,0,0,1-.89,0h-3v3.55h-1.18v-11.2h4.19a5,5,0,0,1,3.36,1,3.47,3.47,0,0,1,1.21,2.81,3.67,3.67,0,0,1-.66,2.22,3.62,3.62,0,0,1-1.9,1.3l2.74,3.84Zm-.94-5.29a2.9,2.9,0,0,0,0-4.16,3.92,3.92,0,0,0-2.54-.72h-3V206h3A3.87,3.87,0,0,0,146.29,205.24Z"/><path d="M158.24,206.68h-7a3,3,0,0,0,1,2.12,3.39,3.39,0,0,0,2.3.8,3.52,3.52,0,0,0,1.44-.28,3.08,3.08,0,0,0,1.14-.82l.64.74a3.71,3.71,0,0,1-1.4,1,4.84,4.84,0,0,1-1.85.35,4.62,4.62,0,0,1-2.29-.55,4,4,0,0,1-1.56-1.53,4.3,4.3,0,0,1-.56-2.21,4.56,4.56,0,0,1,.53-2.2,3.91,3.91,0,0,1,1.47-1.52,4.08,4.08,0,0,1,2.11-.55,4,4,0,0,1,2.09.55,3.79,3.79,0,0,1,1.46,1.51,4.54,4.54,0,0,1,.53,2.21Zm-6.1-2.88a3.1,3.1,0,0,0-.94,2h6a3.05,3.05,0,0,0-.94-2,3.1,3.1,0,0,0-4.09,0Z"/><path d="M168.26,202.12v11.52h-1.14V209a3.49,3.49,0,0,1-1.35,1.24,4,4,0,0,1-1.85.42,4.36,4.36,0,0,1-2.15-.53,4,4,0,0,1-1.5-1.52,4.87,4.87,0,0,1,0-4.46,3.91,3.91,0,0,1,1.51-1.51,4.28,4.28,0,0,1,2.14-.54,4,4,0,0,1,1.9.45,3.46,3.46,0,0,1,1.35,1.28v-1.66Zm-2.65,7.08a3,3,0,0,0,1.12-1.16,3.61,3.61,0,0,0,.41-1.72,3.5,3.5,0,0,0-.41-1.7,3,3,0,0,0-1.12-1.16,3.26,3.26,0,0,0-3.2,0,3,3,0,0,0-1.12,1.16,3.5,3.5,0,0,0-.41,1.7,3.61,3.61,0,0,0,.41,1.72,3,3,0,0,0,1.12,1.16,3.4,3.4,0,0,0,3.2,0Z"/><path d="M179,202.12v8.41h-1.09V209a3.13,3.13,0,0,1-1.23,1.19,3.73,3.73,0,0,1-1.79.42,3.59,3.59,0,0,1-2.6-.92,3.55,3.55,0,0,1-1-2.69v-4.88h1.13v4.76a2.81,2.81,0,0,0,.66,2,2.46,2.46,0,0,0,1.87.69,2.76,2.76,0,0,0,2.1-.81,3.14,3.14,0,0,0,.76-2.25v-4.41Z"/><path d="M189.52,206.68h-7a3,3,0,0,0,1,2.12,3.39,3.39,0,0,0,2.3.8,3.52,3.52,0,0,0,1.44-.28,3.08,3.08,0,0,0,1.14-.82l.64.74a3.71,3.71,0,0,1-1.4,1,4.84,4.84,0,0,1-1.85.35,4.62,4.62,0,0,1-2.29-.55,4,4,0,0,1-1.56-1.53,4.3,4.3,0,0,1-.56-2.21,4.45,4.45,0,0,1,.53-2.2,3.91,3.91,0,0,1,1.47-1.52,4.08,4.08,0,0,1,2.11-.55,4,4,0,0,1,2.09.55,3.79,3.79,0,0,1,1.46,1.51,4.54,4.54,0,0,1,.53,2.21Zm-6.1-2.88a3.1,3.1,0,0,0-.94,2h6a3.05,3.05,0,0,0-.94-2,3.1,3.1,0,0,0-4.09,0Z"/><path d="M194.14,202.48a4.15,4.15,0,0,1,2-.43v1.11l-.27,0a2.66,2.66,0,0,0-2.08.82,3.19,3.19,0,0,0-.76,2.28v4.29h-1.13v-8.41H193v1.64A2.74,2.74,0,0,1,194.14,202.48Z"/><path d="M198.13,200a.8.8,0,0,1-.24-.58.77.77,0,0,1,.24-.56.81.81,0,0,1,.59-.24.82.82,0,0,1,.59.23.75.75,0,0,1,.24.55.81.81,0,0,1-.24.6.79.79,0,0,1-.59.24A.81.81,0,0,1,198.13,200Zm0,2.08h1.13v8.41h-1.13Z"/><path d="M215.43,203a3.65,3.65,0,0,1,.91,2.69v4.88H215.2v-4.77a2.87,2.87,0,0,0-.63-2,2.29,2.29,0,0,0-1.78-.68,2.71,2.71,0,0,0-2.07.8,3.18,3.18,0,0,0-.75,2.24v4.41h-1.14v-4.77a2.87,2.87,0,0,0-.63-2,2.31,2.31,0,0,0-1.8-.68,2.7,2.7,0,0,0-2.05.8,3.14,3.14,0,0,0-.76,2.24v4.41h-1.14v-8.41h1.09v1.53a3,3,0,0,1,1.25-1.18,3.87,3.87,0,0,1,1.84-.42,3.6,3.6,0,0,1,1.83.45,2.76,2.76,0,0,1,1.16,1.33,3.29,3.29,0,0,1,1.33-1.31,4.19,4.19,0,0,1,2-.47A3.36,3.36,0,0,1,215.43,203Z"/><path d="M219.41,200a.8.8,0,0,1-.24-.58.77.77,0,0,1,.24-.56.81.81,0,0,1,.59-.24.82.82,0,0,1,.59.23.75.75,0,0,1,.24.55.81.81,0,0,1-.24.6.79.79,0,0,1-.59.24A.81.81,0,0,1,219.41,200Zm0,2.08h1.13v8.41h-1.13Z"/><path d="M231.06,206.68h-7a3,3,0,0,0,1,2.12,3.35,3.35,0,0,0,2.3.8,3.59,3.59,0,0,0,1.44-.28,3.08,3.08,0,0,0,1.14-.82l.64.74a3.79,3.79,0,0,1-1.4,1,4.84,4.84,0,0,1-1.85.35,4.66,4.66,0,0,1-2.3-.55,4,4,0,0,1-1.56-1.53,4.4,4.4,0,0,1-.56-2.21,4.45,4.45,0,0,1,.54-2.2,3.84,3.84,0,0,1,1.47-1.52,4.28,4.28,0,0,1,4.2,0,3.86,3.86,0,0,1,1.46,1.51,4.54,4.54,0,0,1,.52,2.21ZM225,203.8a3,3,0,0,0-.93,2h6a3.1,3.1,0,0,0-.94-2A2.92,2.92,0,0,0,227,203,2.89,2.89,0,0,0,225,203.8Z"/><path d="M240.2,203a3.57,3.57,0,0,1,.94,2.68v4.88H240v-4.77a2.83,2.83,0,0,0-.65-2,2.48,2.48,0,0,0-1.88-.68,2.91,2.91,0,0,0-2.15.8,3.06,3.06,0,0,0-.79,2.24v4.41h-1.14v-8.41h1.09v1.55a3.16,3.16,0,0,1,1.29-1.19,4,4,0,0,1,1.91-.43A3.44,3.44,0,0,1,240.2,203Z"/><path d="M248.66,210a2.25,2.25,0,0,1-.79.44,3.3,3.3,0,0,1-1,.15,2.23,2.23,0,0,1-2.46-2.45v-5.08h-1.51v-1h1.51v-1.84h1.13v1.84h2.56v1h-2.56v5a1.58,1.58,0,0,0,.38,1.14,1.43,1.43,0,0,0,1.08.4,2,2,0,0,0,.68-.12,1.59,1.59,0,0,0,.57-.32Z"/><path d="M251.66,210.06a4,4,0,0,1-1.53-1.53,4.62,4.62,0,0,1,0-4.41,3.92,3.92,0,0,1,1.53-1.52,4.41,4.41,0,0,1,2.2-.55,4.34,4.34,0,0,1,2.19.55,3.92,3.92,0,0,1,1.53,1.52,4.7,4.7,0,0,1,0,4.41,4,4,0,0,1-1.53,1.53,4.34,4.34,0,0,1-2.19.55A4.41,4.41,0,0,1,251.66,210.06Zm3.8-.86a2.91,2.91,0,0,0,1.12-1.16,3.73,3.73,0,0,0,.4-1.72,3.66,3.66,0,0,0-.4-1.71,2.85,2.85,0,0,0-1.12-1.16,3.35,3.35,0,0,0-3.21,0,2.85,2.85,0,0,0-1.12,1.16,3.54,3.54,0,0,0-.41,1.71,3.61,3.61,0,0,0,.41,1.72,2.91,2.91,0,0,0,1.12,1.16,3.42,3.42,0,0,0,3.21,0Z"/><path d="M260.75,210.32a4.2,4.2,0,0,1-1.47-.75l.51-.89a4.6,4.6,0,0,0,1.33.68,5.45,5.45,0,0,0,1.67.26,3.19,3.19,0,0,0,1.7-.36,1.14,1.14,0,0,0,.55-1,.89.89,0,0,0-.3-.72,2,2,0,0,0-.77-.4,9.92,9.92,0,0,0-1.23-.27,14.67,14.67,0,0,1-1.65-.39,2.43,2.43,0,0,1-1.07-.68,1.9,1.9,0,0,1-.44-1.33,2.11,2.11,0,0,1,.88-1.73,4,4,0,0,1,2.45-.67,6,6,0,0,1,1.63.22,4.22,4.22,0,0,1,1.35.57l-.5.91a4.24,4.24,0,0,0-2.48-.72,2.94,2.94,0,0,0-1.64.38,1.17,1.17,0,0,0-.55,1,1,1,0,0,0,.31.77,2,2,0,0,0,.78.42,11,11,0,0,0,1.28.28,15,15,0,0,1,1.62.39,2.33,2.33,0,0,1,1,.65,1.85,1.85,0,0,1,.43,1.28,2,2,0,0,1-.92,1.75,4.34,4.34,0,0,1-2.55.65A6.64,6.64,0,0,1,260.75,210.32Z"/><path d="M399.64,588.5a2.76,2.76,0,0,1,.6,1.83,2.58,2.58,0,0,1-1.06,2.22,5.29,5.29,0,0,1-3.14.77h-5.16v-11.2h4.84a4.88,4.88,0,0,1,2.9.76,2.46,2.46,0,0,1,1,2.12,2.7,2.7,0,0,1-.45,1.58,2.79,2.79,0,0,1-1.26,1A3,3,0,0,1,399.64,588.5Zm-7.57-5.4v4.06h3.57a3.57,3.57,0,0,0,2.09-.52,1.91,1.91,0,0,0,0-3,3.57,3.57,0,0,0-2.09-.52Zm6.22,8.74a1.8,1.8,0,0,0,.77-1.6c0-1.4-1-2.1-3-2.1h-3.95v4.21H396A4.12,4.12,0,0,0,398.29,591.84Z"/><path d="M402.69,582.83a.78.78,0,0,1-.24-.58.77.77,0,0,1,.24-.56.81.81,0,0,1,.59-.24.85.85,0,0,1,.6.23.76.76,0,0,1,.24.56.84.84,0,0,1-1.43.59Zm0,2.08h1.13v8.41h-1.13Z"/><path d="M414.34,589.47h-7a3,3,0,0,0,1,2.12,3.33,3.33,0,0,0,2.3.81,3.77,3.77,0,0,0,1.44-.28,3.11,3.11,0,0,0,1.14-.83l.64.74a3.58,3.58,0,0,1-1.4,1,5.08,5.08,0,0,1-4.15-.2,4,4,0,0,1-1.56-1.53,4.36,4.36,0,0,1-.56-2.2,4.49,4.49,0,0,1,.54-2.21,3.91,3.91,0,0,1,1.47-1.52,4.17,4.17,0,0,1,2.11-.55,4.1,4.1,0,0,1,2.09.55,3.86,3.86,0,0,1,1.46,1.51,4.58,4.58,0,0,1,.53,2.22Zm-6.1-2.87a3,3,0,0,0-.94,2h6a3.05,3.05,0,0,0-.94-2,3.07,3.07,0,0,0-4.09,0Z"/><path d="M423.48,585.76a3.59,3.59,0,0,1,.94,2.68v4.88h-1.14v-4.76a2.77,2.77,0,0,0-.65-2,2.46,2.46,0,0,0-1.87-.69,2.89,2.89,0,0,0-2.16.81,3.08,3.08,0,0,0-.79,2.23v4.41h-1.13v-8.41h1.08v1.55a3.16,3.16,0,0,1,1.29-1.19,4.17,4.17,0,0,1,1.91-.43A3.44,3.44,0,0,1,423.48,585.76Z"/><path d="M434.87,589.47h-7a3,3,0,0,0,1,2.12,3.31,3.31,0,0,0,2.3.81,3.77,3.77,0,0,0,1.44-.28,3.11,3.11,0,0,0,1.14-.83l.64.74a3.58,3.58,0,0,1-1.4,1,5.08,5.08,0,0,1-4.15-.2,3.89,3.89,0,0,1-1.56-1.53,4.36,4.36,0,0,1-.56-2.2,4.49,4.49,0,0,1,.54-2.21,3.84,3.84,0,0,1,1.47-1.52,4.28,4.28,0,0,1,4.2,0,3.93,3.93,0,0,1,1.46,1.51,4.58,4.58,0,0,1,.52,2.22Zm-6.11-2.87a3,3,0,0,0-.93,2h6a3.05,3.05,0,0,0-.94-2,2.89,2.89,0,0,0-2.06-.78A2.86,2.86,0,0,0,428.76,586.6Z"/><path d="M437.5,593.11a4.24,4.24,0,0,1-1.46-.75l.51-.89a4.25,4.25,0,0,0,1.33.68,5.39,5.39,0,0,0,1.66.26,3.14,3.14,0,0,0,1.7-.36,1.15,1.15,0,0,0,.56-1,.92.92,0,0,0-.31-.73,1.94,1.94,0,0,0-.77-.4,12.17,12.17,0,0,0-1.23-.27,12,12,0,0,1-1.65-.39,2.39,2.39,0,0,1-1.06-.68,1.9,1.9,0,0,1-.44-1.33,2.05,2.05,0,0,1,.88-1.72,3.94,3.94,0,0,1,2.45-.68,6.53,6.53,0,0,1,1.63.22,4.26,4.26,0,0,1,1.34.57l-.49.91a4.26,4.26,0,0,0-2.48-.72,2.92,2.92,0,0,0-1.64.38,1.18,1.18,0,0,0-.55,1,1,1,0,0,0,.31.77,1.91,1.91,0,0,0,.77.42,9.57,9.57,0,0,0,1.28.28,14.45,14.45,0,0,1,1.62.39,2.51,2.51,0,0,1,1,.65,1.8,1.8,0,0,1,.43,1.28,2.06,2.06,0,0,1-.92,1.76,4.37,4.37,0,0,1-2.55.64A6.37,6.37,0,0,1,437.5,593.11Z"/><path d="M456.29,584.91l-4.21,9.42A4,4,0,0,1,450.9,596a2.67,2.67,0,0,1-1.62.5,3.48,3.48,0,0,1-1.13-.19,2.41,2.41,0,0,1-.91-.58l.52-.85a2.09,2.09,0,0,0,1.54.64,1.5,1.5,0,0,0,1-.32,2.69,2.69,0,0,0,.76-1.09l.37-.81-3.76-8.4h1.19l3.16,7.15,3.17-7.15Z"/><path d="M390.42,612.31a4.24,4.24,0,0,1-1.46-.75l.51-.89a4.25,4.25,0,0,0,1.33.68,5.39,5.39,0,0,0,1.66.26,3.14,3.14,0,0,0,1.7-.36,1.15,1.15,0,0,0,.56-1,.92.92,0,0,0-.31-.73,1.94,1.94,0,0,0-.77-.4,12.17,12.17,0,0,0-1.23-.27,12,12,0,0,1-1.65-.39,2.39,2.39,0,0,1-1.06-.68,1.9,1.9,0,0,1-.44-1.33,2.05,2.05,0,0,1,.88-1.72,3.94,3.94,0,0,1,2.45-.68,6.53,6.53,0,0,1,1.63.22,4.26,4.26,0,0,1,1.34.57l-.49.91a4.26,4.26,0,0,0-2.48-.72,2.92,2.92,0,0,0-1.64.38,1.18,1.18,0,0,0-.55,1,1,1,0,0,0,.31.77,1.91,1.91,0,0,0,.77.42,9.57,9.57,0,0,0,1.28.28,14.45,14.45,0,0,1,1.62.39,2.45,2.45,0,0,1,1,.65,1.8,1.8,0,0,1,.43,1.28,2,2,0,0,1-.92,1.76,4.37,4.37,0,0,1-2.55.64A6.37,6.37,0,0,1,390.42,612.31Z"/><path d="M405.28,608.67h-7a3,3,0,0,0,1,2.12,3.36,3.36,0,0,0,2.31.81,3.77,3.77,0,0,0,1.44-.28,3.07,3.07,0,0,0,1.13-.83l.64.74a3.51,3.51,0,0,1-1.4,1,4.61,4.61,0,0,1-1.84.35,4.66,4.66,0,0,1-2.3-.55,3.89,3.89,0,0,1-1.56-1.53,4.36,4.36,0,0,1-.56-2.2,4.49,4.49,0,0,1,.54-2.21,3.77,3.77,0,0,1,1.47-1.52,4.28,4.28,0,0,1,4.2,0,3.83,3.83,0,0,1,1.45,1.51,4.47,4.47,0,0,1,.53,2.22Zm-6.11-2.87a3,3,0,0,0-.93,2h6a3,3,0,0,0-.93-2,2.89,2.89,0,0,0-2.06-.78A2.86,2.86,0,0,0,399.17,605.8Z"/><path d="M409.89,604.48a4,4,0,0,1,2-.44v1.11l-.27,0a2.66,2.66,0,0,0-2.08.82,3.26,3.26,0,0,0-.75,2.29v4.28h-1.14v-8.41h1.09v1.65A2.7,2.7,0,0,1,409.89,604.48Z"/><path d="M421.34,604.11l-3.74,8.41h-1.17l-3.73-8.41h1.18l3.16,7.17,3.18-7.17Z"/><path d="M422.92,602a.78.78,0,0,1-.24-.58.77.77,0,0,1,.24-.56.81.81,0,0,1,.6-.24.84.84,0,0,1,.59.23.76.76,0,0,1,.24.56.84.84,0,0,1-1.43.59Zm0,2.08h1.14v8.41h-1.14Z"/><path d="M428.5,612.06a3.84,3.84,0,0,1-1.54-1.53,4.64,4.64,0,0,1,0-4.42,3.88,3.88,0,0,1,1.54-1.52,4.58,4.58,0,0,1,2.23-.55,4.4,4.4,0,0,1,1.95.43,3.17,3.17,0,0,1,1.35,1.24l-.85.57a2.71,2.71,0,0,0-1.06-.93,3.08,3.08,0,0,0-1.39-.31,3.32,3.32,0,0,0-1.64.4A2.93,2.93,0,0,0,428,606.6a3.5,3.5,0,0,0-.41,1.72A3.45,3.45,0,0,0,428,610a2.91,2.91,0,0,0,1.13,1.15,3.33,3.33,0,0,0,1.64.41,3.08,3.08,0,0,0,1.39-.31,2.56,2.56,0,0,0,1.06-.93l.85.58a3.26,3.26,0,0,1-1.36,1.24,4.38,4.38,0,0,1-1.94.42A4.57,4.57,0,0,1,428.5,612.06Z"/><path d="M436.24,602a.78.78,0,0,1-.24-.58.77.77,0,0,1,.24-.56.79.79,0,0,1,.59-.24.84.84,0,0,1,.59.23.76.76,0,0,1,.24.56.82.82,0,0,1-.83.83A.79.79,0,0,1,436.24,602Zm0,2.08h1.14v8.41h-1.14Z"/><path d="M441.8,612.05a4,4,0,0,1-1.53-1.53,4.62,4.62,0,0,1,0-4.41,3.92,3.92,0,0,1,1.53-1.52,4.66,4.66,0,0,1,4.39,0,3.92,3.92,0,0,1,1.53,1.52,4.7,4.7,0,0,1,0,4.41,4,4,0,0,1-1.53,1.53,4.66,4.66,0,0,1-4.39,0Zm3.8-.86a2.85,2.85,0,0,0,1.12-1.16,3.66,3.66,0,0,0,.4-1.71,3.73,3.73,0,0,0-.4-1.72,2.91,2.91,0,0,0-1.12-1.16,3.42,3.42,0,0,0-3.21,0,2.91,2.91,0,0,0-1.12,1.16,3.61,3.61,0,0,0-.41,1.72,3.54,3.54,0,0,0,.41,1.71,2.85,2.85,0,0,0,1.12,1.16,3.35,3.35,0,0,0,3.21,0Z"/><path d="M450.88,612.31a4.24,4.24,0,0,1-1.46-.75l.51-.89a4.37,4.37,0,0,0,1.33.68,5.44,5.44,0,0,0,1.66.26,3.2,3.2,0,0,0,1.71-.36,1.14,1.14,0,0,0,.55-1,.91.91,0,0,0-.3-.73,2,2,0,0,0-.77-.4,12.17,12.17,0,0,0-1.23-.27,11.28,11.28,0,0,1-1.65-.39,2.43,2.43,0,0,1-1.07-.68,1.9,1.9,0,0,1-.44-1.33,2.08,2.08,0,0,1,.88-1.72,4,4,0,0,1,2.45-.68,6.46,6.46,0,0,1,1.63.22,4.22,4.22,0,0,1,1.35.57l-.5.91a4.24,4.24,0,0,0-2.48-.72,2.94,2.94,0,0,0-1.64.38,1.18,1.18,0,0,0-.55,1,1,1,0,0,0,.31.77,2,2,0,0,0,.78.42,9.22,9.22,0,0,0,1.28.28,14.2,14.2,0,0,1,1.61.39,2.39,2.39,0,0,1,1,.65,1.81,1.81,0,0,1,.44,1.28,2.06,2.06,0,0,1-.92,1.76,4.43,4.43,0,0,1-2.56.64A6.42,6.42,0,0,1,450.88,612.31Z"/><path d="M642.74,152.3h1.18v11.2h-1.18Z"/><path d="M654.14,155.94a3.63,3.63,0,0,1,.94,2.68v4.88h-1.14v-4.76a2.76,2.76,0,0,0-.66-2,2.45,2.45,0,0,0-1.87-.69,2.86,2.86,0,0,0-2.15.81,3,3,0,0,0-.79,2.23v4.41h-1.14v-8.41h1.09v1.55a3.16,3.16,0,0,1,1.29-1.19,4,4,0,0,1,1.91-.43A3.44,3.44,0,0,1,654.14,155.94Z"/><path d="M659.84,152.91a1.64,1.64,0,0,0-.38,1.19v1h2.59v1h-2.56v7.45h-1.13v-7.45h-1.51v-1h1.51v-1a2.5,2.5,0,0,1,.66-1.83,2.55,2.55,0,0,1,1.88-.67,3.22,3.22,0,0,1,.93.14,2.05,2.05,0,0,1,.75.39l-.38.85a1.89,1.89,0,0,0-1.25-.42A1.44,1.44,0,0,0,659.84,152.91Z"/><path d="M664.69,163a4,4,0,0,1-1.53-1.53,4.62,4.62,0,0,1,0-4.41,3.92,3.92,0,0,1,1.53-1.52,4.34,4.34,0,0,1,2.19-.55,4.41,4.41,0,0,1,2.2.55,3.83,3.83,0,0,1,1.52,1.52,4.62,4.62,0,0,1,0,4.41,3.92,3.92,0,0,1-1.52,1.53,4.41,4.41,0,0,1-2.2.55A4.34,4.34,0,0,1,664.69,163Zm3.8-.86A2.76,2.76,0,0,0,669.6,161a3.88,3.88,0,0,0,0-3.43,2.82,2.82,0,0,0-1.11-1.16,3.35,3.35,0,0,0-3.21,0,2.91,2.91,0,0,0-1.12,1.16,3.79,3.79,0,0,0,0,3.43,2.85,2.85,0,0,0,1.12,1.16,3.42,3.42,0,0,0,3.21,0Z"/><path d="M675.76,155.45a4.12,4.12,0,0,1,2-.43v1.11l-.28,0a2.68,2.68,0,0,0-2.08.82,3.24,3.24,0,0,0-.75,2.29v4.28h-1.13v-8.41h1.08v1.65A2.79,2.79,0,0,1,675.76,155.45Z"/><path d="M692.75,155.93a3.69,3.69,0,0,1,.9,2.69v4.88h-1.13v-4.76a2.84,2.84,0,0,0-.64-2,2.28,2.28,0,0,0-1.78-.69,2.66,2.66,0,0,0-2.06.81,3.09,3.09,0,0,0-.76,2.23v4.41h-1.13v-4.76a2.84,2.84,0,0,0-.63-2,2.34,2.34,0,0,0-1.8-.69,2.69,2.69,0,0,0-2.06.81,3.09,3.09,0,0,0-.76,2.23v4.41h-1.14v-8.41h1.09v1.53a3.09,3.09,0,0,1,1.25-1.18,3.9,3.9,0,0,1,1.84-.42,3.6,3.6,0,0,1,1.83.45,2.71,2.71,0,0,1,1.16,1.33,3.32,3.32,0,0,1,1.34-1.31,4.15,4.15,0,0,1,2-.47A3.4,3.4,0,0,1,692.75,155.93Z"/><path d="M702.21,155.85a3.17,3.17,0,0,1,.88,2.44v5.21H702v-1.31a2.58,2.58,0,0,1-1.13,1,4,4,0,0,1-1.76.36,3.44,3.44,0,0,1-2.24-.67,2.15,2.15,0,0,1-.83-1.77,2.13,2.13,0,0,1,.77-1.73,3.78,3.78,0,0,1,2.47-.66H702v-.51a2.18,2.18,0,0,0-.61-1.66,2.52,2.52,0,0,0-1.78-.57,4.4,4.4,0,0,0-1.53.27,3.68,3.68,0,0,0-1.27.73l-.51-.85a4.71,4.71,0,0,1,1.53-.84,5.94,5.94,0,0,1,1.89-.3A3.57,3.57,0,0,1,702.21,155.85Zm-1.28,6.4a2.69,2.69,0,0,0,1-1.28V159.6h-2.65q-2.16,0-2.16,1.5a1.37,1.37,0,0,0,.57,1.16,2.47,2.47,0,0,0,1.56.43A3,3,0,0,0,700.93,162.25Z"/><path d="M707.47,163a3.93,3.93,0,0,1-1.55-1.53,4.64,4.64,0,0,1,0-4.42,4,4,0,0,1,1.55-1.52,4.44,4.44,0,0,1,2.23-.55,4.23,4.23,0,0,1,1.94.43,3.25,3.25,0,0,1,1.36,1.24l-.85.57a2.63,2.63,0,0,0-1.06-.93,3.12,3.12,0,0,0-1.39-.32,3.3,3.3,0,0,0-1.64.41,2.89,2.89,0,0,0-1.14,1.16,3.58,3.58,0,0,0-.4,1.72,3.48,3.48,0,0,0,.4,1.71,2.83,2.83,0,0,0,1.14,1.16,3.29,3.29,0,0,0,1.64.4,3.24,3.24,0,0,0,1.39-.3,2.56,2.56,0,0,0,1.06-.93l.85.58a3.32,3.32,0,0,1-1.36,1.24,4.41,4.41,0,0,1-1.94.42A4.54,4.54,0,0,1,707.47,163Z"/><path d="M715.2,153a.78.78,0,0,1-.24-.58.77.77,0,0,1,.24-.56.81.81,0,0,1,.59-.24.85.85,0,0,1,.6.23.76.76,0,0,1,.24.56.84.84,0,0,1-1.43.59Zm0,2.08h1.13v8.41h-1.13Z"/><path d="M720.77,163a4.11,4.11,0,0,1-1.54-1.53,4.62,4.62,0,0,1,0-4.41,4,4,0,0,1,1.54-1.52,4.64,4.64,0,0,1,4.38,0,3.86,3.86,0,0,1,1.53,1.52,4.7,4.7,0,0,1,0,4.41,4,4,0,0,1-1.53,1.53,4.64,4.64,0,0,1-4.38,0Zm3.8-.86a2.76,2.76,0,0,0,1.11-1.16,3.88,3.88,0,0,0,0-3.43,2.82,2.82,0,0,0-1.11-1.16A3.19,3.19,0,0,0,723,156a3.24,3.24,0,0,0-1.61.41,3,3,0,0,0-1.12,1.16,3.88,3.88,0,0,0,0,3.43,3,3,0,0,0,1.12,1.16,3.23,3.23,0,0,0,1.61.4A3.18,3.18,0,0,0,724.57,162.17Zm-.47-10.38h1.52l-2.59,2h-1.12Z"/><path d="M736.36,155.94a3.59,3.59,0,0,1,.94,2.68v4.88h-1.14v-4.76a2.8,2.8,0,0,0-.65-2,2.47,2.47,0,0,0-1.88-.69,2.88,2.88,0,0,0-2.15.81,3,3,0,0,0-.79,2.23v4.41h-1.14v-8.41h1.09v1.55a3.16,3.16,0,0,1,1.29-1.19,4,4,0,0,1,1.91-.43A3.44,3.44,0,0,1,736.36,155.94Z"/><path d="M628.32,310.39a2.73,2.73,0,0,1,.6,1.83,2.59,2.59,0,0,1-1.07,2.22,5.32,5.32,0,0,1-3.14.77h-5.15V304h4.83a4.82,4.82,0,0,1,2.91.76,2.49,2.49,0,0,1,1,2.12,2.63,2.63,0,0,1-.46,1.58,2.77,2.77,0,0,1-1.25,1A3,3,0,0,1,628.32,310.39Zm-7.58-5.4v4.06h3.57a3.58,3.58,0,0,0,2.1-.52,1.93,1.93,0,0,0,0-3,3.58,3.58,0,0,0-2.1-.52Zm6.23,8.74a1.8,1.8,0,0,0,.76-1.6c0-1.4-1-2.1-3-2.1h-4v4.21h4A4.14,4.14,0,0,0,627,313.73Z"/><path d="M631.37,304.72a.78.78,0,0,1-.24-.58.77.77,0,0,1,.24-.56.79.79,0,0,1,.59-.24.84.84,0,0,1,.59.23.76.76,0,0,1,.24.56.82.82,0,0,1-.83.83A.79.79,0,0,1,631.37,304.72Zm0,2.08h1.14v8.41h-1.14Z"/><path d="M643,311.36h-7a3,3,0,0,0,1,2.12,3.36,3.36,0,0,0,2.31.81,3.77,3.77,0,0,0,1.44-.28,3.28,3.28,0,0,0,1.13-.83l.64.74a3.51,3.51,0,0,1-1.4,1,5.05,5.05,0,0,1-4.14-.2,4,4,0,0,1-1.56-1.53,4.36,4.36,0,0,1-.56-2.2,4.57,4.57,0,0,1,.53-2.21,3.86,3.86,0,0,1,1.48-1.52,4.28,4.28,0,0,1,4.2,0,3.77,3.77,0,0,1,1.45,1.51A4.55,4.55,0,0,1,643,311Zm-6.11-2.87a3,3,0,0,0-.93,2h6a3,3,0,0,0-.93-2,2.89,2.89,0,0,0-2.06-.78A2.86,2.86,0,0,0,636.91,308.49Z"/><path d="M652.16,307.65a3.62,3.62,0,0,1,.93,2.68v4.88H652v-4.76a2.76,2.76,0,0,0-.66-2,2.45,2.45,0,0,0-1.87-.69,2.86,2.86,0,0,0-2.15.81,3,3,0,0,0-.79,2.23v4.41h-1.14V306.8h1.09v1.55a3.16,3.16,0,0,1,1.29-1.19,4,4,0,0,1,1.91-.43A3.47,3.47,0,0,1,652.16,307.65Z"/><path d="M663.54,311.36h-7a3,3,0,0,0,1,2.12,3.35,3.35,0,0,0,2.3.81,3.7,3.7,0,0,0,1.44-.28,3.22,3.22,0,0,0,1.14-.83l.64.74a3.51,3.51,0,0,1-1.4,1,5.05,5.05,0,0,1-4.14-.2,4,4,0,0,1-1.56-1.53,4.26,4.26,0,0,1-.56-2.2,4.57,4.57,0,0,1,.53-2.21,3.91,3.91,0,0,1,1.47-1.52,4.08,4.08,0,0,1,2.11-.55,4,4,0,0,1,2.09.55,3.79,3.79,0,0,1,1.46,1.51,4.55,4.55,0,0,1,.53,2.22Zm-6.1-2.87a3.05,3.05,0,0,0-.94,2h6a3,3,0,0,0-.94-2,3.07,3.07,0,0,0-4.09,0Z"/><path d="M666.17,315a4.24,4.24,0,0,1-1.46-.75l.51-.89a4.6,4.6,0,0,0,1.33.68,5.44,5.44,0,0,0,1.66.26,3.2,3.2,0,0,0,1.71-.36,1.14,1.14,0,0,0,.55-1,.91.91,0,0,0-.3-.73,2,2,0,0,0-.77-.4,12.17,12.17,0,0,0-1.23-.27,12.75,12.75,0,0,1-1.65-.39,2.43,2.43,0,0,1-1.07-.68,1.9,1.9,0,0,1-.44-1.33,2.08,2.08,0,0,1,.88-1.72,4,4,0,0,1,2.45-.68A6.46,6.46,0,0,1,670,307a4.22,4.22,0,0,1,1.35.57l-.5.91a4.24,4.24,0,0,0-2.48-.72,2.94,2.94,0,0,0-1.64.38,1.18,1.18,0,0,0-.55,1,1,1,0,0,0,.31.77,2,2,0,0,0,.78.42,11,11,0,0,0,1.28.28,14.2,14.2,0,0,1,1.61.39,2.3,2.3,0,0,1,1,.65,1.81,1.81,0,0,1,.44,1.28,2.06,2.06,0,0,1-.92,1.76,4.43,4.43,0,0,1-2.56.64A6.74,6.74,0,0,1,666.17,315Z"/><path d="M685,306.8l-4.21,9.42a4,4,0,0,1-1.19,1.68,2.62,2.62,0,0,1-1.61.5,3.49,3.49,0,0,1-1.14-.19,2.49,2.49,0,0,1-.91-.58l.53-.85a2.07,2.07,0,0,0,1.53.64,1.57,1.57,0,0,0,1-.32,2.9,2.9,0,0,0,.76-1.09l.37-.81-3.76-8.4h1.18l3.17,7.15,3.17-7.15Z"/><path d="M619.1,334.2a4.2,4.2,0,0,1-1.47-.75l.51-.89a4.74,4.74,0,0,0,1.33.68,5.45,5.45,0,0,0,1.67.26,3.19,3.19,0,0,0,1.7-.36,1.14,1.14,0,0,0,.55-1,.91.91,0,0,0-.3-.73,2,2,0,0,0-.77-.4,12.17,12.17,0,0,0-1.23-.27,12.75,12.75,0,0,1-1.65-.39,2.43,2.43,0,0,1-1.07-.68,1.9,1.9,0,0,1-.44-1.33,2.08,2.08,0,0,1,.88-1.72,4,4,0,0,1,2.45-.68,6.46,6.46,0,0,1,1.63.22,4.22,4.22,0,0,1,1.35.57l-.5.91a4.24,4.24,0,0,0-2.48-.72,2.94,2.94,0,0,0-1.64.38,1.21,1.21,0,0,0-.55,1,1,1,0,0,0,.31.77,2,2,0,0,0,.78.42,11,11,0,0,0,1.28.28,15,15,0,0,1,1.62.39,2.42,2.42,0,0,1,1,.65,1.85,1.85,0,0,1,.43,1.28,2.06,2.06,0,0,1-.92,1.76,4.41,4.41,0,0,1-2.55.64A6.64,6.64,0,0,1,619.1,334.2Z"/><path d="M634,330.56h-7a3,3,0,0,0,1,2.12,3.33,3.33,0,0,0,2.3.81,3.7,3.7,0,0,0,1.44-.28,3.22,3.22,0,0,0,1.14-.83l.64.74a3.51,3.51,0,0,1-1.4,1,5.08,5.08,0,0,1-4.15-.2,4.09,4.09,0,0,1-1.56-1.53,4.36,4.36,0,0,1-.56-2.2,4.47,4.47,0,0,1,.54-2.21,3.91,3.91,0,0,1,1.47-1.52,4.08,4.08,0,0,1,2.11-.55,4,4,0,0,1,2.09.55,3.79,3.79,0,0,1,1.46,1.51,4.55,4.55,0,0,1,.53,2.22Zm-6.1-2.87a3.05,3.05,0,0,0-.94,2h6a3.05,3.05,0,0,0-.94-2,3.07,3.07,0,0,0-4.09,0Z"/><path d="M638.57,326.37a4,4,0,0,1,2-.44V327l-.28,0a2.69,2.69,0,0,0-2.08.82,3.24,3.24,0,0,0-.75,2.29v4.28h-1.13V326h1.08v1.65A2.72,2.72,0,0,1,638.57,326.37Z"/><path d="M650,326l-3.74,8.41H645.1L641.37,326h1.19l3.15,7.17,3.18-7.17Z"/><path d="M651.6,323.92a.78.78,0,0,1-.24-.58.77.77,0,0,1,.24-.56.81.81,0,0,1,.59-.24.82.82,0,0,1,.59.23.76.76,0,0,1,.24.56.81.81,0,0,1-.24.59.79.79,0,0,1-.59.24A.81.81,0,0,1,651.6,323.92Zm0,2.08h1.14v8.41h-1.14Z"/><path d="M657.17,334a3.91,3.91,0,0,1-1.54-1.53,4.64,4.64,0,0,1,0-4.42,4,4,0,0,1,1.54-1.52,4.48,4.48,0,0,1,2.24-.55,4.23,4.23,0,0,1,1.94.43,3.17,3.17,0,0,1,1.35,1.24l-.85.57a2.61,2.61,0,0,0-1.05-.93,3.11,3.11,0,0,0-1.39-.31,3.29,3.29,0,0,0-1.64.4,2.89,2.89,0,0,0-1.14,1.16,3.81,3.81,0,0,0,0,3.44,2.87,2.87,0,0,0,1.14,1.15,3.3,3.3,0,0,0,1.64.41,3.25,3.25,0,0,0,1.39-.31,2.47,2.47,0,0,0,1.05-.93l.85.58a3.2,3.2,0,0,1-1.36,1.24,4.34,4.34,0,0,1-1.93.42A4.58,4.58,0,0,1,657.17,334Z"/><path d="M664.91,323.92a.78.78,0,0,1-.24-.58.77.77,0,0,1,.24-.56.81.81,0,0,1,.59-.24.82.82,0,0,1,.59.23.76.76,0,0,1,.24.56.81.81,0,0,1-.24.59.79.79,0,0,1-.59.24A.81.81,0,0,1,664.91,323.92Zm0,2.08h1.13v8.41h-1.13Z"/><path d="M670.48,333.94a4.11,4.11,0,0,1-1.54-1.53,4.62,4.62,0,0,1,0-4.41,4,4,0,0,1,1.54-1.52,4.64,4.64,0,0,1,4.38,0,3.92,3.92,0,0,1,1.53,1.52,4.7,4.7,0,0,1,0,4.41,4,4,0,0,1-1.53,1.53,4.64,4.64,0,0,1-4.38,0Zm3.8-.86a2.89,2.89,0,0,0,1.11-1.16,3.54,3.54,0,0,0,.4-1.71,3.58,3.58,0,0,0-.4-1.72,3,3,0,0,0-1.11-1.16,3.44,3.44,0,0,0-3.22,0,3,3,0,0,0-1.12,1.16,3.58,3.58,0,0,0-.41,1.72,3.54,3.54,0,0,0,.41,1.71,2.91,2.91,0,0,0,1.12,1.16,3.37,3.37,0,0,0,3.22,0Z"/><path d="M679.56,334.2a4.29,4.29,0,0,1-1.47-.75l.52-.89a4.54,4.54,0,0,0,1.32.68,5.5,5.5,0,0,0,1.67.26,3.16,3.16,0,0,0,1.7-.36,1.14,1.14,0,0,0,.55-1,.91.91,0,0,0-.3-.73,1.94,1.94,0,0,0-.77-.4,12.17,12.17,0,0,0-1.23-.27,13.62,13.62,0,0,1-1.65-.39,2.39,2.39,0,0,1-1.06-.68,1.86,1.86,0,0,1-.44-1.33,2.05,2.05,0,0,1,.88-1.72,3.92,3.92,0,0,1,2.45-.68,6.59,6.59,0,0,1,1.63.22,4.26,4.26,0,0,1,1.34.57l-.49.91a4.26,4.26,0,0,0-2.48-.72,2.9,2.9,0,0,0-1.64.38,1.2,1.2,0,0,0-.56,1,1,1,0,0,0,.32.77,1.85,1.85,0,0,0,.77.42,11.46,11.46,0,0,0,1.28.28,15,15,0,0,1,1.62.39,2.42,2.42,0,0,1,1,.65,1.8,1.8,0,0,1,.43,1.28,2.06,2.06,0,0,1-.92,1.76,4.37,4.37,0,0,1-2.55.64A6.69,6.69,0,0,1,679.56,334.2Z"/><path class="cls-6" d="M563.89,71a6,6,0,0,1-2.36-2.29,6.7,6.7,0,0,1,0-6.57,6,6,0,0,1,2.37-2.29,6.8,6.8,0,0,1,3.38-.83,7,7,0,0,1,2.59.46,5.49,5.49,0,0,1,2,1.37l-.85.85a5,5,0,0,0-3.72-1.5,5.42,5.42,0,0,0-2.72.69,5,5,0,0,0-1.92,1.87,5.49,5.49,0,0,0,0,5.33A5,5,0,0,0,564.6,70a5.41,5.41,0,0,0,2.72.68A4.93,4.93,0,0,0,571,69.15l.85.85a5.47,5.47,0,0,1-2,1.38,7.11,7.11,0,0,1-2.6.47A6.76,6.76,0,0,1,563.89,71Z"/><path class="cls-6" d="M575.45,71.21a4.47,4.47,0,0,1-1.73-1.72,5.2,5.2,0,0,1,0-5,4.44,4.44,0,0,1,1.73-1.71,5.21,5.21,0,0,1,4.93,0,4.29,4.29,0,0,1,1.72,1.71,5.27,5.27,0,0,1,0,5,4.31,4.31,0,0,1-1.72,1.72,5.21,5.21,0,0,1-4.93,0Zm4.28-1a3.2,3.2,0,0,0,1.25-1.3,4.36,4.36,0,0,0,0-3.86,3.26,3.26,0,0,0-1.25-1.3,3.79,3.79,0,0,0-3.62,0,3.22,3.22,0,0,0-1.26,1.3,4.28,4.28,0,0,0,0,3.86,3.16,3.16,0,0,0,1.26,1.3,3.79,3.79,0,0,0,3.62,0Z"/><path class="cls-6" d="M599.94,63.23a4.1,4.1,0,0,1,1,3v5.49h-1.28V66.38a3.25,3.25,0,0,0-.71-2.25,2.61,2.61,0,0,0-2-.77,3,3,0,0,0-2.32.91,3.55,3.55,0,0,0-.85,2.51v5h-1.27V66.38a3.2,3.2,0,0,0-.72-2.25,2.61,2.61,0,0,0-2-.77,3,3,0,0,0-2.31.91,3.51,3.51,0,0,0-.86,2.51v5h-1.28V62.28h1.23V64a3.45,3.45,0,0,1,1.4-1.33A4.45,4.45,0,0,1,590,62.2a4,4,0,0,1,2.06.51,3.09,3.09,0,0,1,1.31,1.49,3.7,3.7,0,0,1,1.5-1.46,4.56,4.56,0,0,1,2.24-.54A3.78,3.78,0,0,1,599.94,63.23Z"/><path class="cls-6" d="M611.72,62.81a4.25,4.25,0,0,1,1.69,1.7,5.39,5.39,0,0,1,0,5,4.29,4.29,0,0,1-1.68,1.7,4.85,4.85,0,0,1-2.42.6,4.45,4.45,0,0,1-2.08-.47,4,4,0,0,1-1.52-1.4v5.28h-1.28v-13h1.23v1.87a3.89,3.89,0,0,1,1.52-1.44,4.41,4.41,0,0,1,2.13-.51A4.88,4.88,0,0,1,611.72,62.81Zm-.7,7.43a3.24,3.24,0,0,0,1.27-1.3,4.08,4.08,0,0,0,.46-1.93,4,4,0,0,0-.46-1.92,3.38,3.38,0,0,0-1.27-1.3,3.7,3.7,0,0,0-3.61,0,3.42,3.42,0,0,0-1.26,1.3,3.9,3.9,0,0,0-.46,1.92,4,4,0,0,0,.46,1.93,3.29,3.29,0,0,0,1.26,1.3,3.77,3.77,0,0,0,3.61,0Z"/><path class="cls-6" d="M624.88,67.41H617a3.37,3.37,0,0,0,1.13,2.38,3.76,3.76,0,0,0,2.59.91,4.15,4.15,0,0,0,1.63-.31,3.51,3.51,0,0,0,1.27-.93l.72.83a4,4,0,0,1-1.57,1.15,5.39,5.39,0,0,1-2.08.39,5.19,5.19,0,0,1-2.58-.62,4.41,4.41,0,0,1-1.76-1.72,4.87,4.87,0,0,1-.63-2.48,5.08,5.08,0,0,1,.6-2.48,4.4,4.4,0,0,1,1.66-1.71,4.82,4.82,0,0,1,4.73,0,4.24,4.24,0,0,1,1.63,1.7,5,5,0,0,1,.6,2.49ZM618,64.18a3.39,3.39,0,0,0-1,2.27h6.71a3.39,3.39,0,0,0-1-2.27,3.46,3.46,0,0,0-4.61,0Z"/><path class="cls-6" d="M632.49,71.17a2.39,2.39,0,0,1-.89.49,3.38,3.38,0,0,1-1.1.17,2.79,2.79,0,0,1-2.06-.71,2.76,2.76,0,0,1-.72-2V63.36H626V62.28h1.69V60.21H629v2.07h2.88v1.08H629V69a1.82,1.82,0,0,0,.42,1.29,1.64,1.64,0,0,0,1.22.44,2.17,2.17,0,0,0,.76-.13,1.75,1.75,0,0,0,.64-.36Z"/><path class="cls-6" d="M642.72,67.41H634.8a3.37,3.37,0,0,0,1.13,2.38,3.74,3.74,0,0,0,2.59.91,4.07,4.07,0,0,0,1.62-.31,3.55,3.55,0,0,0,1.28-.93l.72.83a4,4,0,0,1-1.57,1.15,5.43,5.43,0,0,1-2.08.39,5.22,5.22,0,0,1-2.59-.62,4.39,4.39,0,0,1-1.75-1.72,4.87,4.87,0,0,1-.63-2.48,5.08,5.08,0,0,1,.6-2.48,4.34,4.34,0,0,1,1.66-1.71,4.59,4.59,0,0,1,2.36-.62,4.54,4.54,0,0,1,2.36.62,4.26,4.26,0,0,1,1.64,1.7,5,5,0,0,1,.59,2.49Zm-6.87-3.23a3.39,3.39,0,0,0-1.05,2.27h6.71a3.39,3.39,0,0,0-1-2.27,3.22,3.22,0,0,0-2.32-.88A3.19,3.19,0,0,0,635.85,64.18Z"/><path class="cls-6" d="M653,63.24a4,4,0,0,1,1.06,3v5.49h-1.28V66.38a3.16,3.16,0,0,0-.74-2.25,2.79,2.79,0,0,0-2.11-.77,3.23,3.23,0,0,0-2.42.91,3.43,3.43,0,0,0-.89,2.51v5h-1.28V62.28h1.23V64A3.61,3.61,0,0,1,648,62.68a4.6,4.6,0,0,1,2.15-.48A3.85,3.85,0,0,1,653,63.24Z"/><path class="cls-6" d="M659,71.22a4.43,4.43,0,0,1-1.74-1.72,5.22,5.22,0,0,1,0-5A4.4,4.4,0,0,1,659,62.82a5.08,5.08,0,0,1,2.51-.62,4.83,4.83,0,0,1,2.19.48,3.6,3.6,0,0,1,1.52,1.4l-1,.64a3.05,3.05,0,0,0-1.18-1,3.81,3.81,0,0,0-3.41.11,3.2,3.2,0,0,0-1.28,1.3,4.3,4.3,0,0,0,0,3.87,3.18,3.18,0,0,0,1.28,1.29,3.64,3.64,0,0,0,1.84.46,3.6,3.6,0,0,0,1.57-.34,2.9,2.9,0,0,0,1.18-1l1,.65a3.63,3.63,0,0,1-1.53,1.4,4.87,4.87,0,0,1-2.18.47A5.07,5.07,0,0,1,659,71.22Z"/><path class="cls-6" d="M667.68,59.94a.89.89,0,0,1-.27-.65.86.86,0,0,1,.27-.63.9.9,0,0,1,.67-.27.93.93,0,0,1,.66.26.83.83,0,0,1,.27.62.92.92,0,0,1-.27.67,1,1,0,0,1-1.33,0Zm0,2.34H669v9.46H667.7Z"/><path class="cls-6" d="M678.7,63.13a3.6,3.6,0,0,1,1,2.75v5.86h-1.23V70.27a2.88,2.88,0,0,1-1.26,1.15,4.42,4.42,0,0,1-2,.41,3.9,3.9,0,0,1-2.52-.75,2.6,2.6,0,0,1-.07-3.94,4.3,4.3,0,0,1,2.78-.74h3v-.58a2.45,2.45,0,0,0-.68-1.86,2.83,2.83,0,0,0-2-.64,5,5,0,0,0-1.73.3,4.31,4.31,0,0,0-1.42.82l-.58-1a5.06,5.06,0,0,1,1.73-.94,6.77,6.77,0,0,1,2.12-.34A4,4,0,0,1,678.7,63.13Zm-1.44,7.2a3,3,0,0,0,1.15-1.43V67.35h-3c-1.62,0-2.43.57-2.43,1.69a1.55,1.55,0,0,0,.63,1.31,2.85,2.85,0,0,0,1.76.48A3.4,3.4,0,0,0,677.26,70.33Z"/><rect class="cls-8" x="336.42" y="235.95" width="241.8" height="43.8" rx="2"/><path class="cls-9" d="M369.92,255.49a3.49,3.49,0,0,1-1.44,3,6.87,6.87,0,0,1-4.11,1.05h-1.63v5.06h-1.61V251.75h3.59C368.19,251.75,369.92,253,369.92,255.49Zm-7.18,2.77h1.45a5.71,5.71,0,0,0,3.1-.64,2.31,2.31,0,0,0,1-2.06,2.16,2.16,0,0,0-.9-1.9,5.06,5.06,0,0,0-2.81-.62h-1.8Z"/><path class="cls-9" d="M377.33,254.79a6.81,6.81,0,0,1,1.25.1l-.22,1.36a5.61,5.61,0,0,0-1.14-.13,2.87,2.87,0,0,0-2.16.94,3.33,3.33,0,0,0-.9,2.37v5.17h-1.57V255h1.3l.18,1.79h.07a4.43,4.43,0,0,1,1.4-1.45A3.3,3.3,0,0,1,377.33,254.79Z"/><path class="cls-9" d="M389.5,259.77a5.08,5.08,0,0,1-1.28,3.68,4.72,4.72,0,0,1-3.54,1.32,5,5,0,0,1-2.48-.6,4.18,4.18,0,0,1-1.67-1.74,5.76,5.76,0,0,1-.59-2.66,5.1,5.1,0,0,1,1.27-3.67,4.72,4.72,0,0,1,3.53-1.31,4.59,4.59,0,0,1,3.47,1.34A5,5,0,0,1,389.5,259.77Zm-7.93,0a4.32,4.32,0,0,0,.8,2.81,2.84,2.84,0,0,0,2.34,1,2.87,2.87,0,0,0,2.35-1,4.27,4.27,0,0,0,.8-2.82,4.22,4.22,0,0,0-.8-2.79,2.92,2.92,0,0,0-2.36-1,2.87,2.87,0,0,0-2.34.94A4.29,4.29,0,0,0,381.57,259.77Z"/><path class="cls-9" d="M396.41,264.77a4.6,4.6,0,0,1-3.49-1.29,5,5,0,0,1-1.24-3.64,5.18,5.18,0,0,1,1.26-3.73,4.69,4.69,0,0,1,3.58-1.32,7.63,7.63,0,0,1,1.5.15,4.85,4.85,0,0,1,1.17.35l-.48,1.24a7.27,7.27,0,0,0-1.14-.32,5.09,5.09,0,0,0-1.09-.13q-3.17,0-3.17,3.74a4.25,4.25,0,0,0,.77,2.73,2.8,2.8,0,0,0,2.3.95A7.61,7.61,0,0,0,399,263v1.29A6,6,0,0,1,396.41,264.77Z"/><path class="cls-9" d="M405.9,264.77a5,5,0,0,1-3.64-1.3,4.81,4.81,0,0,1-1.33-3.61,5.29,5.29,0,0,1,1.24-3.7,4.22,4.22,0,0,1,3.32-1.37,4.06,4.06,0,0,1,3.1,1.19,4.34,4.34,0,0,1,1.14,3.14V260h-7.17a3.64,3.64,0,0,0,.93,2.58,3.36,3.36,0,0,0,2.47.88,9,9,0,0,0,3.32-.65v1.3a9.34,9.34,0,0,1-1.58.48A10.28,10.28,0,0,1,405.9,264.77Zm-.42-8.76a2.66,2.66,0,0,0-2,.76,3.32,3.32,0,0,0-.88,2.09H408a3,3,0,0,0-.67-2.12A2.41,2.41,0,0,0,405.48,256Z"/><path class="cls-9" d="M419.12,262A2.34,2.34,0,0,1,418,264a5.36,5.36,0,0,1-3,.73,7.08,7.08,0,0,1-3.22-.6v-1.36a8.17,8.17,0,0,0,1.6.56,7.59,7.59,0,0,0,1.66.2,3.93,3.93,0,0,0,1.9-.37,1.21,1.21,0,0,0,.14-2.07,8.87,8.87,0,0,0-2.06-.95,11.2,11.2,0,0,1-2.06-.87,2.68,2.68,0,0,1-.91-.85,2,2,0,0,1-.3-1.13,2.1,2.1,0,0,1,1-1.86,5.08,5.08,0,0,1,2.84-.68,8.89,8.89,0,0,1,3.28.63l-.56,1.19a8,8,0,0,0-2.83-.6,3.57,3.57,0,0,0-1.69.32,1,1,0,0,0-.57.9,1,1,0,0,0,.21.66,2.13,2.13,0,0,0,.69.52,16.13,16.13,0,0,0,1.82.71,7.06,7.06,0,0,1,2.5,1.26A2.13,2.13,0,0,1,419.12,262Z"/><path class="cls-9" d="M430.66,259.77a5.08,5.08,0,0,1-1.28,3.68,4.72,4.72,0,0,1-3.54,1.32,5,5,0,0,1-2.48-.6,4.18,4.18,0,0,1-1.67-1.74,5.76,5.76,0,0,1-.59-2.66,5.1,5.1,0,0,1,1.27-3.67,4.72,4.72,0,0,1,3.53-1.31,4.58,4.58,0,0,1,3.47,1.34A5,5,0,0,1,430.66,259.77Zm-7.92,0a4.32,4.32,0,0,0,.79,2.81,3.33,3.33,0,0,0,4.69,0,4.27,4.27,0,0,0,.81-2.82,4.22,4.22,0,0,0-.81-2.79,2.92,2.92,0,0,0-2.36-1,2.88,2.88,0,0,0-2.34.94A4.29,4.29,0,0,0,422.74,259.77Z"/><path class="cls-9" d="M440.13,262a2.34,2.34,0,0,1-1.08,2.07,5.38,5.38,0,0,1-3,.73,7.15,7.15,0,0,1-3.23-.6v-1.36a8.27,8.27,0,0,0,1.61.56,7.52,7.52,0,0,0,1.66.2,4,4,0,0,0,1.9-.37,1.2,1.2,0,0,0,.13-2.07,8.53,8.53,0,0,0-2.05-.95,10.9,10.9,0,0,1-2.06-.87,2.72,2.72,0,0,1-.92-.85,2,2,0,0,1-.29-1.13,2.1,2.1,0,0,1,1-1.86,5.06,5.06,0,0,1,2.84-.68,8.89,8.89,0,0,1,3.28.63l-.56,1.19a8,8,0,0,0-2.84-.6,3.59,3.59,0,0,0-1.69.32,1,1,0,0,0-.57.9,1,1,0,0,0,.22.66,2.13,2.13,0,0,0,.69.52,16.13,16.13,0,0,0,1.82.71,7.16,7.16,0,0,1,2.5,1.26A2.13,2.13,0,0,1,440.13,262Z"/><path class="cls-9" d="M452.13,264.77a5,5,0,0,1-3.64-1.3,4.81,4.81,0,0,1-1.33-3.61,5.29,5.29,0,0,1,1.24-3.7,4.22,4.22,0,0,1,3.32-1.37,4.06,4.06,0,0,1,3.1,1.19,4.34,4.34,0,0,1,1.14,3.14V260h-7.17a3.64,3.64,0,0,0,.93,2.58,3.36,3.36,0,0,0,2.47.88,9,9,0,0,0,3.32-.65v1.3a9.34,9.34,0,0,1-1.58.48A10.28,10.28,0,0,1,452.13,264.77ZM451.7,256a2.64,2.64,0,0,0-2,.76,3.32,3.32,0,0,0-.88,2.09h5.44a3.08,3.08,0,0,0-.67-2.12A2.41,2.41,0,0,0,451.7,256Z"/><path class="cls-9" d="M465.35,262a2.34,2.34,0,0,1-1.08,2.07,5.38,5.38,0,0,1-3,.73,7.15,7.15,0,0,1-3.23-.6v-1.36a8.27,8.27,0,0,0,1.61.56,7.52,7.52,0,0,0,1.66.2,4,4,0,0,0,1.9-.37,1.2,1.2,0,0,0,.13-2.07,8.53,8.53,0,0,0-2.05-.95,10.9,10.9,0,0,1-2.06-.87,2.72,2.72,0,0,1-.92-.85,2.13,2.13,0,0,1-.29-1.13,2.1,2.1,0,0,1,1-1.86,5.08,5.08,0,0,1,2.84-.68,8.89,8.89,0,0,1,3.28.63l-.56,1.19a8,8,0,0,0-2.84-.6,3.59,3.59,0,0,0-1.69.32,1,1,0,0,0-.56.9,1,1,0,0,0,.21.66,2.13,2.13,0,0,0,.69.52,16.13,16.13,0,0,0,1.82.71,7.06,7.06,0,0,1,2.5,1.26A2.13,2.13,0,0,1,465.35,262Z"/><path class="cls-9" d="M471.27,263.57a5.32,5.32,0,0,0,.81-.06,6,6,0,0,0,.61-.12v1.12a3.34,3.34,0,0,1-.75.19,6,6,0,0,1-.9.07c-2,0-3-1-3-2.94V256.1h-1.49v-.71l1.49-.6.67-2.06h.91V255h3v1.14h-3v5.67a1.83,1.83,0,0,0,.45,1.33A1.6,1.6,0,0,0,471.27,263.57Z"/><path class="cls-9" d="M479.52,254.79a6.7,6.7,0,0,1,1.24.1l-.22,1.36a5.61,5.61,0,0,0-1.14-.13,2.87,2.87,0,0,0-2.16.94,3.33,3.33,0,0,0-.89,2.37v5.17h-1.58V255h1.3l.18,1.79h.08a4.31,4.31,0,0,1,1.39-1.45A3.33,3.33,0,0,1,479.52,254.79Z"/><path class="cls-9" d="M489.1,264.6l-.31-1.37h-.08a4.34,4.34,0,0,1-1.55,1.22,5,5,0,0,1-1.93.32,3.64,3.64,0,0,1-2.43-.74,2.6,2.6,0,0,1-.87-2.1c0-1.94,1.67-3,5-3.06l1.77-.05v-.6a2.32,2.32,0,0,0-.53-1.67,2.26,2.26,0,0,0-1.68-.54,7.3,7.3,0,0,0-2.94.74l-.49-1.12a7.34,7.34,0,0,1,1.69-.6,7.63,7.63,0,0,1,1.83-.22,4.19,4.19,0,0,1,2.76.76,3.05,3.05,0,0,1,.9,2.45v6.58Zm-3.56-1a3.34,3.34,0,0,0,2.31-.75,2.65,2.65,0,0,0,.84-2.09v-.87l-1.57.06a6.05,6.05,0,0,0-2.71.54,1.59,1.59,0,0,0-.83,1.49,1.47,1.47,0,0,0,.51,1.21A2.31,2.31,0,0,0,485.54,263.57Z"/><path class="cls-9" d="M496.87,263.57a5.32,5.32,0,0,0,.81-.06,6,6,0,0,0,.61-.12v1.12a3.34,3.34,0,0,1-.75.19,6,6,0,0,1-.9.07c-2,0-3-1-3-2.94V256.1h-1.48v-.71l1.48-.6.67-2.06h.91V255h3v1.14h-3v5.67a1.83,1.83,0,0,0,.45,1.33A1.6,1.6,0,0,0,496.87,263.57Z"/><path class="cls-9" d="M504.76,264.77a5,5,0,0,1-3.63-1.3,4.81,4.81,0,0,1-1.34-3.61,5.34,5.34,0,0,1,1.24-3.7,4.24,4.24,0,0,1,3.33-1.37,4.05,4.05,0,0,1,3.09,1.19,4.34,4.34,0,0,1,1.14,3.14V260h-7.17a3.68,3.68,0,0,0,.93,2.58,3.36,3.36,0,0,0,2.47.88,9,9,0,0,0,3.32-.65v1.3a9.07,9.07,0,0,1-1.58.48A10.12,10.12,0,0,1,504.76,264.77Zm-.42-8.76a2.66,2.66,0,0,0-2,.76,3.32,3.32,0,0,0-.88,2.09h5.44a3,3,0,0,0-.67-2.12A2.41,2.41,0,0,0,504.34,256Zm-1.17-2.54a16.24,16.24,0,0,0,1-1.32,13.92,13.92,0,0,0,.83-1.34h1.92V251a13.81,13.81,0,0,1-1.24,1.41,14.46,14.46,0,0,1-1.44,1.29h-1.05Z"/><path class="cls-9" d="M519.78,255v.93l-1.92.21a3,3,0,0,1,.68,1.92,2.76,2.76,0,0,1-1,2.26,4.46,4.46,0,0,1-2.87.84,4.79,4.79,0,0,1-.87-.07c-.67.33-1,.75-1,1.24a.63.63,0,0,0,.35.59,2.88,2.88,0,0,0,1.21.19h1.84a4.38,4.38,0,0,1,2.6.66,2.21,2.21,0,0,1,.9,1.91,2.69,2.69,0,0,1-1.38,2.44,7.92,7.92,0,0,1-4,.84,5.85,5.85,0,0,1-3.14-.7,2.23,2.23,0,0,1-1.11-2,2.17,2.17,0,0,1,.61-1.52,3.14,3.14,0,0,1,1.71-.87,1.55,1.55,0,0,1-.67-.52,1.28,1.28,0,0,1-.27-.82,1.49,1.49,0,0,1,.3-.92,3.15,3.15,0,0,1,1-.76,2.8,2.8,0,0,1-1.31-1.05,2.88,2.88,0,0,1-.51-1.69,3,3,0,0,1,1-2.44,4.45,4.45,0,0,1,2.91-.85,6.06,6.06,0,0,1,1.47.17Zm-8.29,11.25a1.29,1.29,0,0,0,.71,1.19,4.22,4.22,0,0,0,2,.4,6.17,6.17,0,0,0,2.94-.54,1.67,1.67,0,0,0,1-1.49,1.14,1.14,0,0,0-.52-1.09,4.37,4.37,0,0,0-2-.3h-1.89a2.59,2.59,0,0,0-1.67.47A1.64,1.64,0,0,0,511.49,266.21Zm.86-8.16a1.9,1.9,0,0,0,.61,1.53,2.63,2.63,0,0,0,1.72.52c1.54,0,2.31-.69,2.31-2.08s-.78-2.17-2.34-2.17a2.43,2.43,0,0,0-1.71.56A2.1,2.1,0,0,0,512.35,258.05Z"/><path class="cls-9" d="M521.79,252.35a.9.9,0,0,1,.26-.73,1,1,0,0,1,.67-.23,1,1,0,0,1,.65.23,1.1,1.1,0,0,1,0,1.47,1,1,0,0,1-.65.24,1,1,0,0,1-.67-.24A.94.94,0,0,1,521.79,252.35Zm1.7,12.25h-1.57V255h1.57Z"/><path class="cls-9" d="M531,264.77a4.63,4.63,0,0,1-3.5-1.29,5,5,0,0,1-1.23-3.64,5.18,5.18,0,0,1,1.25-3.73,4.72,4.72,0,0,1,3.59-1.32,7.61,7.61,0,0,1,1.49.15,5,5,0,0,1,1.18.35l-.48,1.24a7.27,7.27,0,0,0-1.14-.32,5.17,5.17,0,0,0-1.09-.13c-2.12,0-3.17,1.25-3.17,3.74a4.25,4.25,0,0,0,.77,2.73,2.8,2.8,0,0,0,2.29.95,7.62,7.62,0,0,0,2.67-.52v1.29A6,6,0,0,1,531,264.77Z"/><path class="cls-9" d="M545.06,259.77a5,5,0,0,1-1.28,3.68,4.69,4.69,0,0,1-3.54,1.32,5,5,0,0,1-2.47-.6,4.12,4.12,0,0,1-1.67-1.74,5.64,5.64,0,0,1-.59-2.66,5.06,5.06,0,0,1,1.27-3.67,4.7,4.7,0,0,1,3.53-1.31,4.61,4.61,0,0,1,3.47,1.34A5.08,5.08,0,0,1,545.06,259.77Zm-7.92,0a4.26,4.26,0,0,0,.8,2.81,2.84,2.84,0,0,0,2.34,1,2.9,2.9,0,0,0,2.35-1,4.33,4.33,0,0,0,.8-2.82,4.28,4.28,0,0,0-.8-2.79,3,3,0,0,0-2.37-1,2.85,2.85,0,0,0-2.33.94A4.23,4.23,0,0,0,537.14,259.77Z"/><path class="cls-9" d="M554.53,262a2.34,2.34,0,0,1-1.08,2.07,5.36,5.36,0,0,1-3,.73,7.08,7.08,0,0,1-3.22-.6v-1.36a8,8,0,0,0,1.61.56,7.43,7.43,0,0,0,1.65.2,3.93,3.93,0,0,0,1.9-.37,1.21,1.21,0,0,0,.14-2.07,8.66,8.66,0,0,0-2.06-.95,11.2,11.2,0,0,1-2.06-.87,2.68,2.68,0,0,1-.91-.85,2,2,0,0,1-.3-1.13,2.1,2.1,0,0,1,1-1.86,5.08,5.08,0,0,1,2.84-.68,8.89,8.89,0,0,1,3.28.63l-.56,1.19a8,8,0,0,0-2.83-.6,3.57,3.57,0,0,0-1.69.32,1,1,0,0,0-.57.9,1,1,0,0,0,.21.66,2.13,2.13,0,0,0,.69.52,17,17,0,0,0,1.82.71,7.06,7.06,0,0,1,2.5,1.26A2.13,2.13,0,0,1,554.53,262Z"/><rect class="cls-8" x="336.42" y="335.18" width="241.8" height="43.8" rx="2"/><path class="cls-9" d="M376.7,353.33a3.49,3.49,0,0,1-1.44,3,6.89,6.89,0,0,1-4.11,1.05h-1.64v5.05H367.9V349.58h3.6C375,349.58,376.7,350.83,376.7,353.33Zm-7.19,2.77H371a5.83,5.83,0,0,0,3.1-.64,2.31,2.31,0,0,0,1-2.06,2.16,2.16,0,0,0-.9-1.9,5,5,0,0,0-2.81-.62h-1.81Z"/><path class="cls-9" d="M384.11,352.63a6.7,6.7,0,0,1,1.24.1l-.22,1.35A6.42,6.42,0,0,0,384,354a2.88,2.88,0,0,0-2.16.95,3.34,3.34,0,0,0-.89,2.37v5.16h-1.58V352.8h1.3l.18,1.79h.08a4.31,4.31,0,0,1,1.39-1.45A3.36,3.36,0,0,1,384.11,352.63Z"/><path class="cls-9" d="M396.27,357.61a5,5,0,0,1-1.28,3.68,4.69,4.69,0,0,1-3.54,1.32A4.89,4.89,0,0,1,389,362a4,4,0,0,1-1.67-1.74,5.57,5.57,0,0,1-.59-2.65,5.06,5.06,0,0,1,1.27-3.67,4.66,4.66,0,0,1,3.53-1.31A4.57,4.57,0,0,1,395,354,5.08,5.08,0,0,1,396.27,357.61Zm-7.92,0a4.26,4.26,0,0,0,.8,2.81,2.84,2.84,0,0,0,2.34,1,2.9,2.9,0,0,0,2.35-1,4.35,4.35,0,0,0,.8-2.82,4.24,4.24,0,0,0-.8-2.79,2.93,2.93,0,0,0-2.37-1,2.88,2.88,0,0,0-2.33.94A4.28,4.28,0,0,0,388.35,357.61Z"/><path class="cls-9" d="M403.19,362.61a4.63,4.63,0,0,1-3.5-1.29,5.06,5.06,0,0,1-1.24-3.64,5.21,5.21,0,0,1,1.26-3.74,4.71,4.71,0,0,1,3.58-1.31,8.46,8.46,0,0,1,1.5.14,5,5,0,0,1,1.18.36l-.48,1.24a8.52,8.52,0,0,0-1.14-.33,5.91,5.91,0,0,0-1.09-.12c-2.12,0-3.17,1.25-3.17,3.74a4.21,4.21,0,0,0,.77,2.73,2.78,2.78,0,0,0,2.29.95,7.62,7.62,0,0,0,2.67-.52v1.29A6.14,6.14,0,0,1,403.19,362.61Z"/><path class="cls-9" d="M412.68,362.61a5,5,0,0,1-3.64-1.3,4.81,4.81,0,0,1-1.33-3.61,5.32,5.32,0,0,1,1.23-3.7,4.26,4.26,0,0,1,3.33-1.37,4.05,4.05,0,0,1,3.09,1.19A4.34,4.34,0,0,1,416.5,357v.92h-7.16a3.68,3.68,0,0,0,.92,2.58,3.37,3.37,0,0,0,2.47.88,8.9,8.9,0,0,0,3.33-.66V362a8.66,8.66,0,0,1-1.58.47A9.32,9.32,0,0,1,412.68,362.61Zm-.43-8.76a2.71,2.71,0,0,0-2,.75,3.34,3.34,0,0,0-.87,2.09h5.43a3,3,0,0,0-.66-2.11A2.43,2.43,0,0,0,412.25,353.85Z"/><path class="cls-9" d="M425.89,359.81a2.36,2.36,0,0,1-1.08,2.07,5.34,5.34,0,0,1-3,.73,7,7,0,0,1-3.23-.61v-1.35a8.25,8.25,0,0,0,1.61.55,6.91,6.91,0,0,0,1.65.21,4,4,0,0,0,1.9-.37,1.2,1.2,0,0,0,.14-2.07,8.74,8.74,0,0,0-2.05-1,11.37,11.37,0,0,1-2.07-.87,2.68,2.68,0,0,1-.91-.85,2.21,2.21,0,0,1,.74-3,5,5,0,0,1,2.83-.68,8.94,8.94,0,0,1,3.29.63l-.56,1.18a8.24,8.24,0,0,0-2.84-.59,3.57,3.57,0,0,0-1.69.32,1,1,0,0,0-.57.9,1,1,0,0,0,.22.66,2.19,2.19,0,0,0,.68.52,17.93,17.93,0,0,0,1.82.71,6.81,6.81,0,0,1,2.51,1.26A2.13,2.13,0,0,1,425.89,359.81Z"/><path class="cls-9" d="M437.43,357.61a5,5,0,0,1-1.28,3.68,4.69,4.69,0,0,1-3.54,1.32,4.89,4.89,0,0,1-2.47-.61,4.07,4.07,0,0,1-1.67-1.74,5.57,5.57,0,0,1-.59-2.65,5.06,5.06,0,0,1,1.27-3.67,4.66,4.66,0,0,1,3.53-1.31,4.57,4.57,0,0,1,3.47,1.34A5.08,5.08,0,0,1,437.43,357.61Zm-7.92,0a4.32,4.32,0,0,0,.8,2.81,2.84,2.84,0,0,0,2.34,1,2.9,2.9,0,0,0,2.35-1,4.35,4.35,0,0,0,.8-2.82,4.24,4.24,0,0,0-.8-2.79,2.91,2.91,0,0,0-2.37-1,2.88,2.88,0,0,0-2.33.94A4.28,4.28,0,0,0,429.51,357.61Z"/><path class="cls-9" d="M446.9,359.81a2.36,2.36,0,0,1-1.08,2.07,5.36,5.36,0,0,1-3,.73,7,7,0,0,1-3.22-.61v-1.35a8,8,0,0,0,1.61.55,6.91,6.91,0,0,0,1.65.21,4,4,0,0,0,1.9-.37,1.18,1.18,0,0,0,.66-1.11,1.16,1.16,0,0,0-.52-1,8.66,8.66,0,0,0-2.06-1,11.52,11.52,0,0,1-2.06-.87,2.68,2.68,0,0,1-.91-.85,2.22,2.22,0,0,1,.73-3,5.08,5.08,0,0,1,2.84-.68,8.85,8.85,0,0,1,3.28.63l-.56,1.18a8.15,8.15,0,0,0-2.83-.59,3.57,3.57,0,0,0-1.69.32,1,1,0,0,0-.57.9,1,1,0,0,0,.21.66,2.25,2.25,0,0,0,.69.52,17,17,0,0,0,1.82.71,6.66,6.66,0,0,1,2.5,1.26A2.1,2.1,0,0,1,446.9,359.81Z"/><path class="cls-9" d="M463.49,357.61a5.08,5.08,0,0,1-1.28,3.68,4.72,4.72,0,0,1-3.54,1.32,4.93,4.93,0,0,1-2.48-.61,4.07,4.07,0,0,1-1.67-1.74,5.69,5.69,0,0,1-.59-2.65,5.06,5.06,0,0,1,1.28-3.67,4.65,4.65,0,0,1,3.53-1.31A4.54,4.54,0,0,1,462.2,354,5,5,0,0,1,463.49,357.61Zm-7.92,0a4.32,4.32,0,0,0,.79,2.81,2.86,2.86,0,0,0,2.35,1,2.9,2.9,0,0,0,2.35-1,4.35,4.35,0,0,0,.8-2.82,4.24,4.24,0,0,0-.8-2.79,3.39,3.39,0,0,0-4.71,0A4.34,4.34,0,0,0,455.57,357.61Z"/><path class="cls-9" d="M471.09,362.61a4.85,4.85,0,0,1-1.86-.35,3.28,3.28,0,0,1-1.4-1.07h-.12a11.51,11.51,0,0,1,.12,1.6v4h-1.58v-14h1.28l.22,1.32h.08a3.47,3.47,0,0,1,1.41-1.14,4.49,4.49,0,0,1,1.85-.35,4,4,0,0,1,3.19,1.3,5.49,5.49,0,0,1,1.13,3.68,5.42,5.42,0,0,1-1.15,3.69A4,4,0,0,1,471.09,362.61Zm-.23-8.75a2.91,2.91,0,0,0-2.3.82,3.94,3.94,0,0,0-.73,2.6v.33a4.51,4.51,0,0,0,.73,2.9,2.84,2.84,0,0,0,2.34.88,2.5,2.5,0,0,0,2.11-1,4.55,4.55,0,0,0,.76-2.79,4.34,4.34,0,0,0-.76-2.76A2.59,2.59,0,0,0,470.86,353.86Z"/><path class="cls-9" d="M482.55,362.61a5,5,0,0,1-3.64-1.3,4.81,4.81,0,0,1-1.33-3.61,5.27,5.27,0,0,1,1.24-3.7,4.22,4.22,0,0,1,3.32-1.37,4.06,4.06,0,0,1,3.1,1.19,4.34,4.34,0,0,1,1.14,3.14v.92h-7.17a3.64,3.64,0,0,0,.93,2.58,3.36,3.36,0,0,0,2.47.88,8.85,8.85,0,0,0,3.32-.66V362a8.43,8.43,0,0,1-1.58.47A9.32,9.32,0,0,1,482.55,362.61Zm-.43-8.76a2.67,2.67,0,0,0-2,.75,3.35,3.35,0,0,0-.88,2.09h5.44a3.05,3.05,0,0,0-.67-2.11A2.41,2.41,0,0,0,482.12,353.85Z"/><path class="cls-9" d="M493.81,352.63a6.7,6.7,0,0,1,1.24.1l-.22,1.35a6.42,6.42,0,0,0-1.14-.13,2.88,2.88,0,0,0-2.16.95,3.29,3.29,0,0,0-.89,2.37v5.16h-1.58V352.8h1.3l.18,1.79h.08a4.22,4.22,0,0,1,1.39-1.45A3.33,3.33,0,0,1,493.81,352.63Z"/><path class="cls-9" d="M503.39,362.43l-.31-1.37H503a4.38,4.38,0,0,1-1.55,1.23,5.16,5.16,0,0,1-1.93.32,3.69,3.69,0,0,1-2.43-.74,2.6,2.6,0,0,1-.87-2.1c0-1.94,1.67-3,5-3.06l1.77,0v-.6a2.32,2.32,0,0,0-.53-1.67,2.26,2.26,0,0,0-1.68-.54,7.14,7.14,0,0,0-2.94.74l-.49-1.12a7.85,7.85,0,0,1,1.69-.61,8.17,8.17,0,0,1,1.83-.22,4.19,4.19,0,0,1,2.76.77,3,3,0,0,1,.9,2.45v6.57Zm-3.56-1a3.34,3.34,0,0,0,2.31-.75,2.66,2.66,0,0,0,.84-2.09v-.87l-1.57.06a6.05,6.05,0,0,0-2.71.54,1.58,1.58,0,0,0-.83,1.49,1.44,1.44,0,0,0,.51,1.2A2.26,2.26,0,0,0,499.83,361.41Z"/><path class="cls-9" d="M511.16,361.41a5.32,5.32,0,0,0,.81-.06,6,6,0,0,0,.61-.12v1.12a2.93,2.93,0,0,1-.75.18,6.11,6.11,0,0,1-.9.08c-2,0-3-1-3-2.94v-5.74h-1.49v-.7l1.49-.6.67-2.06h.91v2.23h3v1.13h-3v5.67a1.86,1.86,0,0,0,.45,1.34A1.6,1.6,0,0,0,511.16,361.41Z"/><path class="cls-9" d="M514.53,350.19a.94.94,0,0,1,.26-.73,1,1,0,0,1,.67-.24,1,1,0,0,1,.65.24,1.09,1.09,0,0,1,0,1.46.91.91,0,0,1-.65.25.93.93,0,0,1-.67-.25A1,1,0,0,1,514.53,350.19Zm1.71,12.24h-1.58V352.8h1.58Z"/><path class="cls-9" d="M521.85,362.43l-3.94-9.63h1.68l2.24,5.71a25.88,25.88,0,0,1,.9,2.61h.07a17.58,17.58,0,0,1,.66-1.93q.56-1.47,2.49-6.39h1.69l-3.95,9.63Z"/><path class="cls-9" d="M538.29,357.61a5.08,5.08,0,0,1-1.28,3.68,4.72,4.72,0,0,1-3.54,1.32A4.93,4.93,0,0,1,531,362a4.07,4.07,0,0,1-1.67-1.74,5.69,5.69,0,0,1-.59-2.65,5.1,5.1,0,0,1,1.27-3.67,4.68,4.68,0,0,1,3.53-1.31A4.56,4.56,0,0,1,537,354,5,5,0,0,1,538.29,357.61Zm-7.93,0a4.32,4.32,0,0,0,.8,2.81,2.84,2.84,0,0,0,2.34,1,2.87,2.87,0,0,0,2.35-1,4.29,4.29,0,0,0,.81-2.82,4.18,4.18,0,0,0-.81-2.79,3.38,3.38,0,0,0-4.7,0A4.34,4.34,0,0,0,530.36,357.61Z"/><path class="cls-9" d="M547.76,359.81a2.36,2.36,0,0,1-1.08,2.07,5.4,5.4,0,0,1-3,.73,7,7,0,0,1-3.23-.61v-1.35a8.25,8.25,0,0,0,1.61.55,7,7,0,0,0,1.66.21,4,4,0,0,0,1.89-.37,1.2,1.2,0,0,0,.14-2.07,8.53,8.53,0,0,0-2.05-1,11.37,11.37,0,0,1-2.07-.87,2.78,2.78,0,0,1-.91-.85,2.21,2.21,0,0,1,.74-3,5.06,5.06,0,0,1,2.84-.68,8.89,8.89,0,0,1,3.28.63l-.56,1.18a8.24,8.24,0,0,0-2.84-.59,3.57,3.57,0,0,0-1.69.32,1,1,0,0,0-.57.9,1,1,0,0,0,.22.66,2.19,2.19,0,0,0,.68.52,17.43,17.43,0,0,0,1.83.71,6.83,6.83,0,0,1,2.5,1.26A2.13,2.13,0,0,1,547.76,359.81Z"/><rect class="cls-8" x="336.42" y="434.42" width="241.8" height="43.8" rx="2"/><path class="cls-9" d="M375.5,452.56a3.51,3.51,0,0,1-1.44,3,6.89,6.89,0,0,1-4.11,1.05h-1.64v5.05H366.7V448.82h3.6C373.76,448.82,375.5,450.07,375.5,452.56Zm-7.19,2.77h1.46a5.74,5.74,0,0,0,3.1-.64,2.29,2.29,0,0,0,1-2.06,2.13,2.13,0,0,0-.9-1.89,5,5,0,0,0-2.81-.63h-1.81Z"/><path class="cls-9" d="M382.91,451.86a6.65,6.65,0,0,1,1.24.11l-.22,1.35a5.61,5.61,0,0,0-1.14-.13,2.85,2.85,0,0,0-2.16.95,3.33,3.33,0,0,0-.89,2.36v5.17h-1.58V452h1.3l.18,1.78h.08a4.31,4.31,0,0,1,1.39-1.45A3.36,3.36,0,0,1,382.91,451.86Z"/><path class="cls-9" d="M395.07,456.84a5.08,5.08,0,0,1-1.28,3.68,4.7,4.7,0,0,1-3.54,1.33,5.06,5.06,0,0,1-2.48-.61,4.25,4.25,0,0,1-1.67-1.74,5.73,5.73,0,0,1-.58-2.66,5.06,5.06,0,0,1,1.27-3.67,4.7,4.7,0,0,1,3.53-1.31,4.58,4.58,0,0,1,3.47,1.35A5,5,0,0,1,395.07,456.84Zm-7.92,0a4.31,4.31,0,0,0,.8,2.82,2.86,2.86,0,0,0,2.34,1,2.9,2.9,0,0,0,2.35-1,4.33,4.33,0,0,0,.8-2.82,4.28,4.28,0,0,0-.8-2.79,3,3,0,0,0-2.37-.95,2.85,2.85,0,0,0-2.33.94A4.25,4.25,0,0,0,387.15,456.84Z"/><path class="cls-9" d="M402,461.85a4.63,4.63,0,0,1-3.5-1.29,5.09,5.09,0,0,1-1.24-3.65,5.18,5.18,0,0,1,1.26-3.73,4.71,4.71,0,0,1,3.58-1.32,7.63,7.63,0,0,1,1.5.15,5.65,5.65,0,0,1,1.18.35l-.48,1.24a8.54,8.54,0,0,0-1.14-.32,6,6,0,0,0-1.09-.13c-2.12,0-3.17,1.25-3.17,3.75a4.18,4.18,0,0,0,.77,2.72,2.78,2.78,0,0,0,2.29.95,7.4,7.4,0,0,0,2.67-.52v1.29A6,6,0,0,1,402,461.85Z"/><path class="cls-9" d="M411.48,461.85a5,5,0,0,1-3.64-1.31,4.79,4.79,0,0,1-1.33-3.61,5.35,5.35,0,0,1,1.23-3.7,4.29,4.29,0,0,1,3.33-1.37,4.09,4.09,0,0,1,3.09,1.19,4.36,4.36,0,0,1,1.14,3.14v.93h-7.16a3.64,3.64,0,0,0,.92,2.57,3.33,3.33,0,0,0,2.47.88,9.09,9.09,0,0,0,3.33-.65v1.3a9.62,9.62,0,0,1-1.58.48A9.32,9.32,0,0,1,411.48,461.85Zm-.43-8.77a2.68,2.68,0,0,0-2,.76,3.32,3.32,0,0,0-.87,2.09h5.43a3,3,0,0,0-.66-2.11A2.43,2.43,0,0,0,411.05,453.08Z"/><path class="cls-9" d="M424.69,459a2.37,2.37,0,0,1-1.08,2.08,5.43,5.43,0,0,1-3,.73,7.11,7.11,0,0,1-3.23-.61v-1.35a9,9,0,0,0,1.61.55,7.43,7.43,0,0,0,1.65.2,4,4,0,0,0,1.9-.36,1.21,1.21,0,0,0,.14-2.08,8.82,8.82,0,0,0-2-.94,12,12,0,0,1-2.07-.88,2.68,2.68,0,0,1-.91-.85,2,2,0,0,1-.3-1.13,2.14,2.14,0,0,1,1-1.86,5.13,5.13,0,0,1,2.83-.68,8.94,8.94,0,0,1,3.29.63l-.56,1.19a8,8,0,0,0-2.84-.6,3.43,3.43,0,0,0-1.69.33,1,1,0,0,0-.57.89,1,1,0,0,0,.22.66,2,2,0,0,0,.68.52,15.77,15.77,0,0,0,1.82.71,7,7,0,0,1,2.5,1.26A2.1,2.1,0,0,1,424.69,459Z"/><path class="cls-9" d="M436.23,456.84a5,5,0,0,1-1.28,3.68,4.7,4.7,0,0,1-3.54,1.33,5,5,0,0,1-2.47-.61,4.18,4.18,0,0,1-1.67-1.74,5.61,5.61,0,0,1-.59-2.66,5.06,5.06,0,0,1,1.27-3.67,4.7,4.7,0,0,1,3.53-1.31,4.58,4.58,0,0,1,3.47,1.35A5,5,0,0,1,436.23,456.84Zm-7.92,0a4.37,4.37,0,0,0,.8,2.82,2.86,2.86,0,0,0,2.34,1,2.9,2.9,0,0,0,2.35-1,4.33,4.33,0,0,0,.8-2.82,4.28,4.28,0,0,0-.8-2.79,2.94,2.94,0,0,0-2.37-.95,2.85,2.85,0,0,0-2.33.94A4.25,4.25,0,0,0,428.31,456.84Z"/><path class="cls-9" d="M445.7,459a2.37,2.37,0,0,1-1.08,2.08,5.44,5.44,0,0,1-3,.73,7.09,7.09,0,0,1-3.22-.61v-1.35a8.71,8.71,0,0,0,1.61.55,7.43,7.43,0,0,0,1.65.2,4.06,4.06,0,0,0,1.9-.36,1.21,1.21,0,0,0,.66-1.12,1.18,1.18,0,0,0-.52-1,8.75,8.75,0,0,0-2.06-.94,12.16,12.16,0,0,1-2.06-.88,2.68,2.68,0,0,1-.91-.85,2,2,0,0,1-.3-1.13,2.13,2.13,0,0,1,1-1.86,5.16,5.16,0,0,1,2.84-.68,8.85,8.85,0,0,1,3.28.63l-.56,1.19a8,8,0,0,0-2.83-.6,3.43,3.43,0,0,0-1.69.33,1,1,0,0,0-.57.89,1,1,0,0,0,.21.66,2,2,0,0,0,.69.52,15,15,0,0,0,1.82.71,7,7,0,0,1,2.5,1.26A2.1,2.1,0,0,1,445.7,459Z"/><path class="cls-9" d="M460.39,460.38h-.08a3.82,3.82,0,0,1-3.27,1.47,4,4,0,0,1-3.17-1.3,5.36,5.36,0,0,1-1.14-3.67,5.48,5.48,0,0,1,1.14-3.7,4.45,4.45,0,0,1,6.42.1h.12l-.07-.69,0-.68V448h1.57v13.68H460.6Zm-3.15.24a3,3,0,0,0,2.34-.81,3.9,3.9,0,0,0,.73-2.62v-.31a4.54,4.54,0,0,0-.74-2.92,2.88,2.88,0,0,0-2.35-.88,2.47,2.47,0,0,0-2.12,1,4.67,4.67,0,0,0-.73,2.82,4.44,4.44,0,0,0,.73,2.78A2.53,2.53,0,0,0,457.24,460.62Z"/><path class="cls-9" d="M469.61,461.85a5,5,0,0,1-3.63-1.31,4.8,4.8,0,0,1-1.34-3.61,5.31,5.31,0,0,1,1.24-3.7,4.28,4.28,0,0,1,3.33-1.37,4.09,4.09,0,0,1,3.09,1.19,4.36,4.36,0,0,1,1.14,3.14v.93h-7.17a3.64,3.64,0,0,0,.93,2.57,3.32,3.32,0,0,0,2.47.88,9,9,0,0,0,3.32-.65v1.3a9.34,9.34,0,0,1-1.58.48A9.17,9.17,0,0,1,469.61,461.85Zm-.42-8.77a2.66,2.66,0,0,0-2,.76,3.32,3.32,0,0,0-.88,2.09h5.44a3,3,0,0,0-.67-2.11A2.41,2.41,0,0,0,469.19,453.08Z"/><path class="cls-9" d="M487.88,459a2.37,2.37,0,0,1-1.08,2.08,5.46,5.46,0,0,1-3,.73,7.06,7.06,0,0,1-3.22-.61v-1.35a8.6,8.6,0,0,0,1.6.55,7.59,7.59,0,0,0,1.66.2,4.09,4.09,0,0,0,1.9-.36,1.21,1.21,0,0,0,.66-1.12,1.17,1.17,0,0,0-.53-1,8.62,8.62,0,0,0-2.05-.94,11.46,11.46,0,0,1-2.06-.88,2.59,2.59,0,0,1-.91-.85,2,2,0,0,1-.3-1.13,2.13,2.13,0,0,1,1-1.86,5.16,5.16,0,0,1,2.84-.68,8.89,8.89,0,0,1,3.28.63l-.56,1.19a8,8,0,0,0-2.84-.6,3.39,3.39,0,0,0-1.68.33,1,1,0,0,0-.57.89,1,1,0,0,0,.21.66,2,2,0,0,0,.69.52,14.36,14.36,0,0,0,1.82.71,7.06,7.06,0,0,1,2.5,1.26A2.13,2.13,0,0,1,487.88,459Z"/><path class="cls-9" d="M499.42,456.84a5.08,5.08,0,0,1-1.28,3.68,4.73,4.73,0,0,1-3.54,1.33,5,5,0,0,1-2.48-.61,4.18,4.18,0,0,1-1.67-1.74,5.73,5.73,0,0,1-.59-2.66,5.1,5.1,0,0,1,1.27-3.67,4.72,4.72,0,0,1,3.53-1.31,4.56,4.56,0,0,1,3.47,1.35A5,5,0,0,1,499.42,456.84Zm-7.93,0a4.37,4.37,0,0,0,.8,2.82,3.34,3.34,0,0,0,4.69,0,4.27,4.27,0,0,0,.81-2.82,4.22,4.22,0,0,0-.81-2.79,2.92,2.92,0,0,0-2.36-.95,2.88,2.88,0,0,0-2.34.94A4.31,4.31,0,0,0,491.49,456.84Z"/><path class="cls-9" d="M507,461.85a4.85,4.85,0,0,1-1.86-.35,3.45,3.45,0,0,1-1.41-1.07h-.11a11.33,11.33,0,0,1,.11,1.6v4h-1.57V452h1.28l.22,1.31h.07a3.74,3.74,0,0,1,1.42-1.14,4.66,4.66,0,0,1,1.85-.35,4,4,0,0,1,3.19,1.31,6.51,6.51,0,0,1,0,7.36A4,4,0,0,1,507,461.85Zm-.23-8.75a2.91,2.91,0,0,0-2.31.82,4,4,0,0,0-.73,2.6v.32a4.59,4.59,0,0,0,.73,2.91,2.91,2.91,0,0,0,2.35.87,2.48,2.48,0,0,0,2.11-1,4.5,4.5,0,0,0,.76-2.78,4.37,4.37,0,0,0-.76-2.77A2.6,2.6,0,0,0,506.79,453.1Z"/><path class="cls-9" d="M523.06,456.84a5,5,0,0,1-1.28,3.68,4.7,4.7,0,0,1-3.54,1.33,5,5,0,0,1-2.47-.61,4.18,4.18,0,0,1-1.67-1.74,5.61,5.61,0,0,1-.59-2.66,5.06,5.06,0,0,1,1.27-3.67,4.7,4.7,0,0,1,3.53-1.31,4.58,4.58,0,0,1,3.47,1.35A5,5,0,0,1,523.06,456.84Zm-7.92,0a4.37,4.37,0,0,0,.8,2.82,2.86,2.86,0,0,0,2.34,1,2.9,2.9,0,0,0,2.35-1,4.33,4.33,0,0,0,.8-2.82,4.28,4.28,0,0,0-.8-2.79,2.94,2.94,0,0,0-2.37-.95,2.85,2.85,0,0,0-2.33.94A4.25,4.25,0,0,0,515.14,456.84Z"/><path class="cls-9" d="M530.57,451.86a6.65,6.65,0,0,1,1.24.11l-.22,1.35a5.61,5.61,0,0,0-1.14-.13,2.81,2.81,0,0,0-2.15.95,3.29,3.29,0,0,0-.9,2.36v5.17h-1.58V452h1.3l.18,1.78h.08a4.33,4.33,0,0,1,1.4-1.45A3.3,3.3,0,0,1,530.57,451.86Z"/><path class="cls-9" d="M537.12,460.64a5.29,5.29,0,0,0,.8-.06,4.48,4.48,0,0,0,.62-.11v1.11a2.86,2.86,0,0,1-.76.19,6.1,6.1,0,0,1-.89.08c-2,0-3-1-3-3v-5.73h-1.49v-.7l1.49-.61.66-2.06h.92V452h3v1.13h-3v5.67a1.87,1.87,0,0,0,.44,1.34A1.63,1.63,0,0,0,537.12,460.64Z"/><path class="cls-9" d="M545,461.85a5,5,0,0,1-3.64-1.31,4.79,4.79,0,0,1-1.33-3.61,5.31,5.31,0,0,1,1.24-3.7,4.25,4.25,0,0,1,3.32-1.37,4.1,4.1,0,0,1,3.1,1.19,4.4,4.4,0,0,1,1.13,3.14v.93h-7.16a3.6,3.6,0,0,0,.93,2.57,3.3,3.3,0,0,0,2.47.88,9,9,0,0,0,3.32-.65v1.3a9.62,9.62,0,0,1-1.58.48A9.32,9.32,0,0,1,545,461.85Zm-.43-8.77a2.64,2.64,0,0,0-2,.76,3.32,3.32,0,0,0-.88,2.09h5.43a3,3,0,0,0-.66-2.11A2.42,2.42,0,0,0,544.58,453.08Z"/><polyline class="cls-3" points="405.68 66.35 52.77 66.35 52.77 147.53"/><polyline class="cls-3" points="313.05 257.85 267.76 257.85 267.76 221.37 114.75 221.37"/><polyline class="cls-3" points="267.76 257.85 267.76 357.08 313.05 357.08"/><polyline class="cls-3" points="457.32 497.93 457.32 573.61 269.23 573.61"/><path class="cls-10" d="M797.46,344.06v1.2a13.69,13.69,0,0,0,.7,4.3l2.71,8.12H806V339h-3.4a5.12,5.12,0,0,0-5.11,5.11Z"/><path class="cls-11" d="M820.77,347.6l-2.88,10.08-13.62-11.92a3.4,3.4,0,0,1-3.4-3.4h0a5.1,5.1,0,0,1,5.1-5.11h11.92a3.41,3.41,0,0,1,3.4,3.41v3.2a13.56,13.56,0,0,1-.52,3.74Z"/><polygon class="cls-12" points="804.27 362.79 814.49 362.79 814.49 370.32 804.27 370.32 804.27 362.79 804.27 362.79"/><path class="cls-13" d="M804.27,365.91a13.43,13.43,0,0,0,10.22,0v-3.12H804.27v3.12Z"/><path class="cls-14" d="M822.7,369.26l-8.21-2.34-5.11,3.38-5.11-3.38-8.21,2.34a5.11,5.11,0,0,0-3.7,4.91v12.45a1.7,1.7,0,0,0,1.7,1.7H824.7a1.7,1.7,0,0,0,1.7-1.7V374.17a5.11,5.11,0,0,0-3.7-4.91Z"/><polygon class="cls-15" points="811.08 388.32 807.68 388.32 808.53 370.32 810.23 370.32 811.08 388.32 811.08 388.32"/><path class="cls-16" d="M809.38,364.49h0a10.21,10.21,0,0,1-10.21-10.21v-2a3.41,3.41,0,0,1,1-2.41l3.09-3.08a3.33,3.33,0,0,1,2.47-1c5.44.17,10.26,1.33,12.89,3.91a3.32,3.32,0,0,1,1,2.41v2.17a10.21,10.21,0,0,1-10.21,10.21Z"/><path class="cls-12" d="M804.27,352.7a3.4,3.4,0,0,1,3.61-3.4c3.44.22,8.54.8,11.67,2.3a3.4,3.4,0,0,0-.94-1.91c-2.63-2.57-7.45-3.73-12.89-3.9h0a3.33,3.33,0,0,0-2.47,1l-3.09,3.08a3.41,3.41,0,0,0-1,2.41v2a10.21,10.21,0,0,0,7.38,9.81,10.12,10.12,0,0,1-2.28-6.4v-5Z"/><path class="cls-17" d="M819.59,379.24a5.11,5.11,0,0,1,1.5-3.61l4.38-4.38a5.07,5.07,0,0,1,.93,2.92v12.45a1.7,1.7,0,0,1-1.7,1.7h-5.11v-9.08Z"/><path class="cls-18" d="M810.23,373.72h-1.7a.85.85,0,0,1-.85-.85v-2.55h3.4v2.55a.85.85,0,0,1-.85.85Z"/><path class="cls-17" d="M809.38,370.3l-2.89,2.21a1,1,0,0,1-1.51-.32l-2.59-4.73,1-1.59a.68.68,0,0,1,1-.12l4.92,4.55Z"/><path class="cls-17" d="M809.38,370.3l2.88,2.21a1,1,0,0,0,1.52-.32l2.59-4.73-1-1.59a.69.69,0,0,0-1-.12l-4.91,4.55Z"/><path class="cls-10" d="M751.33,363.78a61.76,61.76,0,0,1-2.85-13.93c-.48-6.57-5.42-11.92-12.11-11.92s-11.64,5.35-12.11,11.92a61.26,61.26,0,0,1-2.86,13.93,1.69,1.69,0,0,0,.89,2.16,32.4,32.4,0,0,0,8.89,2.63h10.38a32.64,32.64,0,0,0,8.89-2.63,1.69,1.69,0,0,0,.88-2.16Z"/><path class="cls-11" d="M750.45,365.94a1.69,1.69,0,0,0,.88-2.16,61.76,61.76,0,0,1-2.85-13.93c-.48-6.57-5.42-11.92-12.11-11.92h0c-5.13,0-7,7-2.53,9.63.27.16.44.24.44.24l3.87,20.77h3.46a32.64,32.64,0,0,0,8.89-2.63Z"/><path class="cls-12" d="M748.68,372l-5.51-2.75a3.42,3.42,0,0,1-1.88-3.05v-5.11H731.08v5.11a3.42,3.42,0,0,1-1.88,3.05L723.69,372a5.1,5.1,0,0,0-2.83,4.57v10.06a1.71,1.71,0,0,0,1.71,1.7H749.8a1.7,1.7,0,0,0,1.7-1.7V376.56a5.1,5.1,0,0,0-2.82-4.57Z"/><path class="cls-13" d="M736.18,367.89a13.49,13.49,0,0,0,5.2-1.05,3.51,3.51,0,0,1-.09-.65v-5.11H731.08v5.11a3.62,3.62,0,0,1-.09.66,13.66,13.66,0,0,0,5.19,1Z"/><path class="cls-14" d="M748.68,372l-3.92-2a10.21,10.21,0,0,1-17.15,0l-3.92,2a5.1,5.1,0,0,0-2.83,4.57v10.06a1.71,1.71,0,0,0,1.71,1.7H749.8a1.7,1.7,0,0,0,1.7-1.7V376.56a5.1,5.1,0,0,0-2.82-4.57Z"/><path class="cls-16" d="M736.18,364.49h0a10.21,10.21,0,0,1-10.12-8.89,1.7,1.7,0,0,1,.91-1.77,14.24,14.24,0,0,0,3-2,10,10,0,0,0,2.33-3.06,1.68,1.68,0,0,1,1.92-.93,29.27,29.27,0,0,1,11.55,5.91,1.66,1.66,0,0,1,.59,1.37,10.23,10.23,0,0,1-10.19,9.41Z"/><path class="cls-12" d="M745.78,353.71a29.27,29.27,0,0,0-11.55-5.91,1.68,1.68,0,0,0-1.92.93,10.06,10.06,0,0,1-1.56,2.27h0a8.13,8.13,0,0,1-.77.79,14.24,14.24,0,0,1-3,2,1.7,1.7,0,0,0-.91,1.77,10.21,10.21,0,0,0,8.58,8.77,7.44,7.44,0,0,1-3.56-6.69v-2.43c.38-.28.77-.57,1.16-.92a13.32,13.32,0,0,0,2.44-2.87,25.63,25.63,0,0,1,8.87,4.83c.32.28,1.12,1,2.06,1.9a10.35,10.35,0,0,0,.76-3.11,1.66,1.66,0,0,0-.59-1.37Z"/><path class="cls-17" d="M721.9,373.49a5.14,5.14,0,0,0-1,3.07v10.06a1.71,1.71,0,0,0,1.71,1.7h5.1v-8.58a3.44,3.44,0,0,0-1.27-2.66l-4.5-3.59Z"/><path class="cls-19" d="M798.09,369.67l-14.24-5.18-10.22,3.4-10.21-3.4-14.24,5.18a6.8,6.8,0,0,0-4.48,6.4v10.55a1.7,1.7,0,0,0,1.7,1.7h54.47a1.7,1.7,0,0,0,1.7-1.7V376.07a6.8,6.8,0,0,0-4.48-6.4Z"/><polygon class="cls-20" points="771.85 371.3 770.23 388.32 777.04 388.32 775.42 371.3 771.85 371.3 771.85 371.3"/><path class="cls-21" d="M775.42,373.64h-3.57a1.2,1.2,0,0,1-1.2-1.2v-4.55h6v4.55a1.19,1.19,0,0,1-1.19,1.2Z"/><path class="cls-22" d="M800.74,371.43a6.78,6.78,0,0,1,1.83,4.64v10.55a1.7,1.7,0,0,1-1.7,1.7h-8.51v-5.69a6.8,6.8,0,0,1,2-4.82l6.39-6.38Z"/><path class="cls-10" d="M792.36,329.38V315.12a3.41,3.41,0,0,0-3.41-3.4H768.53a13.62,13.62,0,0,0-13.62,13.62v4a17,17,0,0,0,.87,5.39l.57,1.7a5.17,5.17,0,0,1,.26,1.61V339h34v-.88a4.9,4.9,0,0,1,.27-1.61l.56-1.7a17,17,0,0,0,.88-5.39Z"/><path class="cls-11" d="M763.42,318.63a6.92,6.92,0,0,0,6.91,6.92h1l.46,13.4h18.9v-.87a4.9,4.9,0,0,1,.27-1.61l.56-1.7a17,17,0,0,0,.88-5.39V315.12a3.41,3.41,0,0,0-3.41-3.4H770.33a6.92,6.92,0,0,0-6.91,6.91Z"/><polygon class="cls-12" points="763.42 352.57 783.85 352.57 783.85 367.89 763.42 367.89 763.42 352.57 763.42 352.57"/><path class="cls-13" d="M763.42,358.33a20.35,20.35,0,0,0,20.43,0v-5.76H763.42v5.76Z"/><path class="cls-22" d="M773.63,367.89l-5.43,5.43a1.7,1.7,0,0,1-2.56-.17L760,365.73l1.47-3.1a1.7,1.7,0,0,1,2.43-.72l9.71,6Z"/><path class="cls-22" d="M773.63,367.89l5.43,5.43a1.7,1.7,0,0,0,2.56-.17l5.63-7.42-1.47-3.1a1.7,1.7,0,0,0-2.43-.72l-9.72,6Z"/><path class="cls-16" d="M773.63,357.68h0a17,17,0,0,1-17-17v-2a3.37,3.37,0,0,1,1-2.4l1.41-1.41a3.41,3.41,0,0,0,1-2.41v-4.08a1.69,1.69,0,0,1,1.3-1.66c4-.95,16.55-3.2,25.08,3.07a2.2,2.2,0,0,1,.86,1.76v.91a3.41,3.41,0,0,0,1,2.41l1.41,1.41a3.36,3.36,0,0,1,1,2.4v2a17,17,0,0,1-17,17Z"/><path class="cls-12" d="M786.39,329.77c-6-4.41-14-4.6-19.57-4a47.81,47.81,0,0,0-5.51.93,1.68,1.68,0,0,0-1.29,1.66v4.08a3.41,3.41,0,0,1-1,2.41l-1.41,1.41a3.37,3.37,0,0,0-1,2.4v2a17,17,0,0,0,15,16.88,16.94,16.94,0,0,1-4.76-11.78V333.32a3.42,3.42,0,0,1,3-3.38c4.08-.51,11.56-.82,17.43,2.5v-.91a2.2,2.2,0,0,0-.86-1.76Z"/><path class="cls-22" d="M746.53,371.43a6.78,6.78,0,0,0-1.83,4.64v10.55a1.7,1.7,0,0,0,1.7,1.7h8.51v-5.69a6.81,6.81,0,0,0-2-4.82l-6.38-6.38Z"/><path class="cls-10" d="M76.6,198.84V200a13.75,13.75,0,0,0,.7,4.31l2.7,8.11h5.11V193.74h-3.4a5.1,5.1,0,0,0-5.11,5.1Z"/><path class="cls-11" d="M99.91,202.38,97,212.46,83.41,200.55A3.41,3.41,0,0,1,80,197.14h0a5.1,5.1,0,0,1,5.11-5.1H97a3.4,3.4,0,0,1,3.4,3.4v3.2a13.89,13.89,0,0,1-.52,3.74Z"/><polygon class="cls-12" points="83.41 217.57 93.62 217.57 93.62 225.1 83.41 225.1 83.41 217.57 83.41 217.57"/><path class="cls-13" d="M83.41,220.7a13.53,13.53,0,0,0,10.21,0v-3.13H83.41v3.13Z"/><path class="cls-14" d="M101.83,224l-8.21-2.34-5.11,3.39-5.1-3.39L75.2,224A5.12,5.12,0,0,0,71.49,229V241.4a1.71,1.71,0,0,0,1.71,1.7h30.63a1.7,1.7,0,0,0,1.71-1.7V229a5.12,5.12,0,0,0-3.71-4.92Z"/><polygon class="cls-15" points="90.22 243.1 86.81 243.1 87.66 225.1 89.37 225.1 90.22 243.1 90.22 243.1"/><path class="cls-16" d="M88.51,219.27h0A10.21,10.21,0,0,1,78.3,209.06v-2a3.39,3.39,0,0,1,1-2.4l3.09-3.09a3.36,3.36,0,0,1,2.47-1c5.44.17,10.25,1.34,12.89,3.91a3.38,3.38,0,0,1,1,2.41v2.17a10.21,10.21,0,0,1-10.22,10.21Z"/><path class="cls-12" d="M83.41,207.49a3.39,3.39,0,0,1,3.61-3.4c3.43.22,8.53.79,11.66,2.3a3.29,3.29,0,0,0-.93-1.91c-2.64-2.57-7.45-3.74-12.89-3.91h0a3.36,3.36,0,0,0-2.47,1l-3.09,3.09a3.37,3.37,0,0,0-1,2.4v2a10.21,10.21,0,0,0,7.39,9.81,10.17,10.17,0,0,1-2.28-6.41v-5Z"/><path class="cls-17" d="M98.73,234a5.11,5.11,0,0,1,1.49-3.61l4.39-4.39a5.15,5.15,0,0,1,.93,2.93V241.4a1.7,1.7,0,0,1-1.71,1.7h-5.1V234Z"/><path class="cls-18" d="M89.37,228.51H87.66a.85.85,0,0,1-.85-.85V225.1h3.41v2.56a.85.85,0,0,1-.85.85Z"/><path class="cls-17" d="M88.51,225.09l-2.88,2.2a1,1,0,0,1-1.52-.32l-2.58-4.73,1-1.59a.68.68,0,0,1,1-.12l4.91,4.56Z"/><path class="cls-17" d="M88.51,225.09l2.89,2.2a1,1,0,0,0,1.52-.32l2.58-4.73-1-1.59a.68.68,0,0,0-1-.12l-4.92,4.56Z"/><path class="cls-10" d="M30.47,218.56a61.7,61.7,0,0,1-2.86-13.93c-.47-6.56-5.42-11.91-12.11-11.91S3.87,198.07,3.4,204.63A61.7,61.7,0,0,1,.54,218.56a1.7,1.7,0,0,0,.88,2.17,32.86,32.86,0,0,0,8.9,2.63H20.69a32.88,32.88,0,0,0,8.89-2.63,1.7,1.7,0,0,0,.89-2.17Z"/><path class="cls-11" d="M29.58,220.73a1.7,1.7,0,0,0,.89-2.17,61.7,61.7,0,0,1-2.86-13.93c-.47-6.56-5.42-11.91-12.11-11.91h-.05c-5.13,0-6.94,7-2.52,9.63.26.15.43.23.43.23l3.87,20.78h3.46a32.88,32.88,0,0,0,8.89-2.63Z"/><path class="cls-12" d="M27.82,226.77,22.31,224A3.4,3.4,0,0,1,20.43,221v-5.1H10.21V221A3.42,3.42,0,0,1,8.33,224l-5.51,2.75A5.12,5.12,0,0,0,0,231.34V241.4a1.7,1.7,0,0,0,1.7,1.7H28.94a1.7,1.7,0,0,0,1.7-1.7V231.34a5.12,5.12,0,0,0-2.82-4.57Z"/><path class="cls-13" d="M15.32,222.68a13.53,13.53,0,0,0,5.2-1.05,3.62,3.62,0,0,1-.09-.66v-5.1H10.21V221a3.62,3.62,0,0,1-.09.66,13.53,13.53,0,0,0,5.2,1.05Z"/><path class="cls-14" d="M27.82,226.77l-3.93-2a10.2,10.2,0,0,1-17.14,0l-3.93,2A5.12,5.12,0,0,0,0,231.34V241.4a1.7,1.7,0,0,0,1.7,1.7H28.94a1.7,1.7,0,0,0,1.7-1.7V231.34a5.12,5.12,0,0,0-2.82-4.57Z"/><path class="cls-16" d="M15.32,219.27h0a10.22,10.22,0,0,1-10.13-8.89,1.73,1.73,0,0,1,.91-1.77,14.14,14.14,0,0,0,3-2,9.78,9.78,0,0,0,2.33-3.07,1.69,1.69,0,0,1,1.92-.93,29.37,29.37,0,0,1,11.56,5.92,1.66,1.66,0,0,1,.58,1.37,10.21,10.21,0,0,1-10.18,9.4Z"/><path class="cls-12" d="M24.92,208.5a29.37,29.37,0,0,0-11.56-5.92,1.69,1.69,0,0,0-1.92.93,9.55,9.55,0,0,1-1.55,2.27h0c-.24.26-.48.52-.78.79a14.14,14.14,0,0,1-3,2,1.73,1.73,0,0,0-.91,1.77,10.24,10.24,0,0,0,8.58,8.78,7.47,7.47,0,0,1-3.56-6.7V210c.39-.29.78-.57,1.17-.92a13.66,13.66,0,0,0,2.44-2.88,26,26,0,0,1,8.87,4.83c.32.28,1.12,1,2.06,1.9a10.06,10.06,0,0,0,.75-3.1,1.66,1.66,0,0,0-.58-1.37Z"/><path class="cls-17" d="M1,228.27a5.08,5.08,0,0,0-1,3.07V241.4a1.7,1.7,0,0,0,1.7,1.7H6.81v-8.57a3.38,3.38,0,0,0-1.28-2.66L1,228.27Z"/><path class="cls-19" d="M77.22,224.45,63,219.27l-10.21,3.41-10.21-3.41-14.25,5.18a6.81,6.81,0,0,0-4.48,6.4V241.4a1.7,1.7,0,0,0,1.7,1.7H80a1.71,1.71,0,0,0,1.71-1.7V230.85a6.81,6.81,0,0,0-4.49-6.4Z"/><polygon class="cls-20" points="50.98 226.08 49.36 243.1 56.17 243.1 54.55 226.08 50.98 226.08 50.98 226.08"/><path class="cls-21" d="M54.56,228.42H51a1.19,1.19,0,0,1-1.19-1.19v-4.55h6v4.55a1.19,1.19,0,0,1-1.19,1.19Z"/><path class="cls-22" d="M79.87,226.21a6.8,6.8,0,0,1,1.84,4.64V241.4A1.71,1.71,0,0,1,80,243.1H71.49v-5.69a6.79,6.79,0,0,1,2-4.81l6.38-6.39Z"/><path class="cls-10" d="M71.49,184.17V169.91a3.41,3.41,0,0,0-3.4-3.41H47.66A13.62,13.62,0,0,0,34,180.12v4a17,17,0,0,0,.88,5.38l.56,1.7a5,5,0,0,1,.27,1.61v.88h34v-.88a5.22,5.22,0,0,1,.26-1.61l.57-1.7a17,17,0,0,0,.87-5.38Z"/><path class="cls-11" d="M42.56,173.42a6.91,6.91,0,0,0,6.91,6.91h1l.46,13.41h18.9v-.88a5.22,5.22,0,0,1,.26-1.61l.57-1.7a17,17,0,0,0,.87-5.38V169.91a3.41,3.41,0,0,0-3.4-3.41H49.47a6.91,6.91,0,0,0-6.91,6.92Z"/><polygon class="cls-12" points="42.55 207.36 62.98 207.36 62.98 222.68 42.55 222.68 42.55 207.36 42.55 207.36"/><path class="cls-13" d="M42.56,213.11a20.26,20.26,0,0,0,20.42,0v-5.75H42.56v5.75Z"/><path class="cls-22" d="M52.77,222.68l-5.43,5.42a1.7,1.7,0,0,1-2.56-.17l-5.63-7.42,1.47-3.1a1.7,1.7,0,0,1,2.43-.72l9.72,6Z"/><path class="cls-22" d="M52.77,222.68l5.43,5.42a1.7,1.7,0,0,0,2.56-.17l5.63-7.42-1.48-3.1a1.7,1.7,0,0,0-2.43-.72l-9.71,6Z"/><path class="cls-16" d="M52.77,212.46h0a17,17,0,0,1-17-17v-2a3.43,3.43,0,0,1,1-2.41l1.41-1.41a3.41,3.41,0,0,0,1-2.41v-4.08a1.68,1.68,0,0,1,1.3-1.65c4-1,16.55-3.21,25.08,3.06a2.21,2.21,0,0,1,.86,1.77v.9a3.41,3.41,0,0,0,1,2.41L68.79,191a3.4,3.4,0,0,1,1,2.41v2a17,17,0,0,1-17,17Z"/><path class="cls-12" d="M65.53,184.55c-6-4.41-14-4.6-19.57-4a43.44,43.44,0,0,0-5.51.93,1.68,1.68,0,0,0-1.3,1.65v4.08a3.41,3.41,0,0,1-1,2.41L36.74,191a3.43,3.43,0,0,0-1,2.41v2a17,17,0,0,0,15,16.89A17,17,0,0,1,46,200.55V188.11a3.41,3.41,0,0,1,3-3.39c4.09-.51,11.57-.82,17.44,2.5v-.9a2.21,2.21,0,0,0-.86-1.77Z"/><path class="cls-22" d="M25.66,226.21a6.8,6.8,0,0,0-1.83,4.64V241.4a1.7,1.7,0,0,0,1.7,1.7H34v-5.69a6.78,6.78,0,0,0-2-4.81l-6.39-6.39Z"/><path class="cls-23" d="M223,527.07l-15.19,9.11v-7.57a1.79,1.79,0,0,0-2.7-1.54l-15.18,9.11v-7.57a1.8,1.8,0,0,0-2.71-1.54L172,536.18v-7.57a1.8,1.8,0,0,0-2.7-1.54l-15.19,9.11v3.57h71.55V528.61a1.79,1.79,0,0,0-2.7-1.54Z"/><path class="cls-24" d="M243.58,495,233,512.19a12.81,12.81,0,0,1-10.91,6.1c-4.7,0-7.35-1.72-8.83-3.65l-.11.07c-14.31,0-14.31-8.94-14.31-8.94l0-.31a8.57,8.57,0,0,1-6.78-5.52,10,10,0,0,1,4-11.15,11.57,11.57,0,0,1,9.53-.84l.13.06.26-.76a23.74,23.74,0,0,1,4.66-1.45c4.38-.85,9.26-.62,12.82,2.06l.41-.37a18.78,18.78,0,0,1,4.63-1.69A13.19,13.19,0,0,1,240,487.86a10,10,0,0,1,3.58,7.17Z"/><path class="cls-25" d="M243.58,496.82a1.78,1.78,0,0,1-1.79-1.74,8.08,8.08,0,0,0-2.94-5.84c-3.15-2.67-7.57-2.2-9.93-1.69a16.89,16.89,0,0,0-4.18,1.52,1.79,1.79,0,0,1-1.68-3.16,20.24,20.24,0,0,1,5.1-1.85,14.82,14.82,0,0,1,13,2.44,11.75,11.75,0,0,1,4.21,8.49,1.79,1.79,0,0,1-1.75,1.83Z"/><path class="cls-25" d="M227.48,496.82a1.79,1.79,0,0,1-1.79-1.73,7.83,7.83,0,0,0-3.29-5.8c-3.63-2.74-8.69-2.26-11.38-1.73a21.53,21.53,0,0,0-4.29,1.33,1.79,1.79,0,1,1-1.43-3.28,25.18,25.18,0,0,1,5-1.56c5.67-1.11,10.72-.26,14.24,2.38a11.43,11.43,0,0,1,4.71,8.55,1.77,1.77,0,0,1-.49,1.28,1.73,1.73,0,0,1-1.25.56Z"/><path class="cls-25" d="M201.9,507.56c-4.29,0-9.87-1.86-11.48-7.09a11.7,11.7,0,0,1,4.71-13.19,13.29,13.29,0,0,1,11-1,25.94,25.94,0,0,1,4.27,1.84,1.79,1.79,0,0,1-1.68,3.16,22.63,22.63,0,0,0-3.68-1.6,9.71,9.71,0,0,0-8,.66,8.15,8.15,0,0,0-3.22,9.1c1,3.37,5,4.57,8.07,4.57a1.79,1.79,0,1,1,0,3.58Z"/><path class="cls-25" d="M213.17,516.5c-15.92,0-16.1-10.63-16.1-10.73a1.79,1.79,0,1,1,3.58,0c0,.33.36,7.17,12.52,7.17a1.79,1.79,0,0,1,0,3.58Z"/><path class="cls-25" d="M222.11,520.08c-9.9,0-12.52-7-12.52-10.73a1.79,1.79,0,0,1,3.58,0c0,.74.36,7.16,8.94,7.16a1.79,1.79,0,1,1,0,3.58Z"/><path class="cls-26" d="M238.61,502.19H245a2.19,2.19,0,0,1,2.19,2.19v8.54H236.42v-8.54a2.19,2.19,0,0,1,2.19-2.19Z"/><polygon class="cls-27" points="252.52 550.49 247.16 509.35 236.42 509.35 231.06 550.49 252.52 550.49 252.52 550.49"/><path class="cls-28" d="M222.11,548.7h33.94a1.83,1.83,0,0,1,1.84,1.83v32.15H222.11v-34Z"/><path class="cls-29" d="M234.63,559.43h-8.94a1.79,1.79,0,0,1,0-3.58h8.94a1.79,1.79,0,1,1,0,3.58Z"/><path class="cls-29" d="M250.73,559.43h-8.94a1.79,1.79,0,0,1,0-3.58h8.94a1.79,1.79,0,1,1,0,3.58Z"/><polygon class="cls-30" points="154.14 536.18 225.69 536.18 225.69 582.68 154.14 582.68 154.14 536.18 154.14 536.18"/><path class="cls-31" d="M170.24,545.12a1.79,1.79,0,0,1-1.79,1.79H154.14v-3.58h14.31a1.79,1.79,0,0,1,1.79,1.79Z"/><path class="cls-31" d="M195.28,546.91H175.61a1.79,1.79,0,0,1,0-3.58h19.67a1.79,1.79,0,1,1,0,3.58Z"/><path class="cls-24" d="M163.08,557.64H172a1.79,1.79,0,0,1,1.79,1.79v7.16a1.79,1.79,0,0,1-1.79,1.78h-8.95a1.78,1.78,0,0,1-1.78-1.78v-7.16a1.79,1.79,0,0,1,1.78-1.79Z"/><path class="cls-24" d="M182.76,557.64h8.94a1.79,1.79,0,0,1,1.79,1.79v7.16a1.79,1.79,0,0,1-1.79,1.78h-8.94a1.79,1.79,0,0,1-1.79-1.78v-7.16a1.79,1.79,0,0,1,1.79-1.79Z"/><path class="cls-32" d="M218.54,554.18v28.5H200.65v-28.5a1.84,1.84,0,0,1,1.79-1.9h14.31a1.86,1.86,0,0,1,1.79,1.9Z"/><path class="cls-33" d="M213.17,559.43a1.79,1.79,0,0,1-1.79,1.79H200.65v-3.58h10.73a1.79,1.79,0,0,1,1.79,1.79Z"/><path class="cls-33" d="M213.17,566.59a1.79,1.79,0,0,1-1.79,1.78H200.65V564.8h10.73a1.79,1.79,0,0,1,1.79,1.79Z"/><path class="cls-33" d="M213.17,573.74a1.79,1.79,0,0,1-1.79,1.79H200.65V572h10.73a1.79,1.79,0,0,1,1.79,1.79Z"/><path class="cls-34" d="M238.21,568.37h7.16a1.79,1.79,0,0,1,1.79,1.79V580.9H236.42V570.16a1.79,1.79,0,0,1,1.79-1.79Z"/><path class="cls-33" d="M257.89,580.9H154.14v5.36a1.79,1.79,0,0,0,1.79,1.79H256.1a1.79,1.79,0,0,0,1.79-1.79V580.9Z"/></g></g></svg>