<svg xmlns="http://www.w3.org/2000/svg" xmlns:xlink="http://www.w3.org/1999/xlink" width="98.449" height="111.51" viewBox="0 0 98.449 111.51">
  <defs>
    <linearGradient id="linear-gradient" x1="0.5" y1="1" x2="0.5" gradientUnits="objectBoundingBox">
      <stop offset="0" stop-color="#cbf1f6"/>
      <stop offset="1" stop-color="#fff"/>
    </linearGradient>
  </defs>
  <g id="Grupo_10791" data-name="Grupo 10791" transform="translate(1324.019 -1632.849)">
    <path id="Trazado_2069" data-name="Trazado 2069" d="M-1314.3,1741.977h12.1v-28l2.729-1.979-.728-16.366h66.007a6.2,6.2,0,0,0,6.2-6.2v-49.49a5.092,5.092,0,0,0-5.092-5.093h-69.892a6.778,6.778,0,0,0-6.777,6.778v10.662s-6.353.117-6.353,4.889v6.955s-.068,2.924,2.644,2.644v5.567l-8.564,4.169v19.12l3.819,7.6,1.092,9.823,1.009.959Z" fill="url(#linear-gradient)"/>
    <path id="Trazado_2070" data-name="Trazado 2070" d="M-1234.194,1632.849h-68.439a8.632,8.632,0,0,0-8.627,8.619v2a1.633,1.633,0,0,0,1.634,1.634,1.633,1.633,0,0,0,1.633-1.634v-2a5.362,5.362,0,0,1,5.36-5.351h68.439a5.359,5.359,0,0,1,5.356,5.351v38.4a1.633,1.633,0,0,0,1.635,1.633,1.632,1.632,0,0,0,1.633-1.633v-38.4a8.631,8.631,0,0,0-8.624-8.619Zm0,0" fill="#4384cd"/>
    <path id="Trazado_2071" data-name="Trazado 2071" d="M-1227.2,1684.819a1.634,1.634,0,0,0-1.635,1.634v2.241a5.359,5.359,0,0,1-5.356,5.351h-66l-1.184-2.356,1.145-10.394h4.4a15.89,15.89,0,0,0,11.032-4.429l2.293-2.2a1.632,1.632,0,0,0,.046-2.309,1.634,1.634,0,0,0-2.31-.047l-2.291,2.2a12.633,12.633,0,0,1-8.77,3.519h-5.862a1.633,1.633,0,0,0-1.623,1.455l-1.2,10.876h-8.652l-1.953-8.3a1.635,1.635,0,0,0-1.965-1.217,1.634,1.634,0,0,0-1.216,1.965l2.12,9.006-1.835,3.929a14.405,14.405,0,0,0-1.1,3.448,7.608,7.608,0,0,1-1.623-4.7V1679.36a2.783,2.783,0,0,1,1.8-2.591l5.057-1.9,3.067,2.68a1.643,1.643,0,0,0,1.075.4,1.635,1.635,0,0,0,1.075-.4l3.431-2.994,9.042-.016a9.709,9.709,0,0,0,6.473-2.484l5.788-5.154a1.445,1.445,0,0,1,.873-.366l4.577-.263-1.57,1.509a1.633,1.633,0,0,0-.045,2.309,1.633,1.633,0,0,0,2.311.046l2.964-2.85a2.525,2.525,0,0,0,.576-2.858,2.522,2.522,0,0,0-2.486-1.529l-6.515.374a4.717,4.717,0,0,0-2.862,1.191l-5.789,5.155a6.444,6.444,0,0,1-4.3,1.652l-8.015.015v-2.759a8.05,8.05,0,0,0,2.288-5.589v-4.415a7.777,7.777,0,0,0-.071-1.039,5.44,5.44,0,0,0,3.7-5.144,5.441,5.441,0,0,0-5.437-5.434,5.445,5.445,0,0,0-5.2,3.849,7.876,7.876,0,0,0-.8-.04,7.819,7.819,0,0,0-7.813,7.808v4.554a7.79,7.79,0,0,0,2.29,5.5v3.32l-4.827,1.816a6.069,6.069,0,0,0-3.914,5.651v15.135a10.884,10.884,0,0,0,3.791,8.259l.953.818.834,9.166c.121,1.341.724,2.374,2.035,2.511V1740.6h-1.039a1.632,1.632,0,0,0-1.634,1.633,1.633,1.633,0,0,0,1.634,1.634h17.722a1.634,1.634,0,0,0,1.634-1.634,1.633,1.633,0,0,0-1.634-1.633h-1.039v-25.332h.068c1.473,0,2.256-1.152,2.338-2.622l.54-9.6a14.388,14.388,0,0,0-.849-5.732h14.594a8.639,8.639,0,0,0,8.469,6.986h5.5v24.786h-4.47a7.064,7.064,0,0,0-6.92,5.685,4.937,4.937,0,0,0-3.33,4.661,4.935,4.935,0,0,0,4.932,4.928,4.936,4.936,0,0,0,4.932-4.928,4.935,4.935,0,0,0-3.163-4.6,3.79,3.79,0,0,1,3.549-2.479h4.47v2.429a4.936,4.936,0,0,0-3.3,4.65,4.935,4.935,0,0,0,4.932,4.928,4.935,4.935,0,0,0,4.931-4.928,4.936,4.936,0,0,0-3.3-4.65v-2.429h4.469a3.791,3.791,0,0,1,3.563,2.514,4.937,4.937,0,0,0-3.074,4.565,4.935,4.935,0,0,0,4.932,4.928,4.935,4.935,0,0,0,4.931-4.928,4.936,4.936,0,0,0-3.438-4.7,7.065,7.065,0,0,0-6.914-5.648h-4.469V1704.3h5.605a8.635,8.635,0,0,0,8.467-6.986h18.565a8.631,8.631,0,0,0,8.624-8.619v-2.241a1.632,1.632,0,0,0-1.633-1.634Zm-76.55-34.649a2.17,2.17,0,0,1,2.169,2.166,2.168,2.168,0,0,1-1.535,2.069,7.851,7.851,0,0,0-2.724-2.64,2.169,2.169,0,0,1,2.09-1.595Zm-10.548,8.349a4.548,4.548,0,0,1,4.546-4.54,4.546,4.546,0,0,1,4.539,4.409,4.021,4.021,0,0,1-.435.207,4,4,0,0,1-3.609-.332,1.635,1.635,0,0,0-2.254.51,1.634,1.634,0,0,0,.511,2.254,7.278,7.278,0,0,0,3.879,1.119,7.245,7.245,0,0,0,1.915-.259v1.048a4.767,4.767,0,0,1-1.427,3.378,4.426,4.426,0,0,1-3.208,1.3,4.566,4.566,0,0,1-4.457-4.54Zm4.393,12.361c.05,0,.1,0,.15,0a7.59,7.59,0,0,0,2.261-.343v1.637l-2.258,1.969-2.255-1.969v-1.632a7.7,7.7,0,0,0,2.1.336Zm30.022,70.211a1.665,1.665,0,0,1-1.665-1.66,1.665,1.665,0,0,1,1.665-1.662,1.665,1.665,0,0,1,1.663,1.662,1.664,1.664,0,0,1-1.663,1.66Zm11.421,0a1.664,1.664,0,0,1-1.664-1.66,1.665,1.665,0,0,1,1.664-1.662,1.664,1.664,0,0,1,1.664,1.662,1.664,1.664,0,0,1-1.664,1.66Zm11.524,0a1.664,1.664,0,0,1-1.664-1.66,1.664,1.664,0,0,1,1.664-1.662,1.664,1.664,0,0,1,1.664,1.662,1.664,1.664,0,0,1-1.664,1.66Zm-4.284-40.06H-1275.6a5.366,5.366,0,0,1-5.1-3.718h24.581a5.366,5.366,0,0,1-5.1,3.718Zm-51.913,14.234h2.921V1740.6h-2.921Zm9.11,25.331h-2.921v-25.331h2.921Zm2.95-37.735-.514,9.136h-13.636s-.879-9.364-.875-9.932a11.085,11.085,0,0,1,1.04-4.937l1.634-3.5h9.363l1.822,3.621a11.124,11.124,0,0,1,1.166,5.614Zm0,0" fill="#4384cd"/>
    <g id="Grupo_10790" data-name="Grupo 10790">
      <g id="Grupo_10789" data-name="Grupo 10789">
        <path id="Trazado_2072" data-name="Trazado 2072" d="M-1276.113,1645.117a1.039,1.039,0,0,0,1.04-1.04,1.04,1.04,0,0,0-1.04-1.04h-5.381a1.041,1.041,0,0,0-1.04,1.04v14.976a1.04,1.04,0,0,0,1.04,1.04h5.381a1.039,1.039,0,0,0,1.04-1.04,1.04,1.04,0,0,0-1.04-1.04h-4.341V1652.6h2.724a1.04,1.04,0,0,0,1.04-1.04,1.04,1.04,0,0,0-1.04-1.04h-2.724v-5.408Zm0,0" fill="#4384cd"/>
        <path id="Trazado_2073" data-name="Trazado 2073" d="M-1272.064,1660.08h3.543a1.04,1.04,0,0,0,1.04-1.04,1.039,1.039,0,0,0-1.04-1.04h-3.543a1.039,1.039,0,0,0-1.04,1.04,1.04,1.04,0,0,0,1.04,1.04Zm0,0" fill="#4384cd"/>
        <path id="Trazado_2074" data-name="Trazado 2074" d="M-1272.064,1652.592h3.543a1.04,1.04,0,0,0,1.04-1.04,1.039,1.039,0,0,0-1.04-1.04h-3.543a1.039,1.039,0,0,0-1.04,1.04,1.04,1.04,0,0,0,1.04,1.04Zm0,0" fill="#4384cd"/>
        <path id="Trazado_2075" data-name="Trazado 2075" d="M-1251.911,1660.093a1.04,1.04,0,0,0,1.04-1.04V1653.7a4.008,4.008,0,0,0-4-4,4,4,0,0,0-2.964,1.315,4,4,0,0,0-2.964-1.315,4.008,4.008,0,0,0-4,4v5.356a1.04,1.04,0,0,0,1.04,1.04,1.04,1.04,0,0,0,1.04-1.04V1653.7a1.926,1.926,0,0,1,1.924-1.924,1.926,1.926,0,0,1,1.924,1.924v5.356a1.04,1.04,0,0,0,1.04,1.04,1.04,1.04,0,0,0,1.04-1.04V1653.7a1.926,1.926,0,0,1,1.924-1.924,1.926,1.926,0,0,1,1.924,1.924v5.356a1.04,1.04,0,0,0,1.04,1.04Zm0,0" fill="#4384cd"/>
        <path id="Trazado_2076" data-name="Trazado 2076" d="M-1249.506,1654.893a5.206,5.206,0,0,0,5.2,5.2h1.3a1.04,1.04,0,0,0,1.04-1.04,1.041,1.041,0,0,0-1.04-1.04h-1.3a3.123,3.123,0,0,1-3.12-3.12,3.123,3.123,0,0,1,3.12-3.12h1.3a1.04,1.04,0,0,0,1.04-1.04,1.041,1.041,0,0,0-1.04-1.04h-1.3a5.206,5.206,0,0,0-5.2,5.2Zm0,0" fill="#4384cd"/>
        <path id="Trazado_2077" data-name="Trazado 2077" d="M-1237.113,1642.607a2.922,2.922,0,0,0-2.919-2.919h-.09a2.923,2.923,0,0,0-2.92,2.919,1.04,1.04,0,0,0,1.04,1.04,1.039,1.039,0,0,0,1.04-1.04.841.841,0,0,1,.84-.839h.09a.84.84,0,0,1,.839.839,2.258,2.258,0,0,1-.788,1.716l-2.7,2.314a1.04,1.04,0,0,0-.3,1.15,1.04,1.04,0,0,0,.975.679h3.849a1.04,1.04,0,0,0,1.04-1.04,1.039,1.039,0,0,0-1.04-1.04h-1.039l.565-.484a4.339,4.339,0,0,0,1.514-3.295Zm0,0" fill="#4384cd"/>
      </g>
    </g>
  </g>
</svg>
