<svg xmlns="http://www.w3.org/2000/svg" xmlns:xlink="http://www.w3.org/1999/xlink" width="124.261" height="116.696" viewBox="0 0 124.261 116.696">
  <defs>
    <linearGradient id="linear-gradient" x1="0.5" y1="1" x2="0.5" gradientUnits="objectBoundingBox">
      <stop offset="0" stop-color="#c3e7f9"/>
      <stop offset="1" stop-color="#fff"/>
    </linearGradient>
  </defs>
  <g id="Grupo_10788" data-name="Grupo 10788" transform="translate(1234.596 -3517.61)">
    <path id="Trazado_2063" data-name="Trazado 2063" d="M-1229.905,3632.25v-28.033h10.42l1.628,1.984h3s-.193-10.42,6.561-11.578v-62.9h-5.789l-.193-11.739h102.267v10.389l-4.824.771v64.705h-66.794l-1.394,6.637s8.689-1.763,3.61,7.6c0,0,1.931,5.578-1.477,8.086,0,0,3.389,4.415-2.133,7.225,0,0,3.065,3.774-1.71,6.861h-7.768l-3.452-1.858h-21.342l-.579,1.858Z" fill="url(#linear-gradient)"/>
    <g id="Grupo_10787" data-name="Grupo 10787">
      <g id="Grupo_10786" data-name="Grupo 10786">
        <path id="Trazado_2064" data-name="Trazado 2064" d="M-1163.207,3610.078a2.236,2.236,0,0,1-2.232-2.233,2.235,2.235,0,0,1,2.232-2.232,2.235,2.235,0,0,1,2.232,2.232,2.235,2.235,0,0,1-2.232,2.233Zm45.663-58.6a1.82,1.82,0,0,0-1.821,1.82v40.856H-1173.4a1.821,1.821,0,0,0-1.821,1.821,1.82,1.82,0,0,0,1.821,1.82h8.376v4.467a5.882,5.882,0,0,0-4.052,5.582,5.879,5.879,0,0,0,5.872,5.873,5.879,5.879,0,0,0,5.873-5.873,5.882,5.882,0,0,0-4.053-5.582V3597.8h43.843a1.82,1.82,0,0,0,1.82-1.82V3553.3a1.82,1.82,0,0,0-1.82-1.82Z" fill="#4384cd"/>
        <path id="Trazado_2065" data-name="Trazado 2065" d="M-1186.335,3629.134a1.259,1.259,0,0,1-1.257,1.258h-6.956a1.259,1.259,0,0,1-1.258-1.258v-.83a1.259,1.259,0,0,1,1.258-1.258h6.955a1.259,1.259,0,0,1,1.258,1.258v.83Zm-31.522-21.113h4a1.82,1.82,0,0,0,1.82-1.821v-3.236l0-.024a7.1,7.1,0,0,1,7.095-7.095h19.918a4.862,4.862,0,0,1-4.854,4.731h-7.482a1.824,1.824,0,0,0-1.334.584,1.823,1.823,0,0,0-.481,1.375c0,.047.316,4.71-2.075,7.284a5.766,5.766,0,0,1-4.482,1.715,1.82,1.82,0,0,0-1.82,1.82,1.82,1.82,0,0,0,1.82,1.82,9.61,9.61,0,0,0,6.224-2.016l-6.036,6.947a1.82,1.82,0,0,0,.18,2.568,1.813,1.813,0,0,0,1.193.446,1.817,1.817,0,0,0,1.375-.627l5.847-6.729a5.153,5.153,0,0,0,.688,1.427,5.154,5.154,0,0,0-1.65,3.778v.905a5.134,5.134,0,0,0,.591,2.393,4.892,4.892,0,0,0-2.123,3.888h-18.418v-20.133Zm22.266-3.279c.016-.182.031-.359.041-.525h.09a5.012,5.012,0,0,0-.131.525Zm.213,3.667-2.054,2.365a13.719,13.719,0,0,0,1.752-5.243c0,.073-.011.144-.011.218v.905a5.134,5.134,0,0,0,.313,1.755Zm11.752,13.464a1.534,1.534,0,0,1-1.532,1.532h-7.577a1.534,1.534,0,0,1-1.532-1.532v-.9a1.535,1.535,0,0,1,1.532-1.533h7.577a1.535,1.535,0,0,1,1.532,1.533v.9Zm.739-8.514v.9a1.534,1.534,0,0,1-1.533,1.532H-1192a1.533,1.533,0,0,1-1.532-1.532v-.9a1.534,1.534,0,0,1,1.532-1.533h7.576a1.535,1.535,0,0,1,1.533,1.533Zm1.477-7.61v.905a1.533,1.533,0,0,1-1.532,1.532h-7.577a1.534,1.534,0,0,1-1.532-1.532v-.905a1.534,1.534,0,0,1,1.532-1.532h7.577a1.533,1.533,0,0,1,1.532,1.532Zm-1.5-5.171.013-.019c.1-.143.2-.288.286-.437.021-.034.039-.069.06-.1q.113-.192.216-.39c.027-.053.054-.1.08-.158.078-.156.151-.316.219-.478.02-.045.037-.092.055-.139.054-.135.1-.273.152-.412.016-.046.032-.091.047-.136l21.4-24.635a1.82,1.82,0,0,0-.181-2.568,1.821,1.821,0,0,0-2.568.181l-19.168,22.068c-.034-.037-.066-.076-.1-.112a3.482,3.482,0,0,0-2.491-1.036h-20.044a10.749,10.749,0,0,0-10.737,10.737v1.439h-2.183v-.691a1.82,1.82,0,0,0-1.82-1.82h-13.1a1.82,1.82,0,0,0-1.821,1.82,1.82,1.82,0,0,0,1.821,1.82h11.277v25.157h-7.833a1.82,1.82,0,0,0-1.82,1.82,1.82,1.82,0,0,0,1.82,1.82h9.653a1.82,1.82,0,0,0,1.82-1.82v-.691h19.2a4.9,4.9,0,0,0,4.107,2.237h6.956a4.9,4.9,0,0,0,4.9-4.9v-.831a4.863,4.863,0,0,0-.321-1.728,5.176,5.176,0,0,0,3.029-4.7v-.905a5.142,5.142,0,0,0-.912-2.927,5.155,5.155,0,0,0,1.651-3.778v-.905a5.133,5.133,0,0,0-.662-2.524,5.162,5.162,0,0,0,2.14-4.181v-.905a5.178,5.178,0,0,0-5.14-5.17Z" fill="#4384cd"/>
        <path id="Trazado_2066" data-name="Trazado 2066" d="M-1223.114,3627.436v-.227a1.82,1.82,0,0,0-1.82-1.82,1.82,1.82,0,0,0-1.82,1.82v.227a1.82,1.82,0,0,0,1.82,1.82,1.82,1.82,0,0,0,1.82-1.82Z" fill="#4384cd"/>
        <path id="Trazado_2067" data-name="Trazado 2067" d="M-1112.155,3517.61H-1184.6a1.82,1.82,0,0,0-1.82,1.82,1.82,1.82,0,0,0,1.82,1.82h70.624v7.939h-98.461v-7.939h20.557a1.82,1.82,0,0,0,1.82-1.82,1.82,1.82,0,0,0-1.82-1.82h-22.378a1.82,1.82,0,0,0-1.82,1.82v11.58a1.82,1.82,0,0,0,1.82,1.82h3.569V3587.6a1.82,1.82,0,0,0,1.82,1.82,1.821,1.821,0,0,0,1.821-1.82V3532.83h87.683v13.189a1.821,1.821,0,0,0,1.821,1.82,1.82,1.82,0,0,0,1.82-1.82V3532.83h3.569a1.82,1.82,0,0,0,1.82-1.82v-11.58a1.82,1.82,0,0,0-1.82-1.82Z" fill="#4384cd"/>
        <path id="Trazado_2068" data-name="Trazado 2068" d="M-1174.327,3551.6a2.071,2.071,0,0,1,2.069,2.068,2.071,2.071,0,0,1-2.069,2.069,2.071,2.071,0,0,1-2.068-2.069,2.071,2.071,0,0,1,2.068-2.068Zm22.241,13.715a2.071,2.071,0,0,1,2.068,2.068,2.071,2.071,0,0,1-2.068,2.069,2.071,2.071,0,0,1-2.069-2.069,2.071,2.071,0,0,1,2.069-2.068Zm22.24-18.991a2.072,2.072,0,0,1,2.068,2.069,2.071,2.071,0,0,1-2.068,2.069,2.071,2.071,0,0,1-2.069-2.069,2.072,2.072,0,0,1,2.069-2.069Zm-66.721,29.771a2.071,2.071,0,0,1-2.069-2.069,2.071,2.071,0,0,1,2.069-2.069,2.071,2.071,0,0,1,2.069,2.069,2.071,2.071,0,0,1-2.069,2.069Zm0-7.778a5.715,5.715,0,0,0-5.709,5.709,5.715,5.715,0,0,0,5.709,5.709,5.715,5.715,0,0,0,5.709-5.709,5.669,5.669,0,0,0-.5-2.323l14.208-13.073a5.668,5.668,0,0,0,2.819.748,5.683,5.683,0,0,0,3.609-1.289l13.068,8.017a5.721,5.721,0,0,0-.146,1.278,5.716,5.716,0,0,0,5.709,5.709,5.716,5.716,0,0,0,5.71-5.709,5.67,5.67,0,0,0-.414-2.129l14.013-11.965a5.669,5.669,0,0,0,2.932.813,5.716,5.716,0,0,0,5.709-5.71,5.715,5.715,0,0,0-5.709-5.709,5.716,5.716,0,0,0-5.709,5.709,5.666,5.666,0,0,0,.413,2.129l-14.013,11.965a5.672,5.672,0,0,0-2.931-.812,5.684,5.684,0,0,0-3.658,1.329l-13.034-7.995a5.7,5.7,0,0,0,.161-1.34,5.716,5.716,0,0,0-5.709-5.709,5.716,5.716,0,0,0-5.71,5.709,5.676,5.676,0,0,0,.462,2.248l-14.245,13.107a5.673,5.673,0,0,0-2.748-.707Z" fill="#4384cd"/>
      </g>
    </g>
  </g>
</svg>
