<svg xmlns="http://www.w3.org/2000/svg" xmlns:xlink="http://www.w3.org/1999/xlink" width="144.693" height="133.022" viewBox="0 0 144.693 133.022">
  <defs>
    <linearGradient id="linear-gradient" x1="0.5" y1="1" x2="0.5" gradientUnits="objectBoundingBox">
      <stop offset="0" stop-color="#cbf1f6"/>
      <stop offset="1" stop-color="#fff"/>
    </linearGradient>
  </defs>
  <g id="Grupo_10731" data-name="Grupo 10731" transform="translate(-182.029 -7171.31)">
    <path id="Trazado_1997" data-name="Trazado 1997" d="M316.091,7172.473H193.564a9.424,9.424,0,0,0-9.425,9.425v79.245a9.424,9.424,0,0,0,9.425,9.425H241.6l-5.258,20.1h-10a5.718,5.718,0,0,0-5.719,5.719v.421a5.718,5.718,0,0,0,5.719,5.719h56.989a5.719,5.719,0,0,0,5.72-5.719v-.421a5.719,5.719,0,0,0-5.72-5.719H272.411l-5.258-20.1h48.938a9.425,9.425,0,0,0,9.426-9.425V7181.9A9.425,9.425,0,0,0,316.091,7172.473Z" fill="url(#linear-gradient)"/>
    <g id="Grupo_10730" data-name="Grupo 10730">
      <g id="Grupo_10729" data-name="Grupo 10729">
        <path id="Trazado_1998" data-name="Trazado 1998" d="M324.6,7192.279a2.12,2.12,0,0,0,2.119-2.12V7180.4a9.1,9.1,0,0,0-9.084-9.085H191.113a9.1,9.1,0,0,0-9.084,9.085v82.728a9.1,9.1,0,0,0,9.084,9.085h47.23l-4.664,16.651h-8.471a7.737,7.737,0,0,0,0,15.473h58.333a7.737,7.737,0,1,0,0-15.473h-8.469l-4.666-16.651h47.23a9.1,9.1,0,0,0,9.086-9.085v-63.055a2.119,2.119,0,0,0-4.239,0v52.666H209.406a2.12,2.12,0,1,0,0,4.239H322.483v6.15a4.851,4.851,0,0,1-4.845,4.846H191.113a4.851,4.851,0,0,1-4.845-4.846v-6.15h13.244a2.12,2.12,0,0,0,0-4.239H186.268V7180.4a4.852,4.852,0,0,1,4.845-4.846H317.636a4.852,4.852,0,0,1,4.847,4.846v9.764a2.121,2.121,0,0,0,2.12,2.12ZM287.04,7296.6a3.5,3.5,0,0,1-3.5,3.5H225.21a3.5,3.5,0,1,1,0-6.995h58.331a3.5,3.5,0,0,1,3.5,3.5Zm-16.371-7.736H238.082l4.664-16.651h23.259Zm0,0" fill="#4384cd"/>
        <path id="Trazado_1999" data-name="Trazado 1999" d="M305.48,7193H270.761a2.119,2.119,0,1,0,0,4.239H305.48a2.119,2.119,0,0,0,0-4.239Zm0,0" fill="#4384cd"/>
        <path id="Trazado_2000" data-name="Trazado 2000" d="M305.48,7205.919H270.761a2.12,2.12,0,1,0,0,4.239H305.48a2.12,2.12,0,0,0,0-4.239Zm0,0" fill="#4384cd"/>
        <path id="Trazado_2001" data-name="Trazado 2001" d="M307.6,7220.959a2.12,2.12,0,0,0-2.119-2.12H270.761a2.12,2.12,0,1,0,0,4.239H305.48a2.119,2.119,0,0,0,2.119-2.119Zm0,0" fill="#4384cd"/>
        <path id="Trazado_2002" data-name="Trazado 2002" d="M270.761,7231.76a2.12,2.12,0,1,0,0,4.239H288.12a2.12,2.12,0,1,0,0-4.239Zm0,0" fill="#4384cd"/>
        <path id="Trazado_2003" data-name="Trazado 2003" d="M201.151,7214.5a29.479,29.479,0,1,0,29.48-29.478,29.514,29.514,0,0,0-29.48,29.478Zm4.24,0a25.273,25.273,0,0,1,23.12-25.151V7214.5a2.133,2.133,0,0,0,.5,1.367l.018.024,16.5,18.986a25.242,25.242,0,0,1-40.136-20.377Zm43.335,17.6-13.122-15.1,19.955,1.472a24.993,24.993,0,0,1-6.833,13.631Zm7.137-17.86-23.113-1.7v-23.183a25.27,25.27,0,0,1,23.113,24.887Zm0,0" fill="#4384cd"/>
      </g>
    </g>
  </g>
</svg>
