<svg xmlns="http://www.w3.org/2000/svg" xmlns:xlink="http://www.w3.org/1999/xlink" width="133.103" height="133.205" viewBox="0 0 133.103 133.205">
  <defs>
    <linearGradient id="linear-gradient" x1="0.5" y1="1" x2="0.5" gradientUnits="objectBoundingBox">
      <stop offset="0" stop-color="#cbf1f6"/>
      <stop offset="1" stop-color="#fff"/>
    </linearGradient>
  </defs>
  <g id="Grupo_10728" data-name="Grupo 10728" transform="translate(-187.824 -6914.114)">
    <g id="Grupo_10725" data-name="Grupo 10725">
      <path id="Trazado_1981" data-name="Trazado 1981" d="M302.03,6947.881a14.19,14.19,0,0,0-7.22,1.976,28.268,28.268,0,1,0-55.195-12.235,15.945,15.945,0,0,0-26.558,17h-1.005a13.287,13.287,0,1,0-10.939,20.825h8.481a2.469,2.469,0,0,0-.192.955v11.471a2.488,2.488,0,0,0,2.487,2.487h80.139a2.487,2.487,0,0,0,2.487-2.487V6976.4a2.487,2.487,0,0,0-.191-.955h2.513a14.273,14.273,0,1,0,5.193-27.566Z" fill="url(#linear-gradient)"/>
      <rect id="Rect치ngulo_2841" data-name="Rect치ngulo 2841" width="85.113" height="16.445" rx="2.487" transform="translate(209.402 6998.559)" fill="url(#linear-gradient)"/>
      <rect id="Rect치ngulo_2842" data-name="Rect치ngulo 2842" width="85.113" height="16.445" rx="2.487" transform="translate(209.402 7026.62)" fill="url(#linear-gradient)"/>
    </g>
    <g id="Grupo_10727" data-name="Grupo 10727">
      <g id="Grupo_10726" data-name="Grupo 10726">
        <path id="Trazado_1982" data-name="Trazado 1982" d="M305.39,6947.44a15.826,15.826,0,0,0-4.775.734,28.558,28.558,0,0,0,.223-3.508,31.074,31.074,0,0,0-59.928-11,19.135,19.135,0,0,0-29.212,15.9,15.856,15.856,0,0,0-7.952-2.124,15.537,15.537,0,0,0,0,31.074,2.219,2.219,0,0,0,0-4.439,11.1,11.1,0,1,1,9.544-17.053,2.22,2.22,0,0,0,3.915-2.048,14.057,14.057,0,0,1-1.074-5.314,14.587,14.587,0,0,1,14.715-14.427,14.817,14.817,0,0,1,9.733,3.693,2.22,2.22,0,0,0,3.6-1.081,26.623,26.623,0,0,1,52.206,6.821,25.812,25.812,0,0,1-.965,6.88,2.219,2.219,0,0,0,3.41,2.413,11.378,11.378,0,0,1,6.562-2.08,11.1,11.1,0,0,1,0,22.2,2.219,2.219,0,1,0,0,4.439,15.537,15.537,0,0,0,0-31.074Zm0,0" fill="#4384cd"/>
        <path id="Trazado_1983" data-name="Trazado 1983" d="M292.293,6998.49H216.829a6.659,6.659,0,0,0-6.659,6.658v8.878a6.66,6.66,0,0,0,6.659,6.659h75.464a6.659,6.659,0,0,0,6.659-6.659v-8.878a6.658,6.658,0,0,0-6.659-6.658Zm2.22,15.536a2.22,2.22,0,0,1-2.22,2.22H216.829a2.221,2.221,0,0,1-2.22-2.22v-8.878a2.22,2.22,0,0,1,2.22-2.219h75.464a2.219,2.219,0,0,1,2.22,2.219Zm0,0" fill="#4384cd"/>
        <path id="Trazado_1984" data-name="Trazado 1984" d="M286.138,7005.285a4.3,4.3,0,1,0,4.328,4.275,4.3,4.3,0,0,0-4.328-4.275Zm.052,4.442c-.067,0-.11-.073-.11-.14l.11-.137Zm0,0" fill="#4384cd"/>
        <path id="Trazado_1985" data-name="Trazado 1985" d="M263,7007.368H220.825a2.219,2.219,0,1,0,0,4.439H263a2.219,2.219,0,0,0,0-4.439Zm0,0" fill="#4384cd"/>
        <path id="Trazado_1986" data-name="Trazado 1986" d="M276.7,7007.368h-5.9a2.219,2.219,0,1,0,0,4.439h5.9a2.219,2.219,0,0,0,0-4.439Zm0,0" fill="#4384cd"/>
        <path id="Trazado_1987" data-name="Trazado 1987" d="M292.293,7025.124H216.829a6.66,6.66,0,0,0-6.659,6.659v8.878a6.66,6.66,0,0,0,6.659,6.658h75.464a6.658,6.658,0,0,0,6.659-6.658v-8.878a6.659,6.659,0,0,0-6.659-6.659Zm2.22,15.537a2.219,2.219,0,0,1-2.22,2.219H216.829a2.22,2.22,0,0,1-2.22-2.219v-8.878a2.221,2.221,0,0,1,2.22-2.22h75.464a2.22,2.22,0,0,1,2.22,2.22Zm0,0" fill="#4384cd"/>
        <path id="Trazado_1988" data-name="Trazado 1988" d="M286.138,7031.92a4.3,4.3,0,1,0,4.328,4.274,4.3,4.3,0,0,0-4.328-4.274Zm.052,4.442c-.067,0-.11-.074-.11-.14l.11-.137Zm0,0" fill="#4384cd"/>
        <path id="Trazado_1989" data-name="Trazado 1989" d="M263,7034H220.825a2.219,2.219,0,1,0,0,4.439H263a2.219,2.219,0,0,0,0-4.439Zm0,0" fill="#4384cd"/>
        <path id="Trazado_1990" data-name="Trazado 1990" d="M276.7,7034h-5.9a2.219,2.219,0,1,0,0,4.439h5.9a2.219,2.219,0,0,0,0-4.439Zm0,0" fill="#4384cd"/>
        <path id="Trazado_1991" data-name="Trazado 1991" d="M292.293,6971.855H216.829a6.66,6.66,0,0,0-6.659,6.659v8.878a6.66,6.66,0,0,0,6.659,6.658h75.464a6.658,6.658,0,0,0,6.659-6.658v-8.878a6.659,6.659,0,0,0-6.659-6.659Zm2.22,15.537a2.219,2.219,0,0,1-2.22,2.219H216.829a2.22,2.22,0,0,1-2.22-2.219v-8.878a2.221,2.221,0,0,1,2.22-2.22h75.464a2.22,2.22,0,0,1,2.22,2.22Zm0,0" fill="#4384cd"/>
        <path id="Trazado_1992" data-name="Trazado 1992" d="M289.769,6982.347a4.341,4.341,0,0,0-7.812-1.734,4.248,4.248,0,0,0-.714,3.207,4.344,4.344,0,0,0,4.27,3.572,4.305,4.305,0,0,0,4.256-5.045Zm-4.368.78.1-.174.01.277c-.1,0-.106-.056-.11-.1Zm0,0" fill="#4384cd"/>
        <path id="Trazado_1993" data-name="Trazado 1993" d="M262.552,6980.733H220.381a2.219,2.219,0,1,0,0,4.439h42.171a2.219,2.219,0,1,0,0-4.439Zm0,0" fill="#4384cd"/>
        <path id="Trazado_1994" data-name="Trazado 1994" d="M275.284,6980.733h-5.9a2.219,2.219,0,1,0,0,4.439h5.9a2.219,2.219,0,1,0,0-4.439Zm0,0" fill="#4384cd"/>
        <path id="Trazado_1995" data-name="Trazado 1995" d="M245.033,6950.31l-6.659-6.659a2.217,2.217,0,0,0-3.137,0l-6.658,6.659a2.219,2.219,0,0,0,3.137,3.138l2.869-2.869V6965.2a2.219,2.219,0,1,0,4.439,0v-14.617l2.872,2.869a2.219,2.219,0,0,0,3.137-3.138Zm0,0" fill="#4384cd"/>
        <path id="Trazado_1996" data-name="Trazado 1996" d="M280.492,6956.969a2.219,2.219,0,0,0-3.084,0l-2.871,2.869v-14.617a2.219,2.219,0,1,0-4.439,0v14.617l-2.869-2.869a2.219,2.219,0,0,0-3.138,3.138l6.659,6.659a2.221,2.221,0,0,0,3.137,0l6.659-6.659a2.218,2.218,0,0,0-.054-3.138Zm0,0" fill="#4384cd"/>
      </g>
    </g>
  </g>
</svg>
