<svg xmlns="http://www.w3.org/2000/svg" xmlns:xlink="http://www.w3.org/1999/xlink" width="111.51" height="111.51" viewBox="0 0 111.51 111.51">
  <defs>
    <linearGradient id="linear-gradient" x1="0.5" y1="1" x2="0.5" gradientUnits="objectBoundingBox">
      <stop offset="0" stop-color="#cbf1f6"/>
      <stop offset="1" stop-color="#fff"/>
    </linearGradient>
  </defs>
  <g id="Grupo_10803" data-name="Grupo 10803" transform="translate(1330.549 -1825.318)">
    <g id="Grupo_10801" data-name="Grupo 10801">
      <g id="Grupo_10800" data-name="Grupo 10800">
        <path id="Trazado_2094" data-name="Trazado 2094" d="M-1269.56,1914.008v-7.881c3.68-1.513,3.529-6.226,3.529-6.226v-8.053a10,10,0,0,0-.449-2.828c.148.011.3.022.449.022a5.789,5.789,0,0,0,5.79-5.789,5.79,5.79,0,0,0-5.79-5.789,5.79,5.79,0,0,0-5.789,5.789c0,.141.012.279.022.417a10.823,10.823,0,0,0-3.053-.417c-7.612,0-8.812,8.437-8.812,8.437v8.211a7.694,7.694,0,0,0,2.843,6.226v7.881c-7.264,0-10.364,6.994-10.364,6.994l-1.479,11.017c.473,1.957,4.422,3.1,4.422,3.1h25.264c4.738,0,5.686-3.1,5.686-3.1s.157-6.536-2.312-11.747S-1269.56,1914.008-1269.56,1914.008Z" fill="url(#linear-gradient)"/>
        <path id="Trazado_2095" data-name="Trazado 2095" d="M-1305.476,1914.008v-7.881c3.681-1.513,3.53-6.226,3.53-6.226v-8.053c0-2.369-1.209-8.595-8.821-8.595s-8.811,8.437-8.811,8.437v8.211a7.7,7.7,0,0,0,2.842,6.226v7.881c-7.263,0-10.363,6.994-10.363,6.994l-1.48,11.017c.474,1.957,4.423,3.1,4.423,3.1h25.264c4.738,0,5.685-3.1,5.685-3.1s.158-6.536-2.311-11.747S-1305.476,1914.008-1305.476,1914.008Z" fill="url(#linear-gradient)"/>
        <path id="Trazado_2096" data-name="Trazado 2096" d="M-1233.394,1914.008v-7.881c3.68-1.513,3.53-6.226,3.53-6.226v-8.053c0-2.369-1.209-8.595-8.821-8.595s-8.811,8.437-8.811,8.437v8.211a7.694,7.694,0,0,0,2.843,6.226v7.881c-7.264,0-10.364,6.994-10.364,6.994l-1.48,11.017c.474,1.957,4.423,3.1,4.423,3.1h25.265c4.737,0,5.684-3.1,5.684-3.1s.158-6.536-2.311-11.747S-1233.394,1914.008-1233.394,1914.008Z" fill="url(#linear-gradient)"/>
        <path id="Trazado_2097" data-name="Trazado 2097" d="M-1313.835,1857.354a15.191,15.191,0,0,0,15.191-15.192,15.191,15.191,0,0,0-15.191-15.191,15.192,15.192,0,0,0-15.192,15.191A15.192,15.192,0,0,0-1313.835,1857.354Z" fill="url(#linear-gradient)"/>
        <path id="Trazado_2098" data-name="Trazado 2098" d="M-1274.794,1857.354a15.192,15.192,0,0,0,15.191-15.192,15.191,15.191,0,0,0-15.191-15.191,15.191,15.191,0,0,0-15.191,15.191A15.192,15.192,0,0,0-1274.794,1857.354Z" fill="url(#linear-gradient)"/>
        <path id="Trazado_2099" data-name="Trazado 2099" d="M-1235.753,1857.354a15.192,15.192,0,0,0,15.191-15.192,15.191,15.191,0,0,0-15.191-15.191,15.192,15.192,0,0,0-15.192,15.191A15.192,15.192,0,0,0-1235.753,1857.354Z" fill="url(#linear-gradient)"/>
      </g>
    </g>
    <path id="Trazado_2100" data-name="Trazado 2100" d="M-1219.217,1927.916l-.884-4.926a12.309,12.309,0,0,0-7.9-9.38l-3.466-1.258v-5.612l.052-.049a11.06,11.06,0,0,0,3.307-7.845v-6.486a10.716,10.716,0,0,0-10.7-10.7,10.715,10.715,0,0,0-10.7,10.7v6.689a10.684,10.684,0,0,0,3.362,7.757v5.636l-3.3,1.2a12.351,12.351,0,0,0-7.289,7.192,12.322,12.322,0,0,0-7.3-7.22l-3.466-1.258v-5.612l.052-.049a11.063,11.063,0,0,0,3.306-7.845v-6.486a10.735,10.735,0,0,0-.2-2.073,7.225,7.225,0,0,0,5.522-7.012,7.221,7.221,0,0,0-7.214-7.213,7.224,7.224,0,0,0-7.061,5.74,10.725,10.725,0,0,0-1.747-.146,10.716,10.716,0,0,0-10.7,10.7v6.689a10.686,10.686,0,0,0,3.362,7.758v5.635l-3.3,1.2a12.341,12.341,0,0,0-7.291,7.192,12.323,12.323,0,0,0-7.3-7.22l-3.468-1.258v-5.611c.017-.017.036-.033.054-.05a11.067,11.067,0,0,0,3.306-7.845v-6.486a10.716,10.716,0,0,0-10.7-10.7,10.716,10.716,0,0,0-10.7,10.7v6.689a10.681,10.681,0,0,0,3.362,7.758v5.635l-3.3,1.2a12.334,12.334,0,0,0-7.87,9.233l-.948,4.955a7.555,7.555,0,0,0,1.6,6.253,7.557,7.557,0,0,0,5.84,2.748h2.591a1.632,1.632,0,0,0,1.633-1.633,1.633,1.633,0,0,0-1.633-1.634h-2.591a4.3,4.3,0,0,1-3.323-1.564,4.3,4.3,0,0,1-.909-3.556l.948-4.956a9.049,9.049,0,0,1,5.775-6.776l3.595-1.3a10.308,10.308,0,0,0,5.936,1.866,10.318,10.318,0,0,0,6.019-1.924l3.675,1.333a9.039,9.039,0,0,1,5.8,6.883l.88,4.924a4.453,4.453,0,0,1,.07.778,4.31,4.31,0,0,1-4.311,4.3h-15.2a1.634,1.634,0,0,0-1.634,1.634,1.634,1.634,0,0,0,1.634,1.633h15.2a7.566,7.566,0,0,0,5.943-2.882,7.574,7.574,0,0,0,5.947,2.882h24.152a7.558,7.558,0,0,0,5.81-2.713c.046-.057.09-.114.135-.171.036.045.07.092.107.137a7.554,7.554,0,0,0,5.838,2.747h24.151a7.557,7.557,0,0,0,5.809-2.712,7.566,7.566,0,0,0,1.652-6.2Zm-99.113-35.557a7.445,7.445,0,0,1,7.437-7.437,7.45,7.45,0,0,1,7.332,6.2,14.818,14.818,0,0,1-1.557.732c-3.08,1.234-5.795,1.16-6.786.465a1.636,1.636,0,0,0-2.276.4,1.636,1.636,0,0,0,.4,2.276,7.254,7.254,0,0,0,4.155,1.088,15.7,15.7,0,0,0,5.722-1.195q.227-.09.447-.188v4.148a7.779,7.779,0,0,1-2.326,5.513,7.237,7.237,0,0,1-5.257,2.126,7.474,7.474,0,0,1-7.29-7.436Zm3.363,20.361v-3.785a10.569,10.569,0,0,0,3.865.816h.2a10.384,10.384,0,0,0,4.081-.833v3.8a7.09,7.09,0,0,1-8.15,0Zm68.721-20.361a7.445,7.445,0,0,1,7.436-7.437,7.446,7.446,0,0,1,7.331,6.2,14.619,14.619,0,0,1-1.556.732c-3.08,1.234-5.795,1.16-6.785.465a1.635,1.635,0,0,0-2.276.4,1.634,1.634,0,0,0,.4,2.276,7.25,7.25,0,0,0,4.154,1.088,15.7,15.7,0,0,0,5.723-1.195c.151-.06.3-.123.447-.188v4.148a7.776,7.776,0,0,1-2.328,5.513,7.234,7.234,0,0,1-5.255,2.126,7.474,7.474,0,0,1-7.29-7.436Zm7.226,17.392h.2a10.379,10.379,0,0,0,4.084-.834v3.8a7.091,7.091,0,0,1-8.152,0v-3.785a10.562,10.562,0,0,0,3.864.817Zm-27.023-30.423a3.95,3.95,0,0,1,3.946,3.946,3.95,3.95,0,0,1-3.392,3.9,10.774,10.774,0,0,0-4.475-4.337,3.95,3.95,0,0,1,3.921-3.514Zm-16.245,13.031a7.445,7.445,0,0,1,7.437-7.437,7.445,7.445,0,0,1,7.437,7.437v.238a6.6,6.6,0,0,1-1.129.585,6.593,6.593,0,0,1-7.536-1.9,1.633,1.633,0,0,0-2.3-.209,1.635,1.635,0,0,0-.21,2.3,9.851,9.851,0,0,0,7.577,3.558,9.873,9.873,0,0,0,3.6-.681v2.6a7.776,7.776,0,0,1-2.328,5.513,7.234,7.234,0,0,1-5.255,2.126,7.475,7.475,0,0,1-7.291-7.436Zm7.227,17.392h.2a10.383,10.383,0,0,0,4.084-.834v3.851l-4.077,3.56-4.076-3.56v-3.834a10.589,10.589,0,0,0,3.865.816Zm15.646,22.267a4.3,4.3,0,0,1-3.3,1.543h-24.152a4.31,4.31,0,0,1-4.313-4.3,4.465,4.465,0,0,1,.08-.822l.948-4.955a9.059,9.059,0,0,1,5.779-6.777l3.528-1.281,4.923,4.3a1.63,1.63,0,0,0,1.075.4,1.627,1.627,0,0,0,1.074-.4l5-4.361,3.624,1.314a9.042,9.042,0,0,1,5.8,6.883l.881,4.929a4.3,4.3,0,0,1-.938,3.526Zm36.041,0a4.3,4.3,0,0,1-3.3,1.542h-24.151a4.292,4.292,0,0,1-3.32-1.563,4.294,4.294,0,0,1-.913-3.557l.949-4.956a9.055,9.055,0,0,1,5.778-6.776l3.591-1.3a10.326,10.326,0,0,0,5.938,1.864,10.312,10.312,0,0,0,6.018-1.924l3.675,1.334a9.04,9.04,0,0,1,5.8,6.884l.882,4.927a4.3,4.3,0,0,1-.94,3.528Zm0,0" fill="#4384cd"/>
    <g id="Grupo_10802" data-name="Grupo 10802">
      <path id="Trazado_2101" data-name="Trazado 2101" d="M-1297.122,1842.032a16.733,16.733,0,0,0-16.714-16.714,16.733,16.733,0,0,0-16.713,16.714,16.733,16.733,0,0,0,16.713,16.714,16.732,16.732,0,0,0,16.714-16.714Zm-30.16,0a13.462,13.462,0,0,1,13.446-13.447,13.463,13.463,0,0,1,13.448,13.447,13.463,13.463,0,0,1-13.448,13.447,13.462,13.462,0,0,1-13.446-13.447Zm0,0" fill="#4384cd"/>
      <path id="Trazado_2102" data-name="Trazado 2102" d="M-1235.753,1825.318a16.733,16.733,0,0,0-16.714,16.714,16.733,16.733,0,0,0,16.714,16.714,16.733,16.733,0,0,0,16.714-16.714,16.733,16.733,0,0,0-16.714-16.714Zm0,30.161a13.462,13.462,0,0,1-13.447-13.447,13.463,13.463,0,0,1,13.447-13.447,13.463,13.463,0,0,1,13.447,13.447,13.462,13.462,0,0,1-13.447,13.447Zm0,0" fill="#4384cd"/>
      <path id="Trazado_2103" data-name="Trazado 2103" d="M-1230.546,1836.924l-8.229,8.228-2.185-2.186a1.633,1.633,0,0,0-2.31,0,1.631,1.631,0,0,0,0,2.31l3.341,3.342a1.634,1.634,0,0,0,1.156.477,1.635,1.635,0,0,0,1.155-.477l9.383-9.384a1.635,1.635,0,0,0,0-2.31,1.635,1.635,0,0,0-2.311,0Zm0,0" fill="#4384cd"/>
      <path id="Trazado_2104" data-name="Trazado 2104" d="M-1274.794,1858.746a16.733,16.733,0,0,0,16.713-16.714,16.733,16.733,0,0,0-16.713-16.714,16.733,16.733,0,0,0-16.714,16.714,16.733,16.733,0,0,0,16.714,16.714Zm0-30.161a13.462,13.462,0,0,1,13.446,13.447,13.461,13.461,0,0,1-13.446,13.447,13.462,13.462,0,0,1-13.447-13.447,13.463,13.463,0,0,1,13.447-13.447Zm0,0" fill="#4384cd"/>
      <path id="Trazado_2105" data-name="Trazado 2105" d="M-1278.4,1838.843a1.633,1.633,0,0,0,1.634-1.633,1.954,1.954,0,0,1,.62-1.434,1.961,1.961,0,0,1,1.475-.529,1.986,1.986,0,0,1,1.834,1.833,1.967,1.967,0,0,1-1.114,1.9,4.405,4.405,0,0,0-2.482,3.951v1.886a1.634,1.634,0,0,0,1.634,1.633,1.633,1.633,0,0,0,1.633-1.633v-1.886a1.118,1.118,0,0,1,.63-1.005,5.222,5.222,0,0,0,2.96-5.051,5.235,5.235,0,0,0-4.892-4.893,5.193,5.193,0,0,0-3.915,1.41,5.254,5.254,0,0,0-1.65,3.814,1.633,1.633,0,0,0,1.633,1.633Zm0,0" fill="#4384cd"/>
      <path id="Trazado_2106" data-name="Trazado 2106" d="M-1273.161,1849.924a1.634,1.634,0,0,1-1.633,1.634,1.634,1.634,0,0,1-1.634-1.634,1.634,1.634,0,0,1,1.634-1.633,1.634,1.634,0,0,1,1.633,1.633Zm0,0" fill="#4384cd"/>
      <path id="Trazado_2107" data-name="Trazado 2107" d="M-1312.2,1834.107a1.634,1.634,0,0,1-1.634,1.634,1.634,1.634,0,0,1-1.633-1.634,1.632,1.632,0,0,1,1.633-1.633,1.632,1.632,0,0,1,1.634,1.633Zm0,0" fill="#4384cd"/>
      <path id="Trazado_2108" data-name="Trazado 2108" d="M-1311.341,1850.917a1.634,1.634,0,0,0,1.633-1.634,1.633,1.633,0,0,0-1.633-1.633h-.861v-8.435a1.638,1.638,0,0,0-.7-1.342,1.634,1.634,0,0,0-1.5-.188l-1.422.528a1.632,1.632,0,0,0-.96,2.1,1.633,1.633,0,0,0,1.319,1.051v6.285h-.861a1.633,1.633,0,0,0-1.634,1.633,1.634,1.634,0,0,0,1.634,1.634Zm0,0" fill="#4384cd"/>
      <path id="Trazado_2109" data-name="Trazado 2109" d="M-1235.753,1861.573a1.633,1.633,0,0,0-1.633,1.634,3.794,3.794,0,0,1-3.79,3.789h-31.985v-3.789a1.634,1.634,0,0,0-1.633-1.634,1.635,1.635,0,0,0-1.634,1.634V1867h-32.7a3.794,3.794,0,0,1-3.789-3.789,1.633,1.633,0,0,0-1.633-1.634,1.635,1.635,0,0,0-1.634,1.634,7.064,7.064,0,0,0,7.056,7.056h32.7v4.49a1.634,1.634,0,0,0,1.634,1.633,1.633,1.633,0,0,0,1.633-1.633v-4.49h31.985a7.064,7.064,0,0,0,7.056-7.056,1.633,1.633,0,0,0-1.633-1.634Zm0,0" fill="#4384cd"/>
    </g>
  </g>
</svg>
