<svg xmlns="http://www.w3.org/2000/svg" xmlns:xlink="http://www.w3.org/1999/xlink" width="119.764" height="116.696" viewBox="0 0 119.764 116.696">
  <defs>
    <linearGradient id="linear-gradient" x1="0.5" y1="1" x2="0.5" gradientUnits="objectBoundingBox">
      <stop offset="0" stop-color="#c3e7f9"/>
      <stop offset="1" stop-color="#fff"/>
    </linearGradient>
  </defs>
  <g id="Grupo_10782" data-name="Grupo 10782" transform="translate(866.681 -3517.61)">
    <path id="Trazado_2043" data-name="Trazado 2043" d="M-865.51,3530.77v70.871l2.858,4.867h14.467l2.071,7.145h64.3l1.7-7.145,17.923-.2,5.278,7.349s8.778,1.692,8.166-5.891l-10.82-18.744s7.758-10.878,5.512-21.7-9.6-12.61-9.6-12.61V3530.77l-2.833-3.879h-39.906l-.728-6.941h-14.51l-.864,7.349h-39.761Z" fill="url(#linear-gradient)"/>
    <g id="Grupo_10781" data-name="Grupo 10781">
      <g id="Grupo_10780" data-name="Grupo 10780">
        <path id="Trazado_2044" data-name="Trazado 2044" d="M-806.381,3566.188a2.342,2.342,0,0,1-2.339-2.34,2.341,2.341,0,0,1,2.339-2.339,2.341,2.341,0,0,1,2.339,2.339,2.342,2.342,0,0,1-2.339,2.34Zm-16.1-9.143a2.341,2.341,0,0,1-2.339-2.339,2.342,2.342,0,0,1,2.339-2.34,2.342,2.342,0,0,1,2.339,2.34,2.341,2.341,0,0,1-2.339,2.339Zm-16.1,9.143a2.343,2.343,0,0,1-2.339-2.34,2.342,2.342,0,0,1,2.339-2.339,2.341,2.341,0,0,1,2.339,2.339,2.342,2.342,0,0,1-2.339,2.34Zm48.306-27.174a2.342,2.342,0,0,1,2.339,2.339,2.342,2.342,0,0,1-2.339,2.339,2.342,2.342,0,0,1-2.34-2.339,2.342,2.342,0,0,1,2.34-2.339Zm0,8.187a5.854,5.854,0,0,0,5.847-5.848,5.855,5.855,0,0,0-5.847-5.848,5.855,5.855,0,0,0-5.848,5.848,5.82,5.82,0,0,0,1.175,3.512l-9.608,13.427a5.837,5.837,0,0,0-1.821-.292,5.824,5.824,0,0,0-3.981,1.57l-6.4-3.634a5.8,5.8,0,0,0,.131-1.23,5.854,5.854,0,0,0-5.847-5.848,5.854,5.854,0,0,0-5.848,5.848,5.866,5.866,0,0,0,.131,1.23l-6.4,3.634a5.824,5.824,0,0,0-3.981-1.57,5.856,5.856,0,0,0-5.848,5.849,5.855,5.855,0,0,0,5.848,5.848,5.855,5.855,0,0,0,5.848-5.848,5.868,5.868,0,0,0-.131-1.23l6.4-3.634a5.829,5.829,0,0,0,3.981,1.569,5.828,5.828,0,0,0,3.98-1.569l6.4,3.634a5.872,5.872,0,0,0-.131,1.23,5.855,5.855,0,0,0,5.848,5.848,5.855,5.855,0,0,0,5.848-5.848,5.818,5.818,0,0,0-1.176-3.513l9.609-13.427a5.8,5.8,0,0,0,1.821.292Z" fill="#4384cd"/>
        <path id="Trazado_2045" data-name="Trazado 2045" d="M-782.75,3611.623a.481.481,0,0,1-.481.48h-62.4a.481.481,0,0,1-.481-.48v-3.861h63.364v3.861Zm14.031-7.37h-93a1.456,1.456,0,0,1-1.454-1.453v-72.378a1.456,1.456,0,0,1,1.454-1.454h8.27a1.754,1.754,0,0,0,1.755-1.754,1.755,1.755,0,0,0-1.755-1.754h-8.27a4.968,4.968,0,0,0-4.962,4.962V3602.8a4.968,4.968,0,0,0,4.962,4.962h12.1v3.861a3.993,3.993,0,0,0,3.989,3.989h17.56l-8.266,16.14a1.754,1.754,0,0,0,.762,2.361,1.746,1.746,0,0,0,.8.193,1.754,1.754,0,0,0,1.563-.955l9.086-17.739h19.4l9.086,17.739a1.754,1.754,0,0,0,1.563.955,1.749,1.749,0,0,0,.8-.193,1.754,1.754,0,0,0,.762-2.361l-8.267-16.14h17.561a3.993,3.993,0,0,0,3.989-3.989v-3.861h10.523a1.754,1.754,0,0,0,1.754-1.754,1.755,1.755,0,0,0-1.754-1.755Z" fill="#4384cd"/>
        <path id="Trazado_2046" data-name="Trazado 2046" d="M-820.66,3522.011a.893.893,0,0,1,.893-.892h10.67a.894.894,0,0,1,.893.892v3.449H-820.66v-3.449Zm-25.771,6.957h79.285a1.455,1.455,0,0,1,1.454,1.454V3547.1a1.754,1.754,0,0,0,1.755,1.754,1.754,1.754,0,0,0,1.754-1.754v-16.681a4.968,4.968,0,0,0-4.963-4.962H-804.7v-3.449a4.406,4.406,0,0,0-4.4-4.4h-10.67a4.406,4.406,0,0,0-4.4,4.4v3.449h-22.262a1.754,1.754,0,0,0-1.754,1.754,1.754,1.754,0,0,0,1.754,1.754Z" fill="#4384cd"/>
        <path id="Trazado_2047" data-name="Trazado 2047" d="M-836.78,3594.168h-3.609v-11.993h3.609v11.993Zm-5.363-15.5a1.754,1.754,0,0,0-1.755,1.754v15.5a1.754,1.754,0,0,0,1.755,1.754h7.117a1.754,1.754,0,0,0,1.754-1.754v-15.5a1.754,1.754,0,0,0-1.754-1.754Z" fill="#4384cd"/>
        <path id="Trazado_2048" data-name="Trazado 2048" d="M-820.679,3594.168h-3.608v-20.959h3.608v20.959Zm-5.363-24.468a1.754,1.754,0,0,0-1.754,1.755v24.467a1.754,1.754,0,0,0,1.754,1.755h7.118a1.755,1.755,0,0,0,1.754-1.755v-24.467a1.755,1.755,0,0,0-1.754-1.755Z" fill="#4384cd"/>
        <path id="Trazado_2049" data-name="Trazado 2049" d="M-804.577,3594.168h-3.609v-11.993h3.609v11.993Zm-5.363-15.5a1.754,1.754,0,0,0-1.754,1.754v15.5a1.754,1.754,0,0,0,1.754,1.754h7.117a1.754,1.754,0,0,0,1.755-1.754v-15.5a1.754,1.754,0,0,0-1.755-1.754Z" fill="#4384cd"/>
        <path id="Trazado_2050" data-name="Trazado 2050" d="M-793.838,3589.018a1.754,1.754,0,0,0-1.755,1.754v5.15a1.755,1.755,0,0,0,1.755,1.755h7.117a1.754,1.754,0,0,0,1.754-1.755,1.754,1.754,0,0,0-1.754-1.754h-5.363v-3.4a1.754,1.754,0,0,0-1.754-1.754Z" fill="#4384cd"/>
        <path id="Trazado_2051" data-name="Trazado 2051" d="M-752.007,3611.974a3.163,3.163,0,0,1-4.317-1.156l-9.681-16.772a23.273,23.273,0,0,0,2.843-1.392,23.229,23.229,0,0,0,2.627-1.77l9.684,16.773a3.165,3.165,0,0,1,.425,1.578,3.17,3.17,0,0,1-1.581,2.739Zm-27.646-20.419a19.291,19.291,0,0,1-11.793-9.049,19.444,19.444,0,0,1,7.109-26.53,19.3,19.3,0,0,1,9.678-2.6,19.433,19.433,0,0,1,16.851,9.706,19.3,19.3,0,0,1,1.941,14.737,19.3,19.3,0,0,1-9.049,11.793,19.3,19.3,0,0,1-14.737,1.94Zm31.841,14.348-10.065-17.432a22.818,22.818,0,0,0,5.4-9.741,22.777,22.777,0,0,0-2.291-17.4,22.955,22.955,0,0,0-31.322-8.393,22.955,22.955,0,0,0-8.393,31.323,22.779,22.779,0,0,0,13.923,10.683,23.024,23.024,0,0,0,5.972.792,22.664,22.664,0,0,0,5.164-.6l10.062,17.433a6.669,6.669,0,0,0,5.787,3.333,6.628,6.628,0,0,0,3.323-.892,6.689,6.689,0,0,0,3.336-5.779,6.672,6.672,0,0,0-.9-3.331Z" fill="#4384cd"/>
        <path id="Trazado_2052" data-name="Trazado 2052" d="M-769.2,3567.316a1.363,1.363,0,0,0,1.363,1.363,1.363,1.363,0,0,0,1.363-1.363c0-3.37-2.953-6.17-6.816-6.714v-1.465a1.363,1.363,0,0,0-1.362-1.364,1.364,1.364,0,0,0-1.364,1.364v1.465c-3.862.545-6.816,3.344-6.816,6.714s2.954,6.169,6.816,6.713v8.136c-2.345-.457-4.089-2.045-4.089-3.944a1.363,1.363,0,0,0-1.363-1.363,1.364,1.364,0,0,0-1.364,1.363c0,3.37,2.954,6.17,6.816,6.713v1.467a1.363,1.363,0,0,0,1.364,1.362,1.362,1.362,0,0,0,1.362-1.362v-1.467c3.863-.545,6.816-3.343,6.816-6.713s-2.953-6.169-6.816-6.713v-8.136c2.345.457,4.09,2.043,4.09,3.944Zm-10.905,0c0-1.9,1.744-3.487,4.089-3.944v7.888c-2.345-.457-4.089-2.044-4.089-3.944Zm10.905,10.905c0,1.9-1.745,3.487-4.09,3.944v-7.888c2.345.457,4.09,2.044,4.09,3.944Zm0,0" fill="#4384cd"/>
      </g>
    </g>
  </g>
</svg>
