<svg xmlns="http://www.w3.org/2000/svg" xmlns:xlink="http://www.w3.org/1999/xlink" width="119.764" height="116.696" viewBox="0 0 119.764 116.696">
  <defs>
    <linearGradient id="linear-gradient" x1="0.5" y1="1" x2="0.5" gradientUnits="objectBoundingBox">
      <stop offset="0" stop-color="#c3e7f9"/>
      <stop offset="1" stop-color="#fff"/>
    </linearGradient>
  </defs>
  <g id="Grupo_10785" data-name="Grupo 10785" transform="translate(501.015 -3517.61)">
    <path id="Trazado_2053" data-name="Trazado 2053" d="M-499.187,3530.632V3601.2l2.846,4.846h14.4l2.063,7.115h64.03l1.7-7.115,17.848-.2,5.255,7.318s8.741,1.685,8.132-5.866l-10.774-18.665s7.724-10.832,5.488-21.61-9.554-12.556-9.554-12.556v-23.835l-2.821-3.862h-39.737l-.725-6.912h-14.448l-.861,7.318h-39.592Z" fill="url(#linear-gradient)"/>
    <g id="Grupo_10784" data-name="Grupo 10784">
      <g id="Grupo_10783" data-name="Grupo 10783">
        <path id="Trazado_2054" data-name="Trazado 2054" d="M-440.715,3566.188a2.342,2.342,0,0,1-2.339-2.34,2.341,2.341,0,0,1,2.339-2.339,2.341,2.341,0,0,1,2.339,2.339,2.342,2.342,0,0,1-2.339,2.34Zm-16.1-9.143a2.341,2.341,0,0,1-2.339-2.339,2.342,2.342,0,0,1,2.339-2.34,2.342,2.342,0,0,1,2.339,2.34,2.341,2.341,0,0,1-2.339,2.339Zm-16.1,9.143a2.343,2.343,0,0,1-2.339-2.34,2.342,2.342,0,0,1,2.339-2.339,2.342,2.342,0,0,1,2.34,2.339,2.343,2.343,0,0,1-2.34,2.34Zm48.306-27.174a2.342,2.342,0,0,1,2.339,2.339,2.342,2.342,0,0,1-2.339,2.339,2.341,2.341,0,0,1-2.339-2.339,2.341,2.341,0,0,1,2.339-2.339Zm0,8.187a5.855,5.855,0,0,0,5.848-5.848,5.855,5.855,0,0,0-5.848-5.848,5.855,5.855,0,0,0-5.848,5.848,5.82,5.82,0,0,0,1.175,3.512l-9.608,13.427a5.832,5.832,0,0,0-1.821-.292,5.822,5.822,0,0,0-3.98,1.57l-6.4-3.634a5.8,5.8,0,0,0,.132-1.23,5.855,5.855,0,0,0-5.848-5.848,5.854,5.854,0,0,0-5.848,5.848,5.866,5.866,0,0,0,.131,1.23l-6.4,3.634a5.824,5.824,0,0,0-3.981-1.57,5.856,5.856,0,0,0-5.848,5.849,5.855,5.855,0,0,0,5.848,5.848,5.855,5.855,0,0,0,5.848-5.848,5.87,5.87,0,0,0-.131-1.23l6.4-3.634a5.829,5.829,0,0,0,3.981,1.569,5.828,5.828,0,0,0,3.98-1.569l6.4,3.634a5.8,5.8,0,0,0-.132,1.23,5.855,5.855,0,0,0,5.848,5.848,5.855,5.855,0,0,0,5.848-5.848,5.824,5.824,0,0,0-1.175-3.513l9.608-13.427a5.8,5.8,0,0,0,1.821.292Z" fill="#4384cd"/>
        <path id="Trazado_2055" data-name="Trazado 2055" d="M-417.084,3611.623a.481.481,0,0,1-.481.48h-62.4a.481.481,0,0,1-.481-.48v-3.861h63.364v3.861Zm14.031-7.37h-93a1.455,1.455,0,0,1-1.453-1.453v-72.378a1.455,1.455,0,0,1,1.453-1.454h8.271a1.754,1.754,0,0,0,1.754-1.754,1.754,1.754,0,0,0-1.754-1.754h-8.271a4.968,4.968,0,0,0-4.962,4.962V3602.8a4.968,4.968,0,0,0,4.962,4.962h12.1v3.861a3.993,3.993,0,0,0,3.989,3.989h17.561l-8.267,16.14a1.754,1.754,0,0,0,.762,2.361,1.749,1.749,0,0,0,.8.193,1.754,1.754,0,0,0,1.563-.955l9.086-17.739h19.4l9.086,17.739a1.754,1.754,0,0,0,1.563.955,1.746,1.746,0,0,0,.8-.193,1.754,1.754,0,0,0,.762-2.361l-8.266-16.14h17.56a3.993,3.993,0,0,0,3.989-3.989v-3.861h10.523a1.754,1.754,0,0,0,1.755-1.754,1.755,1.755,0,0,0-1.755-1.755Z" fill="#4384cd"/>
        <path id="Trazado_2056" data-name="Trazado 2056" d="M-454.994,3522.011a.893.893,0,0,1,.893-.892h10.67a.893.893,0,0,1,.893.892v3.449h-12.456v-3.449Zm-25.771,6.957h79.286a1.455,1.455,0,0,1,1.453,1.454V3547.1a1.754,1.754,0,0,0,1.755,1.754,1.754,1.754,0,0,0,1.754-1.754v-16.681a4.968,4.968,0,0,0-4.962-4.962h-37.55v-3.449a4.406,4.406,0,0,0-4.4-4.4H-454.1a4.406,4.406,0,0,0-4.4,4.4v3.449h-22.262a1.754,1.754,0,0,0-1.754,1.754,1.754,1.754,0,0,0,1.754,1.754Z" fill="#4384cd"/>
        <path id="Trazado_2057" data-name="Trazado 2057" d="M-471.114,3594.168h-3.609v-11.993h3.609v11.993Zm-5.363-15.5a1.754,1.754,0,0,0-1.754,1.754v15.5a1.754,1.754,0,0,0,1.754,1.754h7.117a1.754,1.754,0,0,0,1.755-1.754v-15.5a1.754,1.754,0,0,0-1.755-1.754Z" fill="#4384cd"/>
        <path id="Trazado_2058" data-name="Trazado 2058" d="M-455.012,3594.168h-3.609v-20.959h3.609v20.959Zm-5.364-24.468a1.755,1.755,0,0,0-1.754,1.755v24.467a1.755,1.755,0,0,0,1.754,1.755h7.118a1.754,1.754,0,0,0,1.754-1.755v-24.467a1.754,1.754,0,0,0-1.754-1.755Z" fill="#4384cd"/>
        <path id="Trazado_2059" data-name="Trazado 2059" d="M-438.911,3594.168h-3.608v-11.993h3.608v11.993Zm-5.363-15.5a1.754,1.754,0,0,0-1.754,1.754v15.5a1.754,1.754,0,0,0,1.754,1.754h7.117a1.754,1.754,0,0,0,1.755-1.754v-15.5a1.754,1.754,0,0,0-1.755-1.754Z" fill="#4384cd"/>
        <path id="Trazado_2060" data-name="Trazado 2060" d="M-428.172,3589.018a1.754,1.754,0,0,0-1.754,1.754v5.15a1.754,1.754,0,0,0,1.754,1.755h7.117a1.755,1.755,0,0,0,1.755-1.755,1.754,1.754,0,0,0-1.755-1.754h-5.363v-3.4a1.754,1.754,0,0,0-1.754-1.754Z" fill="#4384cd"/>
        <path id="Trazado_2061" data-name="Trazado 2061" d="M-386.341,3611.974a3.163,3.163,0,0,1-4.317-1.156l-9.681-16.772a23.286,23.286,0,0,0,2.844-1.392,23.308,23.308,0,0,0,2.626-1.77l9.684,16.773a3.165,3.165,0,0,1,.425,1.578,3.17,3.17,0,0,1-1.581,2.739Zm-27.646-20.419a19.291,19.291,0,0,1-11.793-9.049,19.444,19.444,0,0,1,7.109-26.53,19.3,19.3,0,0,1,9.678-2.6,19.435,19.435,0,0,1,16.852,9.706,19.3,19.3,0,0,1,1.94,14.737,19.3,19.3,0,0,1-9.049,11.793,19.3,19.3,0,0,1-14.737,1.94Zm31.841,14.348-10.064-17.432a22.816,22.816,0,0,0,5.4-9.741,22.777,22.777,0,0,0-2.291-17.4,22.954,22.954,0,0,0-31.322-8.393,22.955,22.955,0,0,0-8.393,31.323,22.779,22.779,0,0,0,13.923,10.683,23.024,23.024,0,0,0,5.972.792,22.664,22.664,0,0,0,5.164-.6l10.062,17.433a6.669,6.669,0,0,0,5.787,3.333,6.628,6.628,0,0,0,3.323-.892,6.689,6.689,0,0,0,3.336-5.779,6.672,6.672,0,0,0-.895-3.331Z" fill="#4384cd"/>
        <path id="Trazado_2062" data-name="Trazado 2062" d="M-393.054,3577.738a16.6,16.6,0,0,0-.83-12.027,1.755,1.755,0,0,0-2.335-.839,1.752,1.752,0,0,0-.839,2.334,13.106,13.106,0,0,1,.653,9.492,13.1,13.1,0,0,1-5.982,7.484,13.059,13.059,0,0,1-9.976,1.313,13.062,13.062,0,0,1-7.984-6.125,13.163,13.163,0,0,1,4.813-17.961,13.129,13.129,0,0,1,14.514.9,1.754,1.754,0,0,0,2.458-.34,1.755,1.755,0,0,0-.341-2.458,16.631,16.631,0,0,0-18.386-1.143,16.552,16.552,0,0,0-7.761,10.114,16.554,16.554,0,0,0,1.664,12.64,16.553,16.553,0,0,0,10.114,7.761,16.772,16.772,0,0,0,4.338.574,16.572,16.572,0,0,0,8.3-2.238,16.605,16.605,0,0,0,7.578-9.483Z" fill="#4384cd"/>
      </g>
    </g>
  </g>
</svg>
