<svg xmlns="http://www.w3.org/2000/svg" width="106.623" height="106.623" viewBox="0 0 106.623 106.623">
  <g id="Grupo_10707" data-name="Grupo 10707" transform="translate(-178.723 -3561.258)">
    <path id="Trazado_1921" data-name="Trazado 1921" d="M198.27,3563.034h31.988a7.094,7.094,0,0,1,7.108,7.109v56.866a7.093,7.093,0,0,1-7.108,7.107H198.27a7.092,7.092,0,0,1-7.107-7.107v-56.866a7.093,7.093,0,0,1,7.107-7.109Zm0,0" fill="#02a9f4"/>
    <path id="Trazado_1922" data-name="Trazado 1922" d="M272.907,3666.1H191.163a10.663,10.663,0,0,1-10.663-10.663v-5.331a1.777,1.777,0,0,1,1.778-1.776h99.514a1.778,1.778,0,0,1,1.778,1.776v5.331a10.664,10.664,0,0,1-10.663,10.663Zm0,0" fill="#c5d9e3"/>
    <path id="Trazado_1923" data-name="Trazado 1923" d="M214.264,3648.334H249.8v3.553a5.331,5.331,0,0,1-5.331,5.332H219.6a5.332,5.332,0,0,1-5.331-5.332Zm0,0" fill="#d1e1e9"/>
    <path id="Trazado_1924" data-name="Trazado 1924" d="M280.015,3582.583v65.751H184.054v-65.751a7.108,7.108,0,0,1,7.109-7.109v58.642a7.108,7.108,0,0,0,7.107,7.109h31.988a7.109,7.109,0,0,0,7.108-7.109v-58.642h35.541a7.108,7.108,0,0,1,7.108,7.109Zm0,0" fill="#69d6f4"/>
    <path id="Trazado_1925" data-name="Trazado 1925" d="M191.163,3655.441a1.777,1.777,0,1,1-1.778-1.776,1.778,1.778,0,0,1,1.778,1.776Zm0,0" fill="#f5f5f5"/>
    <path id="Trazado_1926" data-name="Trazado 1926" d="M196.494,3655.441a1.778,1.778,0,1,1-1.777-1.776,1.778,1.778,0,0,1,1.777,1.776Zm0,0" fill="#e91e63"/>
    <path id="Trazado_1927" data-name="Trazado 1927" d="M228.48,3563.034l-4.264,5.687a3.556,3.556,0,0,1-2.843,1.422H207.155a3.553,3.553,0,0,1-2.842-1.422l-4.265-5.687Zm0,0" fill="#c5d9e3"/>
    <path id="Trazado_1928" data-name="Trazado 1928" d="M237.366,3627.009v7.107a7.109,7.109,0,0,1-7.108,7.109H198.27a7.108,7.108,0,0,1-7.107-7.109v-7.107a7.107,7.107,0,0,0,7.107,7.107h31.988a7.108,7.108,0,0,0,7.108-7.107Zm0,0" fill="#c5d9e3"/>
    <path id="Trazado_1929" data-name="Trazado 1929" d="M246.251,3587.914h-1.777a1.778,1.778,0,1,1,0-3.555h1.777a1.778,1.778,0,1,1,0,3.555Zm0,0" fill="#94e3ec"/>
    <path id="Trazado_1930" data-name="Trazado 1930" d="M271.13,3587.914H253.36a1.778,1.778,0,1,1,0-3.555h17.77a1.778,1.778,0,0,1,0,3.555Zm0,0" fill="#607d8b"/>
    <path id="Trazado_1931" data-name="Trazado 1931" d="M246.251,3596.8h-1.777a1.778,1.778,0,1,1,0-3.555h1.777a1.778,1.778,0,1,1,0,3.555Zm0,0" fill="#94e3ec"/>
    <path id="Trazado_1932" data-name="Trazado 1932" d="M271.13,3596.8H253.36a1.778,1.778,0,1,1,0-3.555h17.77a1.778,1.778,0,0,1,0,3.555Zm0,0" fill="#607d8b"/>
    <path id="Trazado_1933" data-name="Trazado 1933" d="M246.251,3605.684h-1.777a1.777,1.777,0,1,1,0-3.554h1.777a1.777,1.777,0,1,1,0,3.554Zm0,0" fill="#94e3ec"/>
    <path id="Trazado_1934" data-name="Trazado 1934" d="M271.13,3605.684H253.36a1.777,1.777,0,1,1,0-3.554h17.77a1.777,1.777,0,0,1,0,3.554Zm0,0" fill="#607d8b"/>
    <path id="Trazado_1935" data-name="Trazado 1935" d="M246.251,3614.569h-1.777a1.777,1.777,0,1,1,0-3.554h1.777a1.777,1.777,0,1,1,0,3.554Zm0,0" fill="#94e3ec"/>
    <path id="Trazado_1936" data-name="Trazado 1936" d="M271.13,3614.569H253.36a1.777,1.777,0,1,1,0-3.554h17.77a1.777,1.777,0,0,1,0,3.554Zm0,0" fill="#607d8b"/>
    <path id="Trazado_1937" data-name="Trazado 1937" d="M244.474,3641.225a1.778,1.778,0,0,1-1.778-1.776v-7.109a1.778,1.778,0,0,1,3.555,0v7.109a1.777,1.777,0,0,1-1.777,1.776Zm0,0" fill="#ff7bac"/>
    <path id="Trazado_1938" data-name="Trazado 1938" d="M271.129,3641.225a1.777,1.777,0,0,1-1.777-1.776v-7.109a1.778,1.778,0,0,1,3.555,0v7.109a1.778,1.778,0,0,1-1.778,1.776Zm0,0" fill="#049be5"/>
    <path id="Trazado_1939" data-name="Trazado 1939" d="M262.243,3641.225a1.777,1.777,0,0,1-1.776-1.776v-10.662a1.777,1.777,0,1,1,3.554,0v10.662a1.778,1.778,0,0,1-1.778,1.776Zm0,0" fill="#ff7bac"/>
    <path id="Trazado_1940" data-name="Trazado 1940" d="M253.359,3641.225a1.777,1.777,0,0,1-1.777-1.776v-15.994a1.776,1.776,0,1,1,3.553,0v15.994a1.777,1.777,0,0,1-1.776,1.776Zm0,0" fill="#049be5"/>
    <path id="Trazado_1941" data-name="Trazado 1941" d="M230.258,3600.353a15.994,15.994,0,0,1-9.383,14.554l-2.933-6.468a8.886,8.886,0,0,0,1.547-15.2l4.176-5.739a15.993,15.993,0,0,1,6.593,12.848Zm0,0" fill="#ff9801"/>
    <path id="Trazado_1942" data-name="Trazado 1942" d="M223.665,3587.434l-4.176,5.81a8.765,8.765,0,0,0-5.225-1.776,8.886,8.886,0,0,0-7.019,3.429l-5.6-4.353a15.994,15.994,0,0,1,22.018-3.11Zm0,0" fill="#ffdc00"/>
    <path id="Trazado_1943" data-name="Trazado 1943" d="M220.875,3614.907a15.779,15.779,0,0,1-6.611,1.439,15.993,15.993,0,0,1-12.617-25.8l5.6,4.353a8.885,8.885,0,0,0,10.662,13.542Zm0,0" fill="#f44335"/>
    <path id="Trazado_1944" data-name="Trazado 1944" d="M223.149,3600.353a8.885,8.885,0,0,1-5.207,8.086,8.756,8.756,0,0,1-3.678.8,8.885,8.885,0,1,1,0-17.77,8.765,8.765,0,0,1,5.225,1.776,8.884,8.884,0,0,1,3.66,7.109Zm0,0" fill="#f5f5f5"/>
    <path id="Trazado_1945" data-name="Trazado 1945" d="M281.792,3646.556v-63.973a8.885,8.885,0,0,0-8.885-8.886H239.144v-3.554a8.886,8.886,0,0,0-8.886-8.885H198.27a8.886,8.886,0,0,0-8.885,8.885v3.732a8.883,8.883,0,0,0-7.107,8.708v63.973a3.554,3.554,0,0,0-3.555,3.554v5.331a12.441,12.441,0,0,0,12.44,12.44h81.744a12.44,12.44,0,0,0,12.439-12.44v-5.331a3.554,3.554,0,0,0-3.554-3.554Zm-88.853-12.44a8.741,8.741,0,0,0,5.331,1.778h31.988a8.741,8.741,0,0,0,5.331-1.778,5.332,5.332,0,0,1-5.331,5.333H198.27a5.333,5.333,0,0,1-5.331-5.333Zm31.987-69.3-2.132,2.843a1.776,1.776,0,0,1-1.421.712H207.155a1.775,1.775,0,0,1-1.42-.712l-2.133-2.843Zm-31.987,5.331a5.331,5.331,0,0,1,5.331-5.331h.89l3.731,4.975a5.329,5.329,0,0,0,4.264,2.133h14.218a5.331,5.331,0,0,0,4.265-2.133l3.731-4.975h.889a5.331,5.331,0,0,1,5.331,5.331v56.866a5.332,5.332,0,0,1-5.331,5.331H198.27a5.333,5.333,0,0,1-5.331-5.331Zm-7.107,12.44a5.326,5.326,0,0,1,3.553-5.011v56.544A8.886,8.886,0,0,0,198.27,3643h31.988a8.886,8.886,0,0,0,8.886-8.886v-56.864h33.763a5.33,5.33,0,0,1,5.331,5.331v63.973H185.832Zm30.209,67.527h31.988v1.777a3.555,3.555,0,0,1-3.555,3.554H219.6a3.554,3.554,0,0,1-3.554-3.554Zm65.751,5.331a8.884,8.884,0,0,1-8.885,8.885H191.163a8.884,8.884,0,0,1-8.885-8.885v-5.331h30.21v1.777A7.108,7.108,0,0,0,219.6,3659h24.879a7.108,7.108,0,0,0,7.108-7.109v-1.777h30.21Zm0,0" fill="#717377"/>
    <path id="Trazado_1946" data-name="Trazado 1946" d="M214.264,3618.124a17.771,17.771,0,1,0-15.845-10.006,17.789,17.789,0,0,0,15.845,10.006Zm14.216-17.771a14.213,14.213,0,0,1-6.77,12.084l-1.475-3.2a10.661,10.661,0,0,0,1.653-16.278l2.1-2.9a14.215,14.215,0,0,1,4.495,10.29Zm-14.216-7.109a7.109,7.109,0,1,1-7.109,7.109,7.109,7.109,0,0,1,7.109-7.109Zm6.859-5.33-2.113,2.9a10.448,10.448,0,0,0-11.855,1.705l-2.842-2.222a14.217,14.217,0,0,1,9.951-4.157,14,14,0,0,1,6.859,1.777Zm-19.067,5.189,2.825,2.2a10.545,10.545,0,0,0-1.279,5.047,10.662,10.662,0,0,0,10.662,10.662,10.77,10.77,0,0,0,2.737-.373l1.475,3.287a14.216,14.216,0,0,1-16.42-20.826Zm0,0" fill="#717377"/>
    <path id="Trazado_1947" data-name="Trazado 1947" d="M221.373,3621.678H207.155a1.776,1.776,0,0,0,0,3.553h14.218a1.776,1.776,0,0,0,0-3.553Zm0,0" fill="#717377"/>
  </g>
</svg>
