<svg xmlns="http://www.w3.org/2000/svg" xmlns:xlink="http://www.w3.org/1999/xlink" width="115.504" height="133.206" viewBox="0 0 115.504 133.206">
  <defs>
    <linearGradient id="linear-gradient" x1="0.5" y1="1" x2="0.5" gradientUnits="objectBoundingBox">
      <stop offset="0" stop-color="#cbf1f6"/>
      <stop offset="1" stop-color="#fff"/>
    </linearGradient>
  </defs>
  <g id="Grupo_10767" data-name="Grupo 10767" transform="translate(-196.623 -5627.279)">
    <path id="Trazado_2032" data-name="Trazado 2032" d="M306.191,5662.039l-2.16-1.307a6.057,6.057,0,0,0-8.317,2.048l-5.1,8.438v-25.133a6.058,6.058,0,0,0-6.057-6.057h-19.12a6.034,6.034,0,0,0-5.366-3.3h-4.6v-2.043a6.056,6.056,0,0,0-6.056-6.057h-9.746a6.057,6.057,0,0,0-6.057,6.057v2.043h-4.6a6.034,6.034,0,0,0-5.366,3.3h-19.12a6.058,6.058,0,0,0-6.057,6.057v106.22a6.057,6.057,0,0,0,6.057,6.057h80.027a6.057,6.057,0,0,0,6.057-6.057v-52.8l17.628-29.146A6.057,6.057,0,0,0,306.191,5662.039Z" fill="url(#linear-gradient)"/>
    <g id="Grupo_10766" data-name="Grupo 10766">
      <g id="Grupo_10765" data-name="Grupo 10765">
        <path id="Trazado_2033" data-name="Trazado 2033" d="M220.574,5665.75H271.22a1.952,1.952,0,0,0,0-3.9H220.574a1.952,1.952,0,0,0,0,3.9Zm0,0" fill="#4384cd"/>
        <path id="Trazado_2034" data-name="Trazado 2034" d="M220.574,5673.9h38.584a1.952,1.952,0,1,0,0-3.9H220.574a1.952,1.952,0,0,0,0,3.9Zm0,0" fill="#4384cd"/>
        <path id="Trazado_2035" data-name="Trazado 2035" d="M220.574,5697.076h42.708a1.952,1.952,0,0,0,0-3.9H220.574a1.952,1.952,0,0,0,0,3.9Zm0,0" fill="#4384cd"/>
        <path id="Trazado_2036" data-name="Trazado 2036" d="M259.158,5705.23a1.952,1.952,0,1,0,0-3.9H220.574a1.952,1.952,0,0,0,0,3.9Zm0,0" fill="#4384cd"/>
        <path id="Trazado_2037" data-name="Trazado 2037" d="M221.55,5730.625h16.184a1.952,1.952,0,1,0,0-3.9H221.55a1.952,1.952,0,0,0,0,3.9Zm0,0" fill="#4384cd"/>
        <path id="Trazado_2038" data-name="Trazado 2038" d="M233.611,5738.78a1.952,1.952,0,0,0,0-3.9H221.55a1.952,1.952,0,0,0,0,3.9Zm0,0" fill="#4384cd"/>
        <path id="Trazado_2039" data-name="Trazado 2039" d="M308.816,5660.663l-3.1-1.962a7.126,7.126,0,0,0-9.834,2.21l-2.841,4.488-3.944,6.233-4.46,7.048v-29.3a3.663,3.663,0,0,0-3.659-3.66H267v-3.9h18.722a2.828,2.828,0,0,1,2.826,2.824v16.9a1.952,1.952,0,0,0,3.9,0v-16.9a6.737,6.737,0,0,0-6.73-6.728H266.592a5.326,5.326,0,0,0-4.916-3.291h-5.042v-1.966a5.389,5.389,0,0,0-5.382-5.381H237.818a5.388,5.388,0,0,0-5.382,5.382v1.965h-5.042a5.325,5.325,0,0,0-4.915,3.291H203.351a6.735,6.735,0,0,0-6.728,6.728v109.112a6.735,6.735,0,0,0,6.728,6.728h82.367a6.737,6.737,0,0,0,6.73-6.728V5710a1.952,1.952,0,1,0-3.9,0v43.762a2.828,2.828,0,0,1-2.826,2.824H203.351a2.828,2.828,0,0,1-2.825-2.824V5644.645a2.828,2.828,0,0,1,2.825-2.824h18.724v3.9H208.088a3.664,3.664,0,0,0-3.658,3.66v99.634a3.664,3.664,0,0,0,3.658,3.66h72.893a3.664,3.664,0,0,0,3.659-3.66v-36.831l19.6-30.971h0l3.943-6.231,2.843-4.49a7.135,7.135,0,0,0-2.209-9.831Zm-7.616.915a3.189,3.189,0,0,1,2.429.421l3.1,1.962a3.226,3.226,0,0,1,1,4.445l-1.8,2.841-8.54-5.409,1.8-2.839a3.192,3.192,0,0,1,2.016-1.421Zm-36.966,75.554A13.066,13.066,0,0,1,263,5738.78a13.669,13.669,0,0,0-2.074-2.221l36.368-57.431,2.605,1.651Zm-13.326,11.64c-.014,0-.032-.014-.038-.014h0c4.228-17.558,2.171-9.01,2.757-11.451a9.829,9.829,0,0,1,6.445,4.081c-10.335,8.327-9.015,7.25-9.161,7.383Zm44.391-79.636,8.542,5.409-1.857,2.934-8.542-5.409Zm-69.321-29.147,0-.071v-.025a1.419,1.419,0,0,1,1.414-1.364h5.592a3.358,3.358,0,0,0,3.354-3.354v-2.515a1.479,1.479,0,0,1,1.478-1.477h13.435a1.479,1.479,0,0,1,1.478,1.477v2.515a3.358,3.358,0,0,0,3.354,3.354h5.591a1.416,1.416,0,0,1,1.413,1.364v.025c0,.022,0,.047,0,.071v5.735H225.978Zm-17.645,9.639h72.4v35.22l-20.427,32.28a1.952,1.952,0,0,0,3.3,2.088l27.746-43.847,2.64,1.671-36.368,57.431a13.677,13.677,0,0,0-2.9-.926,13.206,13.206,0,0,1,.961-1.822l3.035-4.794a1.952,1.952,0,1,0-3.3-2.089l-3.034,4.794a17.041,17.041,0,0,0-2.171,5.129v0l-3.144,13.047a3.985,3.985,0,0,0-.114.962H208.333Zm72.4,99.146h-23.61l6.7-5.4a17.034,17.034,0,0,0,3.709-4.156l13.2-20.865Zm0,0" fill="#4384cd"/>
      </g>
    </g>
  </g>
</svg>
